M48
;GenerationSoftware,Autodesk,EAGLE,9.1.3*%
;CreationDate,2018-12-26T08:11:21Z*%
FMAT,2
ICI,OFF
METRIC,TZ,000.000
T9C0.500
T8C0.700
T7C0.813
T6C1.000
T5C1.016
T4C1.100
T3C1.200
T2C2.200
T1C3.000
%
G90
M71
T1
X23177Y89059
X46037Y89059
X34608Y90646
T2
X17463Y6350
X63182Y6350
X51752Y6350
X17463Y35560
X28892Y6350
X40323Y6350
X6032Y6350
X51752Y20955
X40323Y20955
X28892Y20955
X17463Y20955
X63182Y35560
X6032Y20955
X51752Y35560
X40323Y35560
X28892Y35560
X6032Y35560
X63182Y20955
T3
X13062Y100330
X21862Y100330
X35923Y100330
X56152Y100330
X47352Y100330
X33293Y100330
X44722Y100330
X67583Y100330
X24492Y100330
X58782Y100330
X10433Y100330
X1632Y100330
T4
X18713Y45960
X16212Y45960
X13712Y45960
X4783Y45960
X9783Y45960
X2283Y75960
X4783Y75960
X7282Y75960
X9783Y75960
X13712Y75960
X59432Y75960
X61932Y45960
X66933Y45960
X61932Y75960
X64432Y75960
X66933Y75960
X53002Y75960
X48002Y75960
X55502Y45960
X53002Y45960
X50502Y45960
X48002Y45960
X41573Y75960
X36573Y75960
X44072Y45960
X41573Y45960
X39073Y45960
X36573Y45960
X30142Y75960
X25142Y75960
X32642Y45960
X30142Y45960
X27642Y45960
X25142Y45960
X18713Y75960
X21213Y45960
T5
X31829Y59531
X60007Y20955
X67628Y20955
X57467Y20955
X14287Y6350
X21907Y6350
X11747Y6350
X60007Y6350
X67628Y6350
X57467Y6350
X51752Y9525
X51752Y1905
X51752Y12065
X14287Y35560
X21907Y35560
X11747Y35560
X28892Y9525
X28892Y1905
X28892Y12065
X37148Y6350
X44767Y6350
X34608Y6350
X6032Y9525
X6032Y1905
X6032Y12065
X51752Y24130
X51752Y16510
X51752Y26670
X37148Y20955
X44767Y20955
X34608Y20955
X28892Y24130
X28892Y16510
X28892Y26670
X14287Y20955
X21907Y20955
X11747Y20955
X60007Y35560
X57467Y35560
X6032Y24130
X6032Y16510
X6032Y26670
X51752Y38735
X51752Y31115
X51752Y41275
X6032Y31115
X6032Y38735
X66434Y80131
X28892Y41275
X28892Y31115
X28892Y38735
X34608Y35560
X44767Y35560
X37148Y35560
X14211Y80131
X20714Y80131
X14211Y84652
X20714Y84652
X2781Y80131
X9284Y80131
X2781Y84652
X9284Y84652
X59931Y80131
X59931Y84652
X66434Y84652
X48501Y80131
X55004Y80131
X48501Y84652
X67628Y35560
X55004Y84652
X37071Y80131
X43574Y80131
X37071Y84652
X43574Y84652
X25641Y80131
X32144Y80131
X25641Y84652
X32144Y84652
X6032Y41275
X11747Y91599
X11747Y89059
X11747Y86519
X57467Y91757
X57467Y89217
X57467Y86678
X31829Y51911
X31829Y54451
X31829Y56991
T6
X49252Y93630
X51752Y93630
X37823Y93630
X40323Y93630
X42823Y93630
X26392Y93630
X28892Y93630
X31392Y93630
X54252Y93630
X14962Y93630
X6032Y93630
X17463Y93630
X19963Y93630
X3532Y93630
X63182Y93630
X8533Y93630
X60682Y93630
X65683Y93630
T7
X20479Y11430
X9049Y13970
X9049Y11430
X66199Y13970
X66199Y11430
X54769Y13970
X54769Y11430
X43339Y13970
X43339Y11430
X31909Y13970
X31909Y11430
X20479Y13970
T8
X40323Y89059
X40323Y86519
X51752Y89059
X51752Y86519
X51752Y91599
X63182Y89059
X63182Y86519
X63182Y91599
X28892Y89059
X28892Y86519
X28892Y91599
X17463Y89059
X17463Y86519
X17463Y91599
X6032Y89059
X6032Y86519
X6032Y91599
X40323Y91599
T9
X8573Y16193
X31115Y16192
X14923Y18098
X37783Y17939
X53975Y16192
X60801Y18256
X17780Y17780
X31750Y8255
X24765Y8255
X24606Y22543
X34766Y23019
X13017Y22542
X22701Y23812
X8573Y39053
X42863Y37148
X20003Y37148
X58896Y37465
X31115Y40799
X54292Y40799
X14922Y44609
X57150Y45720
X19209Y43815
X57150Y44291
X12859Y49530
X40323Y48578
X13335Y50800
X34607Y48419
X25241Y51435
X50800Y48260
X12700Y44291
X9684Y44291
X17145Y58420
X2857Y57944
X13811Y29210
X16669Y29210
X36989Y29210
X39846Y29210
X58896Y29210
X61754Y29210
X48101Y29210
X26035Y24130
X22860Y76676
X27146Y32385
X7620Y28892
X38418Y56832
X43498Y50482
X48419Y23336
X65881Y24447
X37465Y57785
X48577Y49847
X49212Y26352
X53975Y26352
X46355Y23812
X43974Y23812
X31750Y25082
X26511Y25717
X33814Y53181
X28892Y53975
X15875Y58737
X5556Y59055
X34290Y56356
X29369Y55880
X7937Y45402
X6985Y46514
X7779Y47466
X7303Y48578
X13335Y73343
X23336Y66993
X28892Y70961
X23812Y65881
X37148Y72390
X23971Y64611
X40323Y69533
X15240Y90646
X15557Y86678
X17145Y57150
X4921Y56991
X17939Y56197
X4763Y55404
X41116Y68580
X24447Y58579
X24448Y59849
X40323Y67628
X19526Y61119
X12065Y63500
X6985Y69850
X17304Y71120
X26194Y71120
X28575Y66040
X29210Y61754
X7937Y66199
X2540Y49847
X11430Y56197
X14446Y52070
X4445Y18415
X11589Y14605
X9525Y5398
X9366Y26670
X19844Y25400
X31115Y23812
X48101Y33020
X36513Y40481
X21273Y26670
X13652Y40481
X59690Y40481
X43974Y33655
X49371Y20320
X65088Y25400
X25082Y43180
X31432Y43180
X36513Y43180
X41910Y43339
X46038Y41116
X46037Y43339
X42386Y41116
X21749Y22860
X46990Y27146
X15240Y31115
X15240Y26194
X27146Y30480
X38418Y26352
X60325Y30797
X60325Y27940
X60325Y23654
X37148Y38100
X14287Y38100
X46672Y37941
X54610Y43339
X53975Y37624
X20955Y43180
X19368Y41116
X28575Y51594
X47784Y48101
X36036Y67310
X40957Y52387
X49530Y71120
X40640Y57785
X49848Y52387
X57150Y60960
X59372Y56832
X34608Y84614
X34608Y80169
X23177Y93980
X34608Y93662
X46037Y93980
X55086Y25559
X54610Y23654
X34290Y51752
X24606Y53657
X24606Y55880
X37465Y62547
X48895Y43339
X48895Y41116
X59690Y46355
X57150Y63500
X57150Y66040
X1270Y48260
X1270Y38100
X1270Y27940
X1270Y7620
X8096Y1270
X18256Y1270
X27146Y1270
X37941Y1270
X48736Y1270
X58261Y1270
X67945Y33020
X64611Y1270
X67786Y9843
X67151Y42704
X67945Y78740
X1270Y78740
X67945Y87313
X1270Y87313
X1270Y96520
X67945Y96520
X5080Y105410
X15240Y105410
X25400Y105410
X35560Y105410
X45720Y105410
X55880Y105410
X64770Y105410
X16192Y55245
X21749Y24765
X2699Y59690
X23019Y58261
X45879Y84614
X23178Y84614
X8414Y87630
X8255Y82550
X9525Y89535
X27305Y86360
X27940Y80645
X45720Y66040
X57150Y54134
X65246Y48419
X57785Y52863
X56356Y52863
X58420Y54134
X4445Y33655
X3810Y44450
X19685Y53340
X19685Y57785
X38418Y23495
X42863Y24447
X39529Y17145
X34449Y14605
X34449Y17145
X25717Y17145
X25717Y15240
X60325Y26035
X46831Y22384
X62389Y17145
X11589Y17145
X16669Y17145
X61595Y9525
X38418Y9525
X15875Y9525
X15240Y23495
X46037Y17145
X46037Y15240
X49212Y17145
X49212Y15240
X57309Y14605
X25400Y20320
X4604Y51752
X24289Y12065
X57309Y17145
X67945Y18415
X33655Y60325
X59690Y54134
X4128Y99695
X49212Y103187
X37783Y103187
X26352Y103187
X14922Y103187
X60642Y103187
X66040Y91122
X8731Y70644
X9525Y66040
X8255Y60960
X5239Y53816
X16192Y53657
X10160Y55086
X14922Y40481
X37783Y40481
X60960Y40481
X18733Y79058
X30162Y80010
X13176Y81915
X17939Y80804
X17145Y81756
X19209Y26670
X65087Y26670
X42386Y26670
X27464Y27464
X58102Y72390
X10795Y26670
X55721Y26670
X33655Y26670
X63817Y48260
X16510Y61277
X35243Y64452
X21749Y54927
X41910Y64770
X45720Y80010
X18256Y60484
X19526Y54927
X1905Y4128
X8414Y4128
X27781Y56039
X21273Y60960
X37783Y90805
X15875Y82233
X15081Y83185
X22066Y53340
X46355Y49212
X50959Y33179
X55721Y33020
X66993Y23019
X63659Y11113
X21114Y52546
X45402Y48260
X47149Y18733
X57309Y18733
X64611Y16192
X22066Y16192
M30