G04 EAGLE Gerber RS-274X export*
G75*
%MOMM*%
%FSLAX34Y34*%
%LPD*%
%AMOC8*
5,1,8,0,0,1.08239X$1,22.5*%
G01*
%ADD10C,0.254000*%


D10*
X200Y0D02*
X692150Y0D01*
X692150Y1066800D01*
X200Y1066800D01*
X200Y0D01*
X98325Y990300D02*
X110325Y990300D01*
X110325Y1016300D01*
X98325Y1016300D01*
X98325Y990300D01*
X10325Y990300D02*
X22325Y990300D01*
X22325Y1016300D01*
X10325Y1016300D01*
X10325Y990300D01*
X212625Y990300D02*
X224625Y990300D01*
X224625Y1016300D01*
X212625Y1016300D01*
X212625Y990300D01*
X124625Y990300D02*
X136625Y990300D01*
X136625Y1016300D01*
X124625Y1016300D01*
X124625Y990300D01*
X326925Y990300D02*
X338925Y990300D01*
X338925Y1016300D01*
X326925Y1016300D01*
X326925Y990300D01*
X238925Y990300D02*
X250925Y990300D01*
X250925Y1016300D01*
X238925Y1016300D01*
X238925Y990300D01*
X441225Y990300D02*
X453225Y990300D01*
X453225Y1016300D01*
X441225Y1016300D01*
X441225Y990300D01*
X353225Y990300D02*
X365225Y990300D01*
X365225Y1016300D01*
X353225Y1016300D01*
X353225Y990300D01*
X555525Y990300D02*
X567525Y990300D01*
X567525Y1016300D01*
X555525Y1016300D01*
X555525Y990300D01*
X467525Y990300D02*
X479525Y990300D01*
X479525Y1016300D01*
X467525Y1016300D01*
X467525Y990300D01*
X581825Y990300D02*
X593825Y990300D01*
X593825Y1016300D01*
X581825Y1016300D01*
X581825Y990300D01*
X669825Y990300D02*
X681825Y990300D01*
X681825Y1016300D01*
X669825Y1016300D01*
X669825Y990300D01*
X631393Y220550D02*
X630531Y220482D01*
X629677Y220347D01*
X628837Y220145D01*
X628015Y219878D01*
X627216Y219547D01*
X626446Y219155D01*
X625709Y218703D01*
X625010Y218195D01*
X624352Y217634D01*
X623741Y217023D01*
X623180Y216365D01*
X622672Y215666D01*
X622220Y214929D01*
X621828Y214159D01*
X621497Y213360D01*
X621230Y212538D01*
X621028Y211698D01*
X620893Y210844D01*
X620825Y209982D01*
X620825Y209118D01*
X620893Y208256D01*
X621028Y207402D01*
X621230Y206562D01*
X621497Y205740D01*
X621828Y204941D01*
X622220Y204171D01*
X622672Y203434D01*
X623180Y202735D01*
X623741Y202077D01*
X624352Y201466D01*
X625010Y200905D01*
X625709Y200397D01*
X626446Y199945D01*
X627216Y199553D01*
X628015Y199222D01*
X628837Y198955D01*
X629677Y198753D01*
X630531Y198618D01*
X631393Y198550D01*
X632257Y198550D01*
X633119Y198618D01*
X633973Y198753D01*
X634813Y198955D01*
X635635Y199222D01*
X636434Y199553D01*
X637204Y199945D01*
X637941Y200397D01*
X638640Y200905D01*
X639298Y201466D01*
X639909Y202077D01*
X640470Y202735D01*
X640978Y203434D01*
X641430Y204171D01*
X641822Y204941D01*
X642153Y205740D01*
X642420Y206562D01*
X642622Y207402D01*
X642757Y208256D01*
X642825Y209118D01*
X642825Y209982D01*
X642757Y210844D01*
X642622Y211698D01*
X642420Y212538D01*
X642153Y213360D01*
X641822Y214159D01*
X641430Y214929D01*
X640978Y215666D01*
X640470Y216365D01*
X639909Y217023D01*
X639298Y217634D01*
X638640Y218195D01*
X637941Y218703D01*
X637204Y219155D01*
X636434Y219547D01*
X635635Y219878D01*
X634813Y220145D01*
X633973Y220347D01*
X633119Y220482D01*
X632257Y220550D01*
X631393Y220550D01*
X174193Y74500D02*
X173331Y74432D01*
X172477Y74297D01*
X171637Y74095D01*
X170815Y73828D01*
X170016Y73497D01*
X169246Y73105D01*
X168509Y72653D01*
X167810Y72145D01*
X167152Y71584D01*
X166541Y70973D01*
X165980Y70315D01*
X165472Y69616D01*
X165020Y68879D01*
X164628Y68109D01*
X164297Y67310D01*
X164030Y66488D01*
X163828Y65648D01*
X163693Y64794D01*
X163625Y63932D01*
X163625Y63068D01*
X163693Y62206D01*
X163828Y61352D01*
X164030Y60512D01*
X164297Y59690D01*
X164628Y58891D01*
X165020Y58121D01*
X165472Y57384D01*
X165980Y56685D01*
X166541Y56027D01*
X167152Y55416D01*
X167810Y54855D01*
X168509Y54347D01*
X169246Y53895D01*
X170016Y53503D01*
X170815Y53172D01*
X171637Y52905D01*
X172477Y52703D01*
X173331Y52568D01*
X174193Y52500D01*
X175057Y52500D01*
X175919Y52568D01*
X176773Y52703D01*
X177613Y52905D01*
X178435Y53172D01*
X179234Y53503D01*
X180004Y53895D01*
X180741Y54347D01*
X181440Y54855D01*
X182098Y55416D01*
X182709Y56027D01*
X183270Y56685D01*
X183778Y57384D01*
X184230Y58121D01*
X184622Y58891D01*
X184953Y59690D01*
X185220Y60512D01*
X185422Y61352D01*
X185557Y62206D01*
X185625Y63068D01*
X185625Y63932D01*
X185557Y64794D01*
X185422Y65648D01*
X185220Y66488D01*
X184953Y67310D01*
X184622Y68109D01*
X184230Y68879D01*
X183778Y69616D01*
X183270Y70315D01*
X182709Y70973D01*
X182098Y71584D01*
X181440Y72145D01*
X180741Y72653D01*
X180004Y73105D01*
X179234Y73497D01*
X178435Y73828D01*
X177613Y74095D01*
X176773Y74297D01*
X175919Y74432D01*
X175057Y74500D01*
X174193Y74500D01*
X631393Y74500D02*
X630531Y74432D01*
X629677Y74297D01*
X628837Y74095D01*
X628015Y73828D01*
X627216Y73497D01*
X626446Y73105D01*
X625709Y72653D01*
X625010Y72145D01*
X624352Y71584D01*
X623741Y70973D01*
X623180Y70315D01*
X622672Y69616D01*
X622220Y68879D01*
X621828Y68109D01*
X621497Y67310D01*
X621230Y66488D01*
X621028Y65648D01*
X620893Y64794D01*
X620825Y63932D01*
X620825Y63068D01*
X620893Y62206D01*
X621028Y61352D01*
X621230Y60512D01*
X621497Y59690D01*
X621828Y58891D01*
X622220Y58121D01*
X622672Y57384D01*
X623180Y56685D01*
X623741Y56027D01*
X624352Y55416D01*
X625010Y54855D01*
X625709Y54347D01*
X626446Y53895D01*
X627216Y53503D01*
X628015Y53172D01*
X628837Y52905D01*
X629677Y52703D01*
X630531Y52568D01*
X631393Y52500D01*
X632257Y52500D01*
X633119Y52568D01*
X633973Y52703D01*
X634813Y52905D01*
X635635Y53172D01*
X636434Y53503D01*
X637204Y53895D01*
X637941Y54347D01*
X638640Y54855D01*
X639298Y55416D01*
X639909Y56027D01*
X640470Y56685D01*
X640978Y57384D01*
X641430Y58121D01*
X641822Y58891D01*
X642153Y59690D01*
X642420Y60512D01*
X642622Y61352D01*
X642757Y62206D01*
X642825Y63068D01*
X642825Y63932D01*
X642757Y64794D01*
X642622Y65648D01*
X642420Y66488D01*
X642153Y67310D01*
X641822Y68109D01*
X641430Y68879D01*
X640978Y69616D01*
X640470Y70315D01*
X639909Y70973D01*
X639298Y71584D01*
X638640Y72145D01*
X637941Y72653D01*
X637204Y73105D01*
X636434Y73497D01*
X635635Y73828D01*
X634813Y74095D01*
X633973Y74297D01*
X633119Y74432D01*
X632257Y74500D01*
X631393Y74500D01*
X528525Y63932D02*
X528457Y64794D01*
X528322Y65648D01*
X528120Y66488D01*
X527853Y67310D01*
X527522Y68109D01*
X527130Y68879D01*
X526678Y69616D01*
X526170Y70315D01*
X525609Y70973D01*
X524998Y71584D01*
X524340Y72145D01*
X523641Y72653D01*
X522904Y73105D01*
X522134Y73497D01*
X521335Y73828D01*
X520513Y74095D01*
X519673Y74297D01*
X518819Y74432D01*
X517957Y74500D01*
X517093Y74500D01*
X516231Y74432D01*
X515377Y74297D01*
X514537Y74095D01*
X513715Y73828D01*
X512916Y73497D01*
X512146Y73105D01*
X511409Y72653D01*
X510710Y72145D01*
X510052Y71584D01*
X509441Y70973D01*
X508880Y70315D01*
X508372Y69616D01*
X507920Y68879D01*
X507528Y68109D01*
X507197Y67310D01*
X506930Y66488D01*
X506728Y65648D01*
X506593Y64794D01*
X506525Y63932D01*
X506525Y63068D01*
X506593Y62206D01*
X506728Y61352D01*
X506930Y60512D01*
X507197Y59690D01*
X507528Y58891D01*
X507920Y58121D01*
X508372Y57384D01*
X508880Y56685D01*
X509441Y56027D01*
X510052Y55416D01*
X510710Y54855D01*
X511409Y54347D01*
X512146Y53895D01*
X512916Y53503D01*
X513715Y53172D01*
X514537Y52905D01*
X515377Y52703D01*
X516231Y52568D01*
X517093Y52500D01*
X517957Y52500D01*
X518819Y52568D01*
X519673Y52703D01*
X520513Y52905D01*
X521335Y53172D01*
X522134Y53503D01*
X522904Y53895D01*
X523641Y54347D01*
X524340Y54855D01*
X524998Y55416D01*
X525609Y56027D01*
X526170Y56685D01*
X526678Y57384D01*
X527130Y58121D01*
X527522Y58891D01*
X527853Y59690D01*
X528120Y60512D01*
X528322Y61352D01*
X528457Y62206D01*
X528525Y63068D01*
X528525Y63932D01*
X174193Y366600D02*
X173331Y366532D01*
X172477Y366397D01*
X171637Y366195D01*
X170815Y365928D01*
X170016Y365597D01*
X169246Y365205D01*
X168509Y364753D01*
X167810Y364245D01*
X167152Y363684D01*
X166541Y363073D01*
X165980Y362415D01*
X165472Y361716D01*
X165020Y360979D01*
X164628Y360209D01*
X164297Y359410D01*
X164030Y358588D01*
X163828Y357748D01*
X163693Y356894D01*
X163625Y356032D01*
X163625Y355168D01*
X163693Y354306D01*
X163828Y353452D01*
X164030Y352612D01*
X164297Y351790D01*
X164628Y350991D01*
X165020Y350221D01*
X165472Y349484D01*
X165980Y348785D01*
X166541Y348127D01*
X167152Y347516D01*
X167810Y346955D01*
X168509Y346447D01*
X169246Y345995D01*
X170016Y345603D01*
X170815Y345272D01*
X171637Y345005D01*
X172477Y344803D01*
X173331Y344668D01*
X174193Y344600D01*
X175057Y344600D01*
X175919Y344668D01*
X176773Y344803D01*
X177613Y345005D01*
X178435Y345272D01*
X179234Y345603D01*
X180004Y345995D01*
X180741Y346447D01*
X181440Y346955D01*
X182098Y347516D01*
X182709Y348127D01*
X183270Y348785D01*
X183778Y349484D01*
X184230Y350221D01*
X184622Y350991D01*
X184953Y351790D01*
X185220Y352612D01*
X185422Y353452D01*
X185557Y354306D01*
X185625Y355168D01*
X185625Y356032D01*
X185557Y356894D01*
X185422Y357748D01*
X185220Y358588D01*
X184953Y359410D01*
X184622Y360209D01*
X184230Y360979D01*
X183778Y361716D01*
X183270Y362415D01*
X182709Y363073D01*
X182098Y363684D01*
X181440Y364245D01*
X180741Y364753D01*
X180004Y365205D01*
X179234Y365597D01*
X178435Y365928D01*
X177613Y366195D01*
X176773Y366397D01*
X175919Y366532D01*
X175057Y366600D01*
X174193Y366600D01*
X299925Y63932D02*
X299857Y64794D01*
X299722Y65648D01*
X299520Y66488D01*
X299253Y67310D01*
X298922Y68109D01*
X298530Y68879D01*
X298078Y69616D01*
X297570Y70315D01*
X297009Y70973D01*
X296398Y71584D01*
X295740Y72145D01*
X295041Y72653D01*
X294304Y73105D01*
X293534Y73497D01*
X292735Y73828D01*
X291913Y74095D01*
X291073Y74297D01*
X290219Y74432D01*
X289357Y74500D01*
X288493Y74500D01*
X287631Y74432D01*
X286777Y74297D01*
X285937Y74095D01*
X285115Y73828D01*
X284316Y73497D01*
X283546Y73105D01*
X282809Y72653D01*
X282110Y72145D01*
X281452Y71584D01*
X280841Y70973D01*
X280280Y70315D01*
X279772Y69616D01*
X279320Y68879D01*
X278928Y68109D01*
X278597Y67310D01*
X278330Y66488D01*
X278128Y65648D01*
X277993Y64794D01*
X277925Y63932D01*
X277925Y63068D01*
X277993Y62206D01*
X278128Y61352D01*
X278330Y60512D01*
X278597Y59690D01*
X278928Y58891D01*
X279320Y58121D01*
X279772Y57384D01*
X280280Y56685D01*
X280841Y56027D01*
X281452Y55416D01*
X282110Y54855D01*
X282809Y54347D01*
X283546Y53895D01*
X284316Y53503D01*
X285115Y53172D01*
X285937Y52905D01*
X286777Y52703D01*
X287631Y52568D01*
X288493Y52500D01*
X289357Y52500D01*
X290219Y52568D01*
X291073Y52703D01*
X291913Y52905D01*
X292735Y53172D01*
X293534Y53503D01*
X294304Y53895D01*
X295041Y54347D01*
X295740Y54855D01*
X296398Y55416D01*
X297009Y56027D01*
X297570Y56685D01*
X298078Y57384D01*
X298530Y58121D01*
X298922Y58891D01*
X299253Y59690D01*
X299520Y60512D01*
X299722Y61352D01*
X299857Y62206D01*
X299925Y63068D01*
X299925Y63932D01*
X402793Y74500D02*
X401931Y74432D01*
X401077Y74297D01*
X400237Y74095D01*
X399415Y73828D01*
X398616Y73497D01*
X397846Y73105D01*
X397109Y72653D01*
X396410Y72145D01*
X395752Y71584D01*
X395141Y70973D01*
X394580Y70315D01*
X394072Y69616D01*
X393620Y68879D01*
X393228Y68109D01*
X392897Y67310D01*
X392630Y66488D01*
X392428Y65648D01*
X392293Y64794D01*
X392225Y63932D01*
X392225Y63068D01*
X392293Y62206D01*
X392428Y61352D01*
X392630Y60512D01*
X392897Y59690D01*
X393228Y58891D01*
X393620Y58121D01*
X394072Y57384D01*
X394580Y56685D01*
X395141Y56027D01*
X395752Y55416D01*
X396410Y54855D01*
X397109Y54347D01*
X397846Y53895D01*
X398616Y53503D01*
X399415Y53172D01*
X400237Y52905D01*
X401077Y52703D01*
X401931Y52568D01*
X402793Y52500D01*
X403657Y52500D01*
X404519Y52568D01*
X405373Y52703D01*
X406213Y52905D01*
X407035Y53172D01*
X407834Y53503D01*
X408604Y53895D01*
X409341Y54347D01*
X410040Y54855D01*
X410698Y55416D01*
X411309Y56027D01*
X411870Y56685D01*
X412378Y57384D01*
X412830Y58121D01*
X413222Y58891D01*
X413553Y59690D01*
X413820Y60512D01*
X414022Y61352D01*
X414157Y62206D01*
X414225Y63068D01*
X414225Y63932D01*
X414157Y64794D01*
X414022Y65648D01*
X413820Y66488D01*
X413553Y67310D01*
X413222Y68109D01*
X412830Y68879D01*
X412378Y69616D01*
X411870Y70315D01*
X411309Y70973D01*
X410698Y71584D01*
X410040Y72145D01*
X409341Y72653D01*
X408604Y73105D01*
X407834Y73497D01*
X407035Y73828D01*
X406213Y74095D01*
X405373Y74297D01*
X404519Y74432D01*
X403657Y74500D01*
X402793Y74500D01*
X71325Y63932D02*
X71257Y64794D01*
X71122Y65648D01*
X70920Y66488D01*
X70653Y67310D01*
X70322Y68109D01*
X69930Y68879D01*
X69478Y69616D01*
X68970Y70315D01*
X68409Y70973D01*
X67798Y71584D01*
X67140Y72145D01*
X66441Y72653D01*
X65704Y73105D01*
X64934Y73497D01*
X64135Y73828D01*
X63313Y74095D01*
X62473Y74297D01*
X61619Y74432D01*
X60757Y74500D01*
X59893Y74500D01*
X59031Y74432D01*
X58177Y74297D01*
X57337Y74095D01*
X56515Y73828D01*
X55716Y73497D01*
X54946Y73105D01*
X54209Y72653D01*
X53510Y72145D01*
X52852Y71584D01*
X52241Y70973D01*
X51680Y70315D01*
X51172Y69616D01*
X50720Y68879D01*
X50328Y68109D01*
X49997Y67310D01*
X49730Y66488D01*
X49528Y65648D01*
X49393Y64794D01*
X49325Y63932D01*
X49325Y63068D01*
X49393Y62206D01*
X49528Y61352D01*
X49730Y60512D01*
X49997Y59690D01*
X50328Y58891D01*
X50720Y58121D01*
X51172Y57384D01*
X51680Y56685D01*
X52241Y56027D01*
X52852Y55416D01*
X53510Y54855D01*
X54209Y54347D01*
X54946Y53895D01*
X55716Y53503D01*
X56515Y53172D01*
X57337Y52905D01*
X58177Y52703D01*
X59031Y52568D01*
X59893Y52500D01*
X60757Y52500D01*
X61619Y52568D01*
X62473Y52703D01*
X63313Y52905D01*
X64135Y53172D01*
X64934Y53503D01*
X65704Y53895D01*
X66441Y54347D01*
X67140Y54855D01*
X67798Y55416D01*
X68409Y56027D01*
X68970Y56685D01*
X69478Y57384D01*
X69930Y58121D01*
X70322Y58891D01*
X70653Y59690D01*
X70920Y60512D01*
X71122Y61352D01*
X71257Y62206D01*
X71325Y63068D01*
X71325Y63932D01*
X528525Y209982D02*
X528457Y210844D01*
X528322Y211698D01*
X528120Y212538D01*
X527853Y213360D01*
X527522Y214159D01*
X527130Y214929D01*
X526678Y215666D01*
X526170Y216365D01*
X525609Y217023D01*
X524998Y217634D01*
X524340Y218195D01*
X523641Y218703D01*
X522904Y219155D01*
X522134Y219547D01*
X521335Y219878D01*
X520513Y220145D01*
X519673Y220347D01*
X518819Y220482D01*
X517957Y220550D01*
X517093Y220550D01*
X516231Y220482D01*
X515377Y220347D01*
X514537Y220145D01*
X513715Y219878D01*
X512916Y219547D01*
X512146Y219155D01*
X511409Y218703D01*
X510710Y218195D01*
X510052Y217634D01*
X509441Y217023D01*
X508880Y216365D01*
X508372Y215666D01*
X507920Y214929D01*
X507528Y214159D01*
X507197Y213360D01*
X506930Y212538D01*
X506728Y211698D01*
X506593Y210844D01*
X506525Y209982D01*
X506525Y209118D01*
X506593Y208256D01*
X506728Y207402D01*
X506930Y206562D01*
X507197Y205740D01*
X507528Y204941D01*
X507920Y204171D01*
X508372Y203434D01*
X508880Y202735D01*
X509441Y202077D01*
X510052Y201466D01*
X510710Y200905D01*
X511409Y200397D01*
X512146Y199945D01*
X512916Y199553D01*
X513715Y199222D01*
X514537Y198955D01*
X515377Y198753D01*
X516231Y198618D01*
X517093Y198550D01*
X517957Y198550D01*
X518819Y198618D01*
X519673Y198753D01*
X520513Y198955D01*
X521335Y199222D01*
X522134Y199553D01*
X522904Y199945D01*
X523641Y200397D01*
X524340Y200905D01*
X524998Y201466D01*
X525609Y202077D01*
X526170Y202735D01*
X526678Y203434D01*
X527130Y204171D01*
X527522Y204941D01*
X527853Y205740D01*
X528120Y206562D01*
X528322Y207402D01*
X528457Y208256D01*
X528525Y209118D01*
X528525Y209982D01*
X402793Y220550D02*
X401931Y220482D01*
X401077Y220347D01*
X400237Y220145D01*
X399415Y219878D01*
X398616Y219547D01*
X397846Y219155D01*
X397109Y218703D01*
X396410Y218195D01*
X395752Y217634D01*
X395141Y217023D01*
X394580Y216365D01*
X394072Y215666D01*
X393620Y214929D01*
X393228Y214159D01*
X392897Y213360D01*
X392630Y212538D01*
X392428Y211698D01*
X392293Y210844D01*
X392225Y209982D01*
X392225Y209118D01*
X392293Y208256D01*
X392428Y207402D01*
X392630Y206562D01*
X392897Y205740D01*
X393228Y204941D01*
X393620Y204171D01*
X394072Y203434D01*
X394580Y202735D01*
X395141Y202077D01*
X395752Y201466D01*
X396410Y200905D01*
X397109Y200397D01*
X397846Y199945D01*
X398616Y199553D01*
X399415Y199222D01*
X400237Y198955D01*
X401077Y198753D01*
X401931Y198618D01*
X402793Y198550D01*
X403657Y198550D01*
X404519Y198618D01*
X405373Y198753D01*
X406213Y198955D01*
X407035Y199222D01*
X407834Y199553D01*
X408604Y199945D01*
X409341Y200397D01*
X410040Y200905D01*
X410698Y201466D01*
X411309Y202077D01*
X411870Y202735D01*
X412378Y203434D01*
X412830Y204171D01*
X413222Y204941D01*
X413553Y205740D01*
X413820Y206562D01*
X414022Y207402D01*
X414157Y208256D01*
X414225Y209118D01*
X414225Y209982D01*
X414157Y210844D01*
X414022Y211698D01*
X413820Y212538D01*
X413553Y213360D01*
X413222Y214159D01*
X412830Y214929D01*
X412378Y215666D01*
X411870Y216365D01*
X411309Y217023D01*
X410698Y217634D01*
X410040Y218195D01*
X409341Y218703D01*
X408604Y219155D01*
X407834Y219547D01*
X407035Y219878D01*
X406213Y220145D01*
X405373Y220347D01*
X404519Y220482D01*
X403657Y220550D01*
X402793Y220550D01*
X299925Y209982D02*
X299857Y210844D01*
X299722Y211698D01*
X299520Y212538D01*
X299253Y213360D01*
X298922Y214159D01*
X298530Y214929D01*
X298078Y215666D01*
X297570Y216365D01*
X297009Y217023D01*
X296398Y217634D01*
X295740Y218195D01*
X295041Y218703D01*
X294304Y219155D01*
X293534Y219547D01*
X292735Y219878D01*
X291913Y220145D01*
X291073Y220347D01*
X290219Y220482D01*
X289357Y220550D01*
X288493Y220550D01*
X287631Y220482D01*
X286777Y220347D01*
X285937Y220145D01*
X285115Y219878D01*
X284316Y219547D01*
X283546Y219155D01*
X282809Y218703D01*
X282110Y218195D01*
X281452Y217634D01*
X280841Y217023D01*
X280280Y216365D01*
X279772Y215666D01*
X279320Y214929D01*
X278928Y214159D01*
X278597Y213360D01*
X278330Y212538D01*
X278128Y211698D01*
X277993Y210844D01*
X277925Y209982D01*
X277925Y209118D01*
X277993Y208256D01*
X278128Y207402D01*
X278330Y206562D01*
X278597Y205740D01*
X278928Y204941D01*
X279320Y204171D01*
X279772Y203434D01*
X280280Y202735D01*
X280841Y202077D01*
X281452Y201466D01*
X282110Y200905D01*
X282809Y200397D01*
X283546Y199945D01*
X284316Y199553D01*
X285115Y199222D01*
X285937Y198955D01*
X286777Y198753D01*
X287631Y198618D01*
X288493Y198550D01*
X289357Y198550D01*
X290219Y198618D01*
X291073Y198753D01*
X291913Y198955D01*
X292735Y199222D01*
X293534Y199553D01*
X294304Y199945D01*
X295041Y200397D01*
X295740Y200905D01*
X296398Y201466D01*
X297009Y202077D01*
X297570Y202735D01*
X298078Y203434D01*
X298530Y204171D01*
X298922Y204941D01*
X299253Y205740D01*
X299520Y206562D01*
X299722Y207402D01*
X299857Y208256D01*
X299925Y209118D01*
X299925Y209982D01*
X174193Y220550D02*
X173331Y220482D01*
X172477Y220347D01*
X171637Y220145D01*
X170815Y219878D01*
X170016Y219547D01*
X169246Y219155D01*
X168509Y218703D01*
X167810Y218195D01*
X167152Y217634D01*
X166541Y217023D01*
X165980Y216365D01*
X165472Y215666D01*
X165020Y214929D01*
X164628Y214159D01*
X164297Y213360D01*
X164030Y212538D01*
X163828Y211698D01*
X163693Y210844D01*
X163625Y209982D01*
X163625Y209118D01*
X163693Y208256D01*
X163828Y207402D01*
X164030Y206562D01*
X164297Y205740D01*
X164628Y204941D01*
X165020Y204171D01*
X165472Y203434D01*
X165980Y202735D01*
X166541Y202077D01*
X167152Y201466D01*
X167810Y200905D01*
X168509Y200397D01*
X169246Y199945D01*
X170016Y199553D01*
X170815Y199222D01*
X171637Y198955D01*
X172477Y198753D01*
X173331Y198618D01*
X174193Y198550D01*
X175057Y198550D01*
X175919Y198618D01*
X176773Y198753D01*
X177613Y198955D01*
X178435Y199222D01*
X179234Y199553D01*
X180004Y199945D01*
X180741Y200397D01*
X181440Y200905D01*
X182098Y201466D01*
X182709Y202077D01*
X183270Y202735D01*
X183778Y203434D01*
X184230Y204171D01*
X184622Y204941D01*
X184953Y205740D01*
X185220Y206562D01*
X185422Y207402D01*
X185557Y208256D01*
X185625Y209118D01*
X185625Y209982D01*
X185557Y210844D01*
X185422Y211698D01*
X185220Y212538D01*
X184953Y213360D01*
X184622Y214159D01*
X184230Y214929D01*
X183778Y215666D01*
X183270Y216365D01*
X182709Y217023D01*
X182098Y217634D01*
X181440Y218195D01*
X180741Y218703D01*
X180004Y219155D01*
X179234Y219547D01*
X178435Y219878D01*
X177613Y220145D01*
X176773Y220347D01*
X175919Y220482D01*
X175057Y220550D01*
X174193Y220550D01*
X631393Y366600D02*
X630531Y366532D01*
X629677Y366397D01*
X628837Y366195D01*
X628015Y365928D01*
X627216Y365597D01*
X626446Y365205D01*
X625709Y364753D01*
X625010Y364245D01*
X624352Y363684D01*
X623741Y363073D01*
X623180Y362415D01*
X622672Y361716D01*
X622220Y360979D01*
X621828Y360209D01*
X621497Y359410D01*
X621230Y358588D01*
X621028Y357748D01*
X620893Y356894D01*
X620825Y356032D01*
X620825Y355168D01*
X620893Y354306D01*
X621028Y353452D01*
X621230Y352612D01*
X621497Y351790D01*
X621828Y350991D01*
X622220Y350221D01*
X622672Y349484D01*
X623180Y348785D01*
X623741Y348127D01*
X624352Y347516D01*
X625010Y346955D01*
X625709Y346447D01*
X626446Y345995D01*
X627216Y345603D01*
X628015Y345272D01*
X628837Y345005D01*
X629677Y344803D01*
X630531Y344668D01*
X631393Y344600D01*
X632257Y344600D01*
X633119Y344668D01*
X633973Y344803D01*
X634813Y345005D01*
X635635Y345272D01*
X636434Y345603D01*
X637204Y345995D01*
X637941Y346447D01*
X638640Y346955D01*
X639298Y347516D01*
X639909Y348127D01*
X640470Y348785D01*
X640978Y349484D01*
X641430Y350221D01*
X641822Y350991D01*
X642153Y351790D01*
X642420Y352612D01*
X642622Y353452D01*
X642757Y354306D01*
X642825Y355168D01*
X642825Y356032D01*
X642757Y356894D01*
X642622Y357748D01*
X642420Y358588D01*
X642153Y359410D01*
X641822Y360209D01*
X641430Y360979D01*
X640978Y361716D01*
X640470Y362415D01*
X639909Y363073D01*
X639298Y363684D01*
X638640Y364245D01*
X637941Y364753D01*
X637204Y365205D01*
X636434Y365597D01*
X635635Y365928D01*
X634813Y366195D01*
X633973Y366397D01*
X633119Y366532D01*
X632257Y366600D01*
X631393Y366600D01*
X71325Y209982D02*
X71257Y210844D01*
X71122Y211698D01*
X70920Y212538D01*
X70653Y213360D01*
X70322Y214159D01*
X69930Y214929D01*
X69478Y215666D01*
X68970Y216365D01*
X68409Y217023D01*
X67798Y217634D01*
X67140Y218195D01*
X66441Y218703D01*
X65704Y219155D01*
X64934Y219547D01*
X64135Y219878D01*
X63313Y220145D01*
X62473Y220347D01*
X61619Y220482D01*
X60757Y220550D01*
X59893Y220550D01*
X59031Y220482D01*
X58177Y220347D01*
X57337Y220145D01*
X56515Y219878D01*
X55716Y219547D01*
X54946Y219155D01*
X54209Y218703D01*
X53510Y218195D01*
X52852Y217634D01*
X52241Y217023D01*
X51680Y216365D01*
X51172Y215666D01*
X50720Y214929D01*
X50328Y214159D01*
X49997Y213360D01*
X49730Y212538D01*
X49528Y211698D01*
X49393Y210844D01*
X49325Y209982D01*
X49325Y209118D01*
X49393Y208256D01*
X49528Y207402D01*
X49730Y206562D01*
X49997Y205740D01*
X50328Y204941D01*
X50720Y204171D01*
X51172Y203434D01*
X51680Y202735D01*
X52241Y202077D01*
X52852Y201466D01*
X53510Y200905D01*
X54209Y200397D01*
X54946Y199945D01*
X55716Y199553D01*
X56515Y199222D01*
X57337Y198955D01*
X58177Y198753D01*
X59031Y198618D01*
X59893Y198550D01*
X60757Y198550D01*
X61619Y198618D01*
X62473Y198753D01*
X63313Y198955D01*
X64135Y199222D01*
X64934Y199553D01*
X65704Y199945D01*
X66441Y200397D01*
X67140Y200905D01*
X67798Y201466D01*
X68409Y202077D01*
X68970Y202735D01*
X69478Y203434D01*
X69930Y204171D01*
X70322Y204941D01*
X70653Y205740D01*
X70920Y206562D01*
X71122Y207402D01*
X71257Y208256D01*
X71325Y209118D01*
X71325Y209982D01*
X528525Y356032D02*
X528457Y356894D01*
X528322Y357748D01*
X528120Y358588D01*
X527853Y359410D01*
X527522Y360209D01*
X527130Y360979D01*
X526678Y361716D01*
X526170Y362415D01*
X525609Y363073D01*
X524998Y363684D01*
X524340Y364245D01*
X523641Y364753D01*
X522904Y365205D01*
X522134Y365597D01*
X521335Y365928D01*
X520513Y366195D01*
X519673Y366397D01*
X518819Y366532D01*
X517957Y366600D01*
X517093Y366600D01*
X516231Y366532D01*
X515377Y366397D01*
X514537Y366195D01*
X513715Y365928D01*
X512916Y365597D01*
X512146Y365205D01*
X511409Y364753D01*
X510710Y364245D01*
X510052Y363684D01*
X509441Y363073D01*
X508880Y362415D01*
X508372Y361716D01*
X507920Y360979D01*
X507528Y360209D01*
X507197Y359410D01*
X506930Y358588D01*
X506728Y357748D01*
X506593Y356894D01*
X506525Y356032D01*
X506525Y355168D01*
X506593Y354306D01*
X506728Y353452D01*
X506930Y352612D01*
X507197Y351790D01*
X507528Y350991D01*
X507920Y350221D01*
X508372Y349484D01*
X508880Y348785D01*
X509441Y348127D01*
X510052Y347516D01*
X510710Y346955D01*
X511409Y346447D01*
X512146Y345995D01*
X512916Y345603D01*
X513715Y345272D01*
X514537Y345005D01*
X515377Y344803D01*
X516231Y344668D01*
X517093Y344600D01*
X517957Y344600D01*
X518819Y344668D01*
X519673Y344803D01*
X520513Y345005D01*
X521335Y345272D01*
X522134Y345603D01*
X522904Y345995D01*
X523641Y346447D01*
X524340Y346955D01*
X524998Y347516D01*
X525609Y348127D01*
X526170Y348785D01*
X526678Y349484D01*
X527130Y350221D01*
X527522Y350991D01*
X527853Y351790D01*
X528120Y352612D01*
X528322Y353452D01*
X528457Y354306D01*
X528525Y355168D01*
X528525Y356032D01*
X402793Y366600D02*
X401931Y366532D01*
X401077Y366397D01*
X400237Y366195D01*
X399415Y365928D01*
X398616Y365597D01*
X397846Y365205D01*
X397109Y364753D01*
X396410Y364245D01*
X395752Y363684D01*
X395141Y363073D01*
X394580Y362415D01*
X394072Y361716D01*
X393620Y360979D01*
X393228Y360209D01*
X392897Y359410D01*
X392630Y358588D01*
X392428Y357748D01*
X392293Y356894D01*
X392225Y356032D01*
X392225Y355168D01*
X392293Y354306D01*
X392428Y353452D01*
X392630Y352612D01*
X392897Y351790D01*
X393228Y350991D01*
X393620Y350221D01*
X394072Y349484D01*
X394580Y348785D01*
X395141Y348127D01*
X395752Y347516D01*
X396410Y346955D01*
X397109Y346447D01*
X397846Y345995D01*
X398616Y345603D01*
X399415Y345272D01*
X400237Y345005D01*
X401077Y344803D01*
X401931Y344668D01*
X402793Y344600D01*
X403657Y344600D01*
X404519Y344668D01*
X405373Y344803D01*
X406213Y345005D01*
X407035Y345272D01*
X407834Y345603D01*
X408604Y345995D01*
X409341Y346447D01*
X410040Y346955D01*
X410698Y347516D01*
X411309Y348127D01*
X411870Y348785D01*
X412378Y349484D01*
X412830Y350221D01*
X413222Y350991D01*
X413553Y351790D01*
X413820Y352612D01*
X414022Y353452D01*
X414157Y354306D01*
X414225Y355168D01*
X414225Y356032D01*
X414157Y356894D01*
X414022Y357748D01*
X413820Y358588D01*
X413553Y359410D01*
X413222Y360209D01*
X412830Y360979D01*
X412378Y361716D01*
X411870Y362415D01*
X411309Y363073D01*
X410698Y363684D01*
X410040Y364245D01*
X409341Y364753D01*
X408604Y365205D01*
X407834Y365597D01*
X407035Y365928D01*
X406213Y366195D01*
X405373Y366397D01*
X404519Y366532D01*
X403657Y366600D01*
X402793Y366600D01*
X299925Y356032D02*
X299857Y356894D01*
X299722Y357748D01*
X299520Y358588D01*
X299253Y359410D01*
X298922Y360209D01*
X298530Y360979D01*
X298078Y361716D01*
X297570Y362415D01*
X297009Y363073D01*
X296398Y363684D01*
X295740Y364245D01*
X295041Y364753D01*
X294304Y365205D01*
X293534Y365597D01*
X292735Y365928D01*
X291913Y366195D01*
X291073Y366397D01*
X290219Y366532D01*
X289357Y366600D01*
X288493Y366600D01*
X287631Y366532D01*
X286777Y366397D01*
X285937Y366195D01*
X285115Y365928D01*
X284316Y365597D01*
X283546Y365205D01*
X282809Y364753D01*
X282110Y364245D01*
X281452Y363684D01*
X280841Y363073D01*
X280280Y362415D01*
X279772Y361716D01*
X279320Y360979D01*
X278928Y360209D01*
X278597Y359410D01*
X278330Y358588D01*
X278128Y357748D01*
X277993Y356894D01*
X277925Y356032D01*
X277925Y355168D01*
X277993Y354306D01*
X278128Y353452D01*
X278330Y352612D01*
X278597Y351790D01*
X278928Y350991D01*
X279320Y350221D01*
X279772Y349484D01*
X280280Y348785D01*
X280841Y348127D01*
X281452Y347516D01*
X282110Y346955D01*
X282809Y346447D01*
X283546Y345995D01*
X284316Y345603D01*
X285115Y345272D01*
X285937Y345005D01*
X286777Y344803D01*
X287631Y344668D01*
X288493Y344600D01*
X289357Y344600D01*
X290219Y344668D01*
X291073Y344803D01*
X291913Y345005D01*
X292735Y345272D01*
X293534Y345603D01*
X294304Y345995D01*
X295041Y346447D01*
X295740Y346955D01*
X296398Y347516D01*
X297009Y348127D01*
X297570Y348785D01*
X298078Y349484D01*
X298530Y350221D01*
X298922Y350991D01*
X299253Y351790D01*
X299520Y352612D01*
X299722Y353452D01*
X299857Y354306D01*
X299925Y355168D01*
X299925Y356032D01*
X71325Y356032D02*
X71257Y356894D01*
X71122Y357748D01*
X70920Y358588D01*
X70653Y359410D01*
X70322Y360209D01*
X69930Y360979D01*
X69478Y361716D01*
X68970Y362415D01*
X68409Y363073D01*
X67798Y363684D01*
X67140Y364245D01*
X66441Y364753D01*
X65704Y365205D01*
X64934Y365597D01*
X64135Y365928D01*
X63313Y366195D01*
X62473Y366397D01*
X61619Y366532D01*
X60757Y366600D01*
X59893Y366600D01*
X59031Y366532D01*
X58177Y366397D01*
X57337Y366195D01*
X56515Y365928D01*
X55716Y365597D01*
X54946Y365205D01*
X54209Y364753D01*
X53510Y364245D01*
X52852Y363684D01*
X52241Y363073D01*
X51680Y362415D01*
X51172Y361716D01*
X50720Y360979D01*
X50328Y360209D01*
X49997Y359410D01*
X49730Y358588D01*
X49528Y357748D01*
X49393Y356894D01*
X49325Y356032D01*
X49325Y355168D01*
X49393Y354306D01*
X49528Y353452D01*
X49730Y352612D01*
X49997Y351790D01*
X50328Y350991D01*
X50720Y350221D01*
X51172Y349484D01*
X51680Y348785D01*
X52241Y348127D01*
X52852Y347516D01*
X53510Y346955D01*
X54209Y346447D01*
X54946Y345995D01*
X55716Y345603D01*
X56515Y345272D01*
X57337Y345005D01*
X58177Y344803D01*
X59031Y344668D01*
X59893Y344600D01*
X60757Y344600D01*
X61619Y344668D01*
X62473Y344803D01*
X63313Y345005D01*
X64135Y345272D01*
X64934Y345603D01*
X65704Y345995D01*
X66441Y346447D01*
X67140Y346955D01*
X67798Y347516D01*
X68409Y348127D01*
X68970Y348785D01*
X69478Y349484D01*
X69930Y350221D01*
X70322Y350991D01*
X70653Y351790D01*
X70920Y352612D01*
X71122Y353452D01*
X71257Y354306D01*
X71325Y355168D01*
X71325Y356032D01*
X475375Y890052D02*
X475299Y888984D01*
X475146Y887923D01*
X474918Y886876D01*
X474616Y885848D01*
X474242Y884844D01*
X473797Y883869D01*
X473283Y882929D01*
X472704Y882028D01*
X472062Y881170D01*
X471360Y880360D01*
X470603Y879603D01*
X469793Y878901D01*
X468935Y878259D01*
X468034Y877680D01*
X467094Y877166D01*
X466119Y876721D01*
X465115Y876347D01*
X464087Y876045D01*
X463040Y875817D01*
X461979Y875664D01*
X460911Y875588D01*
X459839Y875588D01*
X458771Y875664D01*
X457710Y875817D01*
X456663Y876045D01*
X455635Y876347D01*
X454631Y876721D01*
X453656Y877166D01*
X452716Y877680D01*
X451815Y878259D01*
X450957Y878901D01*
X450147Y879603D01*
X449390Y880360D01*
X448688Y881170D01*
X448046Y882028D01*
X447467Y882929D01*
X446953Y883869D01*
X446508Y884844D01*
X446134Y885848D01*
X445832Y886876D01*
X445604Y887923D01*
X445451Y888984D01*
X445375Y890052D01*
X445375Y891124D01*
X445451Y892192D01*
X445604Y893253D01*
X445832Y894300D01*
X446134Y895328D01*
X446508Y896332D01*
X446953Y897307D01*
X447467Y898247D01*
X448046Y899148D01*
X448688Y900006D01*
X449390Y900816D01*
X450147Y901573D01*
X450957Y902275D01*
X451815Y902917D01*
X452716Y903496D01*
X453656Y904010D01*
X454631Y904455D01*
X455635Y904829D01*
X456663Y905131D01*
X457710Y905359D01*
X458771Y905512D01*
X459839Y905588D01*
X460911Y905588D01*
X461979Y905512D01*
X463040Y905359D01*
X464087Y905131D01*
X465115Y904829D01*
X466119Y904455D01*
X467094Y904010D01*
X468034Y903496D01*
X468935Y902917D01*
X469793Y902275D01*
X470603Y901573D01*
X471360Y900816D01*
X472062Y900006D01*
X472704Y899148D01*
X473283Y898247D01*
X473797Y897307D01*
X474242Y896332D01*
X474616Y895328D01*
X474918Y894300D01*
X475146Y893253D01*
X475299Y892192D01*
X475375Y891124D01*
X475375Y890052D01*
X246775Y890051D02*
X246699Y888983D01*
X246546Y887922D01*
X246318Y886875D01*
X246016Y885847D01*
X245642Y884843D01*
X245197Y883868D01*
X244683Y882928D01*
X244104Y882027D01*
X243462Y881169D01*
X242760Y880359D01*
X242003Y879602D01*
X241193Y878900D01*
X240335Y878258D01*
X239434Y877679D01*
X238494Y877165D01*
X237519Y876720D01*
X236515Y876346D01*
X235487Y876044D01*
X234440Y875816D01*
X233379Y875663D01*
X232311Y875587D01*
X231239Y875587D01*
X230171Y875663D01*
X229110Y875816D01*
X228063Y876044D01*
X227035Y876346D01*
X226031Y876720D01*
X225056Y877165D01*
X224116Y877679D01*
X223215Y878258D01*
X222357Y878900D01*
X221547Y879602D01*
X220790Y880359D01*
X220088Y881169D01*
X219446Y882027D01*
X218867Y882928D01*
X218353Y883868D01*
X217908Y884843D01*
X217534Y885847D01*
X217232Y886875D01*
X217004Y887922D01*
X216851Y888983D01*
X216775Y890051D01*
X216775Y891123D01*
X216851Y892191D01*
X217004Y893252D01*
X217232Y894299D01*
X217534Y895327D01*
X217908Y896331D01*
X218353Y897306D01*
X218867Y898246D01*
X219446Y899147D01*
X220088Y900005D01*
X220790Y900815D01*
X221547Y901572D01*
X222357Y902274D01*
X223215Y902916D01*
X224116Y903495D01*
X225056Y904009D01*
X226031Y904454D01*
X227035Y904828D01*
X228063Y905130D01*
X229110Y905358D01*
X230171Y905511D01*
X231239Y905587D01*
X232311Y905587D01*
X233379Y905511D01*
X234440Y905358D01*
X235487Y905130D01*
X236515Y904828D01*
X237519Y904454D01*
X238494Y904009D01*
X239434Y903495D01*
X240335Y902916D01*
X241193Y902274D01*
X242003Y901572D01*
X242760Y900815D01*
X243462Y900005D01*
X244104Y899147D01*
X244683Y898246D01*
X245197Y897306D01*
X245642Y896331D01*
X246016Y895327D01*
X246318Y894299D01*
X246546Y893252D01*
X246699Y892191D01*
X246775Y891123D01*
X246775Y890051D01*
X331075Y905926D02*
X331151Y904858D01*
X331304Y903797D01*
X331532Y902750D01*
X331834Y901722D01*
X332208Y900718D01*
X332653Y899743D01*
X333167Y898803D01*
X333746Y897902D01*
X334388Y897044D01*
X335090Y896234D01*
X335847Y895477D01*
X336657Y894775D01*
X337515Y894133D01*
X338416Y893554D01*
X339356Y893040D01*
X340331Y892595D01*
X341335Y892221D01*
X342363Y891919D01*
X343410Y891691D01*
X344471Y891538D01*
X345539Y891462D01*
X346611Y891462D01*
X347679Y891538D01*
X348740Y891691D01*
X349787Y891919D01*
X350815Y892221D01*
X351819Y892595D01*
X352794Y893040D01*
X353734Y893554D01*
X354635Y894133D01*
X355493Y894775D01*
X356303Y895477D01*
X357060Y896234D01*
X357762Y897044D01*
X358404Y897902D01*
X358983Y898803D01*
X359497Y899743D01*
X359942Y900718D01*
X360316Y901722D01*
X360618Y902750D01*
X360846Y903797D01*
X360999Y904858D01*
X361075Y905926D01*
X361075Y906998D01*
X360999Y908066D01*
X360846Y909127D01*
X360618Y910174D01*
X360316Y911202D01*
X359942Y912206D01*
X359497Y913181D01*
X358983Y914121D01*
X358404Y915022D01*
X357762Y915880D01*
X357060Y916690D01*
X356303Y917447D01*
X355493Y918149D01*
X354635Y918791D01*
X353734Y919370D01*
X352794Y919884D01*
X351819Y920329D01*
X350815Y920703D01*
X349787Y921005D01*
X348740Y921233D01*
X347679Y921386D01*
X346611Y921462D01*
X345539Y921462D01*
X344471Y921386D01*
X343410Y921233D01*
X342363Y921005D01*
X341335Y920703D01*
X340331Y920329D01*
X339356Y919884D01*
X338416Y919370D01*
X337515Y918791D01*
X336657Y918149D01*
X335847Y917447D01*
X335090Y916690D01*
X334388Y915880D01*
X333746Y915022D01*
X333167Y914121D01*
X332653Y913181D01*
X332208Y912206D01*
X331834Y911202D01*
X331532Y910174D01*
X331304Y909127D01*
X331151Y908066D01*
X331075Y906998D01*
X331075Y905926D01*
M02*
