G04 EAGLE Gerber RS-274X export*
G75*
%MOMM*%
%FSLAX34Y34*%
%LPD*%
%AMOC8*
5,1,8,0,0,1.08239X$1,22.5*%
G01*
%ADD10C,0.127000*%
%ADD11C,0.101600*%
%ADD12C,0.203200*%
%ADD13C,0.050800*%
%ADD14C,0.076200*%
%ADD15C,0.152400*%


D10*
X691769Y254508D02*
X586867Y254508D01*
X586867Y164592D01*
X691769Y164592D01*
X691769Y254508D01*
D11*
X687068Y260058D02*
X689017Y262007D01*
X687068Y260058D02*
X685119Y260058D01*
X683170Y262007D01*
X683170Y271752D01*
X685119Y271752D02*
X681221Y271752D01*
X677323Y271752D02*
X669527Y271752D01*
X669527Y269803D01*
X677323Y262007D01*
X677323Y260058D01*
D10*
X234569Y108458D02*
X129667Y108458D01*
X129667Y18542D01*
X234569Y18542D01*
X234569Y108458D01*
D11*
X144505Y115957D02*
X142556Y114008D01*
X140607Y114008D01*
X138658Y115957D01*
X138658Y125702D01*
X140607Y125702D02*
X136709Y125702D01*
X132811Y125702D02*
X125015Y125702D01*
X132811Y125702D02*
X132811Y119855D01*
X128913Y121804D01*
X126964Y121804D01*
X125015Y119855D01*
X125015Y115957D01*
X126964Y114008D01*
X130862Y114008D01*
X132811Y115957D01*
D10*
X586867Y108458D02*
X691769Y108458D01*
X586867Y108458D02*
X586867Y18542D01*
X691769Y18542D01*
X691769Y108458D01*
D11*
X606467Y115957D02*
X604518Y114008D01*
X602569Y114008D01*
X600620Y115957D01*
X600620Y125702D01*
X602569Y125702D02*
X598671Y125702D01*
X594773Y121804D02*
X590875Y125702D01*
X590875Y114008D01*
X594773Y114008D02*
X586977Y114008D01*
D10*
X562483Y108458D02*
X562483Y3556D01*
X562483Y108458D02*
X472567Y108458D01*
X472567Y3556D01*
X562483Y3556D01*
D11*
X490218Y114008D02*
X492167Y115957D01*
X490218Y114008D02*
X488269Y114008D01*
X486320Y115957D01*
X486320Y125702D01*
X488269Y125702D02*
X484371Y125702D01*
X480473Y114008D02*
X472677Y114008D01*
X480473Y114008D02*
X472677Y121804D01*
X472677Y123753D01*
X474626Y125702D01*
X478524Y125702D01*
X480473Y123753D01*
D10*
X234569Y400558D02*
X129667Y400558D01*
X129667Y310642D01*
X234569Y310642D01*
X234569Y400558D01*
D11*
X229868Y406108D02*
X231817Y408057D01*
X229868Y406108D02*
X227919Y406108D01*
X225970Y408057D01*
X225970Y417802D01*
X227919Y417802D02*
X224021Y417802D01*
X220123Y413904D02*
X216225Y417802D01*
X216225Y406108D01*
X220123Y406108D02*
X212327Y406108D01*
X208429Y417802D02*
X200633Y417802D01*
X200633Y415853D01*
X208429Y408057D01*
X208429Y406108D01*
D10*
X333883Y108458D02*
X333883Y3556D01*
X333883Y108458D02*
X243967Y108458D01*
X243967Y3556D01*
X333883Y3556D01*
D11*
X256856Y114008D02*
X258805Y115957D01*
X256856Y114008D02*
X254907Y114008D01*
X252958Y115957D01*
X252958Y125702D01*
X254907Y125702D02*
X251009Y125702D01*
X241264Y125702D02*
X241264Y114008D01*
X247111Y119855D02*
X241264Y125702D01*
X239315Y119855D02*
X247111Y119855D01*
D10*
X358267Y108458D02*
X463169Y108458D01*
X358267Y108458D02*
X358267Y18542D01*
X463169Y18542D01*
X463169Y108458D01*
D11*
X377867Y115957D02*
X375918Y114008D01*
X373969Y114008D01*
X372020Y115957D01*
X372020Y125702D01*
X373969Y125702D02*
X370071Y125702D01*
X366173Y123753D02*
X364224Y125702D01*
X360326Y125702D01*
X358377Y123753D01*
X358377Y121804D01*
X360326Y119855D01*
X362275Y119855D01*
X360326Y119855D02*
X358377Y117906D01*
X358377Y115957D01*
X360326Y114008D01*
X364224Y114008D01*
X366173Y115957D01*
D10*
X105283Y108458D02*
X105283Y3556D01*
X105283Y108458D02*
X15367Y108458D01*
X15367Y3556D01*
X105283Y3556D01*
D11*
X33018Y114008D02*
X34967Y115957D01*
X33018Y114008D02*
X31069Y114008D01*
X29120Y115957D01*
X29120Y125702D01*
X31069Y125702D02*
X27171Y125702D01*
X19375Y123753D02*
X15477Y125702D01*
X19375Y123753D02*
X23273Y119855D01*
X23273Y115957D01*
X21324Y114008D01*
X17426Y114008D01*
X15477Y115957D01*
X15477Y117906D01*
X17426Y119855D01*
X23273Y119855D01*
D10*
X562483Y149606D02*
X562483Y254508D01*
X472567Y254508D01*
X472567Y149606D01*
X562483Y149606D01*
D11*
X560068Y260058D02*
X562017Y262007D01*
X560068Y260058D02*
X558119Y260058D01*
X556170Y262007D01*
X556170Y271752D01*
X558119Y271752D02*
X554221Y271752D01*
X550323Y269803D02*
X548374Y271752D01*
X544476Y271752D01*
X542527Y269803D01*
X542527Y267854D01*
X544476Y265905D01*
X542527Y263956D01*
X542527Y262007D01*
X544476Y260058D01*
X548374Y260058D01*
X550323Y262007D01*
X550323Y263956D01*
X548374Y265905D01*
X550323Y267854D01*
X550323Y269803D01*
X548374Y265905D02*
X544476Y265905D01*
D10*
X463169Y254508D02*
X358267Y254508D01*
X358267Y164592D01*
X463169Y164592D01*
X463169Y254508D01*
D11*
X458468Y260058D02*
X460417Y262007D01*
X458468Y260058D02*
X456519Y260058D01*
X454570Y262007D01*
X454570Y271752D01*
X456519Y271752D02*
X452621Y271752D01*
X448723Y262007D02*
X446774Y260058D01*
X442876Y260058D01*
X440927Y262007D01*
X440927Y269803D01*
X442876Y271752D01*
X446774Y271752D01*
X448723Y269803D01*
X448723Y267854D01*
X446774Y265905D01*
X440927Y265905D01*
D10*
X333883Y254508D02*
X333883Y149606D01*
X333883Y254508D02*
X243967Y254508D01*
X243967Y149606D01*
X333883Y149606D01*
D11*
X331468Y260058D02*
X333417Y262007D01*
X331468Y260058D02*
X329519Y260058D01*
X327570Y262007D01*
X327570Y271752D01*
X329519Y271752D02*
X325621Y271752D01*
X321723Y267854D02*
X317825Y271752D01*
X317825Y260058D01*
X321723Y260058D02*
X313927Y260058D01*
X310029Y262007D02*
X310029Y269803D01*
X308080Y271752D01*
X304182Y271752D01*
X302233Y269803D01*
X302233Y262007D01*
X304182Y260058D01*
X308080Y260058D01*
X310029Y262007D01*
X302233Y269803D01*
D10*
X234569Y254508D02*
X129667Y254508D01*
X129667Y164592D01*
X234569Y164592D01*
X234569Y254508D01*
D11*
X229868Y260058D02*
X231817Y262007D01*
X229868Y260058D02*
X227919Y260058D01*
X225970Y262007D01*
X225970Y271752D01*
X227919Y271752D02*
X224021Y271752D01*
X220123Y267854D02*
X216225Y271752D01*
X216225Y260058D01*
X220123Y260058D02*
X212327Y260058D01*
X208429Y267854D02*
X204531Y271752D01*
X204531Y260058D01*
X208429Y260058D02*
X200633Y260058D01*
D10*
X586867Y400558D02*
X691769Y400558D01*
X586867Y400558D02*
X586867Y310642D01*
X691769Y310642D01*
X691769Y400558D01*
D11*
X687068Y406108D02*
X689017Y408057D01*
X687068Y406108D02*
X685119Y406108D01*
X683170Y408057D01*
X683170Y417802D01*
X685119Y417802D02*
X681221Y417802D01*
X677323Y413904D02*
X673425Y417802D01*
X673425Y406108D01*
X677323Y406108D02*
X669527Y406108D01*
X665629Y415853D02*
X663680Y417802D01*
X659782Y417802D01*
X657833Y415853D01*
X657833Y413904D01*
X659782Y411955D01*
X661731Y411955D01*
X659782Y411955D02*
X657833Y410006D01*
X657833Y408057D01*
X659782Y406108D01*
X663680Y406108D01*
X665629Y408057D01*
D10*
X105283Y254508D02*
X105283Y149606D01*
X105283Y254508D02*
X15367Y254508D01*
X15367Y149606D01*
X105283Y149606D01*
D11*
X102868Y260058D02*
X104817Y262007D01*
X102868Y260058D02*
X100919Y260058D01*
X98970Y262007D01*
X98970Y271752D01*
X100919Y271752D02*
X97021Y271752D01*
X93123Y267854D02*
X89225Y271752D01*
X89225Y260058D01*
X93123Y260058D02*
X85327Y260058D01*
X81429Y260058D02*
X73633Y260058D01*
X81429Y260058D02*
X73633Y267854D01*
X73633Y269803D01*
X75582Y271752D01*
X79480Y271752D01*
X81429Y269803D01*
D10*
X562483Y295656D02*
X562483Y400558D01*
X472567Y400558D01*
X472567Y295656D01*
X562483Y295656D01*
D11*
X560068Y406108D02*
X562017Y408057D01*
X560068Y406108D02*
X558119Y406108D01*
X556170Y408057D01*
X556170Y417802D01*
X558119Y417802D02*
X554221Y417802D01*
X550323Y413904D02*
X546425Y417802D01*
X546425Y406108D01*
X550323Y406108D02*
X542527Y406108D01*
X532782Y406108D02*
X532782Y417802D01*
X538629Y411955D01*
X530833Y411955D01*
D10*
X463169Y400558D02*
X358267Y400558D01*
X358267Y310642D01*
X463169Y310642D01*
X463169Y400558D01*
D11*
X458468Y406108D02*
X460417Y408057D01*
X458468Y406108D02*
X456519Y406108D01*
X454570Y408057D01*
X454570Y417802D01*
X456519Y417802D02*
X452621Y417802D01*
X448723Y413904D02*
X444825Y417802D01*
X444825Y406108D01*
X448723Y406108D02*
X440927Y406108D01*
X437029Y417802D02*
X429233Y417802D01*
X437029Y417802D02*
X437029Y411955D01*
X433131Y413904D01*
X431182Y413904D01*
X429233Y411955D01*
X429233Y408057D01*
X431182Y406108D01*
X435080Y406108D01*
X437029Y408057D01*
D10*
X333883Y400558D02*
X333883Y295656D01*
X333883Y400558D02*
X243967Y400558D01*
X243967Y295656D01*
X333883Y295656D01*
D11*
X331468Y406108D02*
X333417Y408057D01*
X331468Y406108D02*
X329519Y406108D01*
X327570Y408057D01*
X327570Y417802D01*
X329519Y417802D02*
X325621Y417802D01*
X321723Y413904D02*
X317825Y417802D01*
X317825Y406108D01*
X321723Y406108D02*
X313927Y406108D01*
X306131Y415853D02*
X302233Y417802D01*
X306131Y415853D02*
X310029Y411955D01*
X310029Y408057D01*
X308080Y406108D01*
X304182Y406108D01*
X302233Y408057D01*
X302233Y410006D01*
X304182Y411955D01*
X310029Y411955D01*
D10*
X105283Y400558D02*
X105283Y295656D01*
X105283Y400558D02*
X15367Y400558D01*
X15367Y295656D01*
X105283Y295656D01*
D11*
X102868Y406108D02*
X104817Y408057D01*
X102868Y406108D02*
X100919Y406108D01*
X98970Y408057D01*
X98970Y417802D01*
X100919Y417802D02*
X97021Y417802D01*
X93123Y413904D02*
X89225Y417802D01*
X89225Y406108D01*
X93123Y406108D02*
X85327Y406108D01*
X81429Y415853D02*
X79480Y417802D01*
X75582Y417802D01*
X73633Y415853D01*
X73633Y413904D01*
X75582Y411955D01*
X73633Y410006D01*
X73633Y408057D01*
X75582Y406108D01*
X79480Y406108D01*
X81429Y408057D01*
X81429Y410006D01*
X79480Y411955D01*
X81429Y413904D01*
X81429Y415853D01*
X79480Y411955D02*
X75582Y411955D01*
D10*
X588875Y1057900D02*
X674775Y1057900D01*
X588875Y1057900D02*
X588875Y960000D01*
X674775Y960000D01*
X674775Y1057900D01*
D12*
X642825Y997050D02*
X642975Y997320D01*
X643117Y997594D01*
X643253Y997872D01*
X643382Y998152D01*
X643505Y998436D01*
X643620Y998722D01*
X643728Y999012D01*
X643829Y999304D01*
X643923Y999598D01*
X644010Y999894D01*
X644090Y1000193D01*
X644162Y1000493D01*
X644227Y1000795D01*
X644284Y1001099D01*
X644334Y1001403D01*
X644377Y1001709D01*
X644412Y1002016D01*
X644439Y1002324D01*
X644459Y1002632D01*
X644472Y1002941D01*
X644477Y1003250D01*
X644474Y1003559D01*
X644464Y1003867D01*
X644447Y1004176D01*
X644422Y1004484D01*
X644389Y1004791D01*
X644349Y1005097D01*
X644301Y1005402D01*
X644246Y1005706D01*
X644184Y1006009D01*
X644114Y1006310D01*
X644037Y1006609D01*
X643952Y1006906D01*
X643861Y1007201D01*
X643762Y1007493D01*
X643656Y1007784D01*
X643543Y1008071D01*
X643423Y1008356D01*
X643296Y1008637D01*
X643162Y1008916D01*
X643022Y1009191D01*
X642875Y1009462D01*
X642721Y1009730D01*
X642561Y1009994D01*
X642394Y1010255D01*
X642221Y1010511D01*
X642042Y1010762D01*
X641857Y1011009D01*
X641666Y1011252D01*
X641469Y1011490D01*
X641266Y1011723D01*
X641057Y1011951D01*
X640843Y1012174D01*
X640624Y1012391D01*
X640400Y1012603D01*
X640170Y1012810D01*
X639935Y1013011D01*
X639696Y1013206D01*
X639452Y1013395D01*
X639203Y1013578D01*
X638950Y1013755D01*
X638692Y1013926D01*
X638431Y1014091D01*
X638166Y1014249D01*
X637896Y1014400D01*
X637624Y1014545D01*
X637347Y1014683D01*
X637068Y1014815D01*
X636785Y1014939D01*
X636499Y1015057D01*
X636211Y1015167D01*
X635920Y1015271D01*
X635627Y1015367D01*
X635331Y1015457D01*
X635033Y1015539D01*
X634733Y1015613D01*
X634432Y1015681D01*
X634129Y1015740D01*
X633824Y1015793D01*
X633519Y1015838D01*
X633212Y1015876D01*
X632905Y1015906D01*
X632597Y1015928D01*
X632288Y1015944D01*
X631979Y1015951D01*
X631671Y1015951D01*
X631362Y1015944D01*
X631053Y1015928D01*
X630745Y1015906D01*
X630438Y1015876D01*
X630131Y1015838D01*
X629826Y1015793D01*
X629521Y1015740D01*
X629218Y1015681D01*
X628917Y1015613D01*
X628617Y1015539D01*
X628319Y1015457D01*
X628023Y1015367D01*
X627730Y1015271D01*
X627439Y1015167D01*
X627151Y1015057D01*
X626865Y1014939D01*
X626582Y1014815D01*
X626303Y1014683D01*
X626026Y1014545D01*
X625754Y1014400D01*
X625484Y1014249D01*
X625219Y1014091D01*
X624958Y1013926D01*
X624700Y1013755D01*
X624447Y1013578D01*
X624198Y1013395D01*
X623954Y1013206D01*
X623715Y1013011D01*
X623480Y1012810D01*
X623250Y1012603D01*
X623026Y1012391D01*
X622807Y1012174D01*
X622593Y1011951D01*
X622384Y1011723D01*
X622181Y1011490D01*
X621984Y1011252D01*
X621793Y1011009D01*
X621608Y1010762D01*
X621429Y1010511D01*
X621256Y1010255D01*
X621089Y1009994D01*
X620929Y1009730D01*
X620775Y1009462D01*
X620628Y1009191D01*
X620488Y1008916D01*
X620354Y1008637D01*
X620227Y1008356D01*
X620107Y1008071D01*
X619994Y1007784D01*
X619888Y1007493D01*
X619789Y1007201D01*
X619698Y1006906D01*
X619613Y1006609D01*
X619536Y1006310D01*
X619466Y1006009D01*
X619404Y1005706D01*
X619349Y1005402D01*
X619301Y1005097D01*
X619261Y1004791D01*
X619228Y1004484D01*
X619203Y1004176D01*
X619186Y1003867D01*
X619176Y1003559D01*
X619173Y1003250D01*
X619178Y1002941D01*
X619191Y1002632D01*
X619211Y1002324D01*
X619238Y1002016D01*
X619273Y1001709D01*
X619316Y1001403D01*
X619366Y1001099D01*
X619423Y1000795D01*
X619488Y1000493D01*
X619560Y1000193D01*
X619640Y999894D01*
X619727Y999598D01*
X619821Y999304D01*
X619922Y999012D01*
X620030Y998722D01*
X620145Y998436D01*
X620268Y998152D01*
X620397Y997872D01*
X620533Y997594D01*
X620675Y997320D01*
X620825Y997050D01*
X642825Y997050D01*
X656075Y997050D02*
X607325Y997050D01*
X606425Y1003300D02*
X606433Y1003923D01*
X606456Y1004546D01*
X606494Y1005169D01*
X606547Y1005790D01*
X606616Y1006409D01*
X606700Y1007027D01*
X606799Y1007642D01*
X606913Y1008255D01*
X607042Y1008865D01*
X607186Y1009472D01*
X607345Y1010075D01*
X607519Y1010673D01*
X607707Y1011268D01*
X607910Y1011857D01*
X608127Y1012441D01*
X608358Y1013020D01*
X608604Y1013593D01*
X608864Y1014160D01*
X609137Y1014720D01*
X609424Y1015273D01*
X609725Y1015820D01*
X610039Y1016358D01*
X610366Y1016889D01*
X610706Y1017411D01*
X611058Y1017926D01*
X611424Y1018431D01*
X611801Y1018927D01*
X612191Y1019414D01*
X612592Y1019891D01*
X613005Y1020358D01*
X613429Y1020814D01*
X613864Y1021261D01*
X614311Y1021696D01*
X614767Y1022120D01*
X615234Y1022533D01*
X615711Y1022934D01*
X616198Y1023324D01*
X616694Y1023701D01*
X617199Y1024067D01*
X617714Y1024419D01*
X618236Y1024759D01*
X618767Y1025086D01*
X619305Y1025400D01*
X619852Y1025701D01*
X620405Y1025988D01*
X620965Y1026261D01*
X621532Y1026521D01*
X622105Y1026767D01*
X622684Y1026998D01*
X623268Y1027215D01*
X623857Y1027418D01*
X624452Y1027606D01*
X625050Y1027780D01*
X625653Y1027939D01*
X626260Y1028083D01*
X626870Y1028212D01*
X627483Y1028326D01*
X628098Y1028425D01*
X628716Y1028509D01*
X629335Y1028578D01*
X629956Y1028631D01*
X630579Y1028669D01*
X631202Y1028692D01*
X631825Y1028700D01*
X632448Y1028692D01*
X633071Y1028669D01*
X633694Y1028631D01*
X634315Y1028578D01*
X634934Y1028509D01*
X635552Y1028425D01*
X636167Y1028326D01*
X636780Y1028212D01*
X637390Y1028083D01*
X637997Y1027939D01*
X638600Y1027780D01*
X639198Y1027606D01*
X639793Y1027418D01*
X640382Y1027215D01*
X640966Y1026998D01*
X641545Y1026767D01*
X642118Y1026521D01*
X642685Y1026261D01*
X643245Y1025988D01*
X643798Y1025701D01*
X644345Y1025400D01*
X644883Y1025086D01*
X645414Y1024759D01*
X645936Y1024419D01*
X646451Y1024067D01*
X646956Y1023701D01*
X647452Y1023324D01*
X647939Y1022934D01*
X648416Y1022533D01*
X648883Y1022120D01*
X649339Y1021696D01*
X649786Y1021261D01*
X650221Y1020814D01*
X650645Y1020358D01*
X651058Y1019891D01*
X651459Y1019414D01*
X651849Y1018927D01*
X652226Y1018431D01*
X652592Y1017926D01*
X652944Y1017411D01*
X653284Y1016889D01*
X653611Y1016358D01*
X653925Y1015820D01*
X654226Y1015273D01*
X654513Y1014720D01*
X654786Y1014160D01*
X655046Y1013593D01*
X655292Y1013020D01*
X655523Y1012441D01*
X655740Y1011857D01*
X655943Y1011268D01*
X656131Y1010673D01*
X656305Y1010075D01*
X656464Y1009472D01*
X656608Y1008865D01*
X656737Y1008255D01*
X656851Y1007642D01*
X656950Y1007027D01*
X657034Y1006409D01*
X657103Y1005790D01*
X657156Y1005169D01*
X657194Y1004546D01*
X657217Y1003923D01*
X657225Y1003300D01*
X657217Y1002677D01*
X657194Y1002054D01*
X657156Y1001431D01*
X657103Y1000810D01*
X657034Y1000191D01*
X656950Y999573D01*
X656851Y998958D01*
X656737Y998345D01*
X656608Y997735D01*
X656464Y997128D01*
X656305Y996525D01*
X656131Y995927D01*
X655943Y995332D01*
X655740Y994743D01*
X655523Y994159D01*
X655292Y993580D01*
X655046Y993007D01*
X654786Y992440D01*
X654513Y991880D01*
X654226Y991327D01*
X653925Y990780D01*
X653611Y990242D01*
X653284Y989711D01*
X652944Y989189D01*
X652592Y988674D01*
X652226Y988169D01*
X651849Y987673D01*
X651459Y987186D01*
X651058Y986709D01*
X650645Y986242D01*
X650221Y985786D01*
X649786Y985339D01*
X649339Y984904D01*
X648883Y984480D01*
X648416Y984067D01*
X647939Y983666D01*
X647452Y983276D01*
X646956Y982899D01*
X646451Y982533D01*
X645936Y982181D01*
X645414Y981841D01*
X644883Y981514D01*
X644345Y981200D01*
X643798Y980899D01*
X643245Y980612D01*
X642685Y980339D01*
X642118Y980079D01*
X641545Y979833D01*
X640966Y979602D01*
X640382Y979385D01*
X639793Y979182D01*
X639198Y978994D01*
X638600Y978820D01*
X637997Y978661D01*
X637390Y978517D01*
X636780Y978388D01*
X636167Y978274D01*
X635552Y978175D01*
X634934Y978091D01*
X634315Y978022D01*
X633694Y977969D01*
X633071Y977931D01*
X632448Y977908D01*
X631825Y977900D01*
X631202Y977908D01*
X630579Y977931D01*
X629956Y977969D01*
X629335Y978022D01*
X628716Y978091D01*
X628098Y978175D01*
X627483Y978274D01*
X626870Y978388D01*
X626260Y978517D01*
X625653Y978661D01*
X625050Y978820D01*
X624452Y978994D01*
X623857Y979182D01*
X623268Y979385D01*
X622684Y979602D01*
X622105Y979833D01*
X621532Y980079D01*
X620965Y980339D01*
X620405Y980612D01*
X619852Y980899D01*
X619305Y981200D01*
X618767Y981514D01*
X618236Y981841D01*
X617714Y982181D01*
X617199Y982533D01*
X616694Y982899D01*
X616198Y983276D01*
X615711Y983666D01*
X615234Y984067D01*
X614767Y984480D01*
X614311Y984904D01*
X613864Y985339D01*
X613429Y985786D01*
X613005Y986242D01*
X612592Y986709D01*
X612191Y987186D01*
X611801Y987673D01*
X611424Y988169D01*
X611058Y988674D01*
X610706Y989189D01*
X610366Y989711D01*
X610039Y990242D01*
X609725Y990780D01*
X609424Y991327D01*
X609137Y991880D01*
X608864Y992440D01*
X608604Y993007D01*
X608358Y993580D01*
X608127Y994159D01*
X607910Y994743D01*
X607707Y995332D01*
X607519Y995927D01*
X607345Y996525D01*
X607186Y997128D01*
X607042Y997735D01*
X606913Y998345D01*
X606799Y998958D01*
X606700Y999573D01*
X606616Y1000191D01*
X606547Y1000810D01*
X606494Y1001431D01*
X606456Y1002054D01*
X606433Y1002677D01*
X606425Y1003300D01*
D11*
X669417Y1041908D02*
X669417Y1053602D01*
X663570Y1053602D01*
X661621Y1051653D01*
X661621Y1047755D01*
X663570Y1045806D01*
X669417Y1045806D01*
X665519Y1045806D02*
X661621Y1041908D01*
X657723Y1051653D02*
X655774Y1053602D01*
X651876Y1053602D01*
X649927Y1051653D01*
X649927Y1049704D01*
X651876Y1047755D01*
X649927Y1045806D01*
X649927Y1043857D01*
X651876Y1041908D01*
X655774Y1041908D01*
X657723Y1043857D01*
X657723Y1045806D01*
X655774Y1047755D01*
X657723Y1049704D01*
X657723Y1051653D01*
X655774Y1047755D02*
X651876Y1047755D01*
X640182Y1041908D02*
X640182Y1053602D01*
X646029Y1047755D01*
X638233Y1047755D01*
D10*
X560475Y1057900D02*
X474575Y1057900D01*
X474575Y960000D01*
X560475Y960000D01*
X560475Y1057900D01*
D12*
X528525Y997050D02*
X528675Y997320D01*
X528817Y997594D01*
X528953Y997872D01*
X529082Y998152D01*
X529205Y998436D01*
X529320Y998722D01*
X529428Y999012D01*
X529529Y999304D01*
X529623Y999598D01*
X529710Y999894D01*
X529790Y1000193D01*
X529862Y1000493D01*
X529927Y1000795D01*
X529984Y1001099D01*
X530034Y1001403D01*
X530077Y1001709D01*
X530112Y1002016D01*
X530139Y1002324D01*
X530159Y1002632D01*
X530172Y1002941D01*
X530177Y1003250D01*
X530174Y1003559D01*
X530164Y1003867D01*
X530147Y1004176D01*
X530122Y1004484D01*
X530089Y1004791D01*
X530049Y1005097D01*
X530001Y1005402D01*
X529946Y1005706D01*
X529884Y1006009D01*
X529814Y1006310D01*
X529737Y1006609D01*
X529652Y1006906D01*
X529561Y1007201D01*
X529462Y1007493D01*
X529356Y1007784D01*
X529243Y1008071D01*
X529123Y1008356D01*
X528996Y1008637D01*
X528862Y1008916D01*
X528722Y1009191D01*
X528575Y1009462D01*
X528421Y1009730D01*
X528261Y1009994D01*
X528094Y1010255D01*
X527921Y1010511D01*
X527742Y1010762D01*
X527557Y1011009D01*
X527366Y1011252D01*
X527169Y1011490D01*
X526966Y1011723D01*
X526757Y1011951D01*
X526543Y1012174D01*
X526324Y1012391D01*
X526100Y1012603D01*
X525870Y1012810D01*
X525635Y1013011D01*
X525396Y1013206D01*
X525152Y1013395D01*
X524903Y1013578D01*
X524650Y1013755D01*
X524392Y1013926D01*
X524131Y1014091D01*
X523866Y1014249D01*
X523596Y1014400D01*
X523324Y1014545D01*
X523047Y1014683D01*
X522768Y1014815D01*
X522485Y1014939D01*
X522199Y1015057D01*
X521911Y1015167D01*
X521620Y1015271D01*
X521327Y1015367D01*
X521031Y1015457D01*
X520733Y1015539D01*
X520433Y1015613D01*
X520132Y1015681D01*
X519829Y1015740D01*
X519524Y1015793D01*
X519219Y1015838D01*
X518912Y1015876D01*
X518605Y1015906D01*
X518297Y1015928D01*
X517988Y1015944D01*
X517679Y1015951D01*
X517371Y1015951D01*
X517062Y1015944D01*
X516753Y1015928D01*
X516445Y1015906D01*
X516138Y1015876D01*
X515831Y1015838D01*
X515526Y1015793D01*
X515221Y1015740D01*
X514918Y1015681D01*
X514617Y1015613D01*
X514317Y1015539D01*
X514019Y1015457D01*
X513723Y1015367D01*
X513430Y1015271D01*
X513139Y1015167D01*
X512851Y1015057D01*
X512565Y1014939D01*
X512282Y1014815D01*
X512003Y1014683D01*
X511726Y1014545D01*
X511454Y1014400D01*
X511184Y1014249D01*
X510919Y1014091D01*
X510658Y1013926D01*
X510400Y1013755D01*
X510147Y1013578D01*
X509898Y1013395D01*
X509654Y1013206D01*
X509415Y1013011D01*
X509180Y1012810D01*
X508950Y1012603D01*
X508726Y1012391D01*
X508507Y1012174D01*
X508293Y1011951D01*
X508084Y1011723D01*
X507881Y1011490D01*
X507684Y1011252D01*
X507493Y1011009D01*
X507308Y1010762D01*
X507129Y1010511D01*
X506956Y1010255D01*
X506789Y1009994D01*
X506629Y1009730D01*
X506475Y1009462D01*
X506328Y1009191D01*
X506188Y1008916D01*
X506054Y1008637D01*
X505927Y1008356D01*
X505807Y1008071D01*
X505694Y1007784D01*
X505588Y1007493D01*
X505489Y1007201D01*
X505398Y1006906D01*
X505313Y1006609D01*
X505236Y1006310D01*
X505166Y1006009D01*
X505104Y1005706D01*
X505049Y1005402D01*
X505001Y1005097D01*
X504961Y1004791D01*
X504928Y1004484D01*
X504903Y1004176D01*
X504886Y1003867D01*
X504876Y1003559D01*
X504873Y1003250D01*
X504878Y1002941D01*
X504891Y1002632D01*
X504911Y1002324D01*
X504938Y1002016D01*
X504973Y1001709D01*
X505016Y1001403D01*
X505066Y1001099D01*
X505123Y1000795D01*
X505188Y1000493D01*
X505260Y1000193D01*
X505340Y999894D01*
X505427Y999598D01*
X505521Y999304D01*
X505622Y999012D01*
X505730Y998722D01*
X505845Y998436D01*
X505968Y998152D01*
X506097Y997872D01*
X506233Y997594D01*
X506375Y997320D01*
X506525Y997050D01*
X528525Y997050D01*
X541775Y997050D02*
X493025Y997050D01*
X492125Y1003300D02*
X492133Y1003923D01*
X492156Y1004546D01*
X492194Y1005169D01*
X492247Y1005790D01*
X492316Y1006409D01*
X492400Y1007027D01*
X492499Y1007642D01*
X492613Y1008255D01*
X492742Y1008865D01*
X492886Y1009472D01*
X493045Y1010075D01*
X493219Y1010673D01*
X493407Y1011268D01*
X493610Y1011857D01*
X493827Y1012441D01*
X494058Y1013020D01*
X494304Y1013593D01*
X494564Y1014160D01*
X494837Y1014720D01*
X495124Y1015273D01*
X495425Y1015820D01*
X495739Y1016358D01*
X496066Y1016889D01*
X496406Y1017411D01*
X496758Y1017926D01*
X497124Y1018431D01*
X497501Y1018927D01*
X497891Y1019414D01*
X498292Y1019891D01*
X498705Y1020358D01*
X499129Y1020814D01*
X499564Y1021261D01*
X500011Y1021696D01*
X500467Y1022120D01*
X500934Y1022533D01*
X501411Y1022934D01*
X501898Y1023324D01*
X502394Y1023701D01*
X502899Y1024067D01*
X503414Y1024419D01*
X503936Y1024759D01*
X504467Y1025086D01*
X505005Y1025400D01*
X505552Y1025701D01*
X506105Y1025988D01*
X506665Y1026261D01*
X507232Y1026521D01*
X507805Y1026767D01*
X508384Y1026998D01*
X508968Y1027215D01*
X509557Y1027418D01*
X510152Y1027606D01*
X510750Y1027780D01*
X511353Y1027939D01*
X511960Y1028083D01*
X512570Y1028212D01*
X513183Y1028326D01*
X513798Y1028425D01*
X514416Y1028509D01*
X515035Y1028578D01*
X515656Y1028631D01*
X516279Y1028669D01*
X516902Y1028692D01*
X517525Y1028700D01*
X518148Y1028692D01*
X518771Y1028669D01*
X519394Y1028631D01*
X520015Y1028578D01*
X520634Y1028509D01*
X521252Y1028425D01*
X521867Y1028326D01*
X522480Y1028212D01*
X523090Y1028083D01*
X523697Y1027939D01*
X524300Y1027780D01*
X524898Y1027606D01*
X525493Y1027418D01*
X526082Y1027215D01*
X526666Y1026998D01*
X527245Y1026767D01*
X527818Y1026521D01*
X528385Y1026261D01*
X528945Y1025988D01*
X529498Y1025701D01*
X530045Y1025400D01*
X530583Y1025086D01*
X531114Y1024759D01*
X531636Y1024419D01*
X532151Y1024067D01*
X532656Y1023701D01*
X533152Y1023324D01*
X533639Y1022934D01*
X534116Y1022533D01*
X534583Y1022120D01*
X535039Y1021696D01*
X535486Y1021261D01*
X535921Y1020814D01*
X536345Y1020358D01*
X536758Y1019891D01*
X537159Y1019414D01*
X537549Y1018927D01*
X537926Y1018431D01*
X538292Y1017926D01*
X538644Y1017411D01*
X538984Y1016889D01*
X539311Y1016358D01*
X539625Y1015820D01*
X539926Y1015273D01*
X540213Y1014720D01*
X540486Y1014160D01*
X540746Y1013593D01*
X540992Y1013020D01*
X541223Y1012441D01*
X541440Y1011857D01*
X541643Y1011268D01*
X541831Y1010673D01*
X542005Y1010075D01*
X542164Y1009472D01*
X542308Y1008865D01*
X542437Y1008255D01*
X542551Y1007642D01*
X542650Y1007027D01*
X542734Y1006409D01*
X542803Y1005790D01*
X542856Y1005169D01*
X542894Y1004546D01*
X542917Y1003923D01*
X542925Y1003300D01*
X542917Y1002677D01*
X542894Y1002054D01*
X542856Y1001431D01*
X542803Y1000810D01*
X542734Y1000191D01*
X542650Y999573D01*
X542551Y998958D01*
X542437Y998345D01*
X542308Y997735D01*
X542164Y997128D01*
X542005Y996525D01*
X541831Y995927D01*
X541643Y995332D01*
X541440Y994743D01*
X541223Y994159D01*
X540992Y993580D01*
X540746Y993007D01*
X540486Y992440D01*
X540213Y991880D01*
X539926Y991327D01*
X539625Y990780D01*
X539311Y990242D01*
X538984Y989711D01*
X538644Y989189D01*
X538292Y988674D01*
X537926Y988169D01*
X537549Y987673D01*
X537159Y987186D01*
X536758Y986709D01*
X536345Y986242D01*
X535921Y985786D01*
X535486Y985339D01*
X535039Y984904D01*
X534583Y984480D01*
X534116Y984067D01*
X533639Y983666D01*
X533152Y983276D01*
X532656Y982899D01*
X532151Y982533D01*
X531636Y982181D01*
X531114Y981841D01*
X530583Y981514D01*
X530045Y981200D01*
X529498Y980899D01*
X528945Y980612D01*
X528385Y980339D01*
X527818Y980079D01*
X527245Y979833D01*
X526666Y979602D01*
X526082Y979385D01*
X525493Y979182D01*
X524898Y978994D01*
X524300Y978820D01*
X523697Y978661D01*
X523090Y978517D01*
X522480Y978388D01*
X521867Y978274D01*
X521252Y978175D01*
X520634Y978091D01*
X520015Y978022D01*
X519394Y977969D01*
X518771Y977931D01*
X518148Y977908D01*
X517525Y977900D01*
X516902Y977908D01*
X516279Y977931D01*
X515656Y977969D01*
X515035Y978022D01*
X514416Y978091D01*
X513798Y978175D01*
X513183Y978274D01*
X512570Y978388D01*
X511960Y978517D01*
X511353Y978661D01*
X510750Y978820D01*
X510152Y978994D01*
X509557Y979182D01*
X508968Y979385D01*
X508384Y979602D01*
X507805Y979833D01*
X507232Y980079D01*
X506665Y980339D01*
X506105Y980612D01*
X505552Y980899D01*
X505005Y981200D01*
X504467Y981514D01*
X503936Y981841D01*
X503414Y982181D01*
X502899Y982533D01*
X502394Y982899D01*
X501898Y983276D01*
X501411Y983666D01*
X500934Y984067D01*
X500467Y984480D01*
X500011Y984904D01*
X499564Y985339D01*
X499129Y985786D01*
X498705Y986242D01*
X498292Y986709D01*
X497891Y987186D01*
X497501Y987673D01*
X497124Y988169D01*
X496758Y988674D01*
X496406Y989189D01*
X496066Y989711D01*
X495739Y990242D01*
X495425Y990780D01*
X495124Y991327D01*
X494837Y991880D01*
X494564Y992440D01*
X494304Y993007D01*
X494058Y993580D01*
X493827Y994159D01*
X493610Y994743D01*
X493407Y995332D01*
X493219Y995927D01*
X493045Y996525D01*
X492886Y997128D01*
X492742Y997735D01*
X492613Y998345D01*
X492499Y998958D01*
X492400Y999573D01*
X492316Y1000191D01*
X492247Y1000810D01*
X492194Y1001431D01*
X492156Y1002054D01*
X492133Y1002677D01*
X492125Y1003300D01*
D11*
X555117Y1041908D02*
X555117Y1053602D01*
X549270Y1053602D01*
X547321Y1051653D01*
X547321Y1047755D01*
X549270Y1045806D01*
X555117Y1045806D01*
X551219Y1045806D02*
X547321Y1041908D01*
X543423Y1051653D02*
X541474Y1053602D01*
X537576Y1053602D01*
X535627Y1051653D01*
X535627Y1049704D01*
X537576Y1047755D01*
X535627Y1045806D01*
X535627Y1043857D01*
X537576Y1041908D01*
X541474Y1041908D01*
X543423Y1043857D01*
X543423Y1045806D01*
X541474Y1047755D01*
X543423Y1049704D01*
X543423Y1051653D01*
X541474Y1047755D02*
X537576Y1047755D01*
X531729Y1053602D02*
X523933Y1053602D01*
X531729Y1053602D02*
X531729Y1047755D01*
X527831Y1049704D01*
X525882Y1049704D01*
X523933Y1047755D01*
X523933Y1043857D01*
X525882Y1041908D01*
X529780Y1041908D01*
X531729Y1043857D01*
D10*
X446175Y1057900D02*
X360275Y1057900D01*
X360275Y960000D01*
X446175Y960000D01*
X446175Y1057900D01*
D12*
X414225Y997050D02*
X414375Y997320D01*
X414517Y997594D01*
X414653Y997872D01*
X414782Y998152D01*
X414905Y998436D01*
X415020Y998722D01*
X415128Y999012D01*
X415229Y999304D01*
X415323Y999598D01*
X415410Y999894D01*
X415490Y1000193D01*
X415562Y1000493D01*
X415627Y1000795D01*
X415684Y1001099D01*
X415734Y1001403D01*
X415777Y1001709D01*
X415812Y1002016D01*
X415839Y1002324D01*
X415859Y1002632D01*
X415872Y1002941D01*
X415877Y1003250D01*
X415874Y1003559D01*
X415864Y1003867D01*
X415847Y1004176D01*
X415822Y1004484D01*
X415789Y1004791D01*
X415749Y1005097D01*
X415701Y1005402D01*
X415646Y1005706D01*
X415584Y1006009D01*
X415514Y1006310D01*
X415437Y1006609D01*
X415352Y1006906D01*
X415261Y1007201D01*
X415162Y1007493D01*
X415056Y1007784D01*
X414943Y1008071D01*
X414823Y1008356D01*
X414696Y1008637D01*
X414562Y1008916D01*
X414422Y1009191D01*
X414275Y1009462D01*
X414121Y1009730D01*
X413961Y1009994D01*
X413794Y1010255D01*
X413621Y1010511D01*
X413442Y1010762D01*
X413257Y1011009D01*
X413066Y1011252D01*
X412869Y1011490D01*
X412666Y1011723D01*
X412457Y1011951D01*
X412243Y1012174D01*
X412024Y1012391D01*
X411800Y1012603D01*
X411570Y1012810D01*
X411335Y1013011D01*
X411096Y1013206D01*
X410852Y1013395D01*
X410603Y1013578D01*
X410350Y1013755D01*
X410092Y1013926D01*
X409831Y1014091D01*
X409566Y1014249D01*
X409296Y1014400D01*
X409024Y1014545D01*
X408747Y1014683D01*
X408468Y1014815D01*
X408185Y1014939D01*
X407899Y1015057D01*
X407611Y1015167D01*
X407320Y1015271D01*
X407027Y1015367D01*
X406731Y1015457D01*
X406433Y1015539D01*
X406133Y1015613D01*
X405832Y1015681D01*
X405529Y1015740D01*
X405224Y1015793D01*
X404919Y1015838D01*
X404612Y1015876D01*
X404305Y1015906D01*
X403997Y1015928D01*
X403688Y1015944D01*
X403379Y1015951D01*
X403071Y1015951D01*
X402762Y1015944D01*
X402453Y1015928D01*
X402145Y1015906D01*
X401838Y1015876D01*
X401531Y1015838D01*
X401226Y1015793D01*
X400921Y1015740D01*
X400618Y1015681D01*
X400317Y1015613D01*
X400017Y1015539D01*
X399719Y1015457D01*
X399423Y1015367D01*
X399130Y1015271D01*
X398839Y1015167D01*
X398551Y1015057D01*
X398265Y1014939D01*
X397982Y1014815D01*
X397703Y1014683D01*
X397426Y1014545D01*
X397154Y1014400D01*
X396884Y1014249D01*
X396619Y1014091D01*
X396358Y1013926D01*
X396100Y1013755D01*
X395847Y1013578D01*
X395598Y1013395D01*
X395354Y1013206D01*
X395115Y1013011D01*
X394880Y1012810D01*
X394650Y1012603D01*
X394426Y1012391D01*
X394207Y1012174D01*
X393993Y1011951D01*
X393784Y1011723D01*
X393581Y1011490D01*
X393384Y1011252D01*
X393193Y1011009D01*
X393008Y1010762D01*
X392829Y1010511D01*
X392656Y1010255D01*
X392489Y1009994D01*
X392329Y1009730D01*
X392175Y1009462D01*
X392028Y1009191D01*
X391888Y1008916D01*
X391754Y1008637D01*
X391627Y1008356D01*
X391507Y1008071D01*
X391394Y1007784D01*
X391288Y1007493D01*
X391189Y1007201D01*
X391098Y1006906D01*
X391013Y1006609D01*
X390936Y1006310D01*
X390866Y1006009D01*
X390804Y1005706D01*
X390749Y1005402D01*
X390701Y1005097D01*
X390661Y1004791D01*
X390628Y1004484D01*
X390603Y1004176D01*
X390586Y1003867D01*
X390576Y1003559D01*
X390573Y1003250D01*
X390578Y1002941D01*
X390591Y1002632D01*
X390611Y1002324D01*
X390638Y1002016D01*
X390673Y1001709D01*
X390716Y1001403D01*
X390766Y1001099D01*
X390823Y1000795D01*
X390888Y1000493D01*
X390960Y1000193D01*
X391040Y999894D01*
X391127Y999598D01*
X391221Y999304D01*
X391322Y999012D01*
X391430Y998722D01*
X391545Y998436D01*
X391668Y998152D01*
X391797Y997872D01*
X391933Y997594D01*
X392075Y997320D01*
X392225Y997050D01*
X414225Y997050D01*
X427475Y997050D02*
X378725Y997050D01*
X377825Y1003300D02*
X377833Y1003923D01*
X377856Y1004546D01*
X377894Y1005169D01*
X377947Y1005790D01*
X378016Y1006409D01*
X378100Y1007027D01*
X378199Y1007642D01*
X378313Y1008255D01*
X378442Y1008865D01*
X378586Y1009472D01*
X378745Y1010075D01*
X378919Y1010673D01*
X379107Y1011268D01*
X379310Y1011857D01*
X379527Y1012441D01*
X379758Y1013020D01*
X380004Y1013593D01*
X380264Y1014160D01*
X380537Y1014720D01*
X380824Y1015273D01*
X381125Y1015820D01*
X381439Y1016358D01*
X381766Y1016889D01*
X382106Y1017411D01*
X382458Y1017926D01*
X382824Y1018431D01*
X383201Y1018927D01*
X383591Y1019414D01*
X383992Y1019891D01*
X384405Y1020358D01*
X384829Y1020814D01*
X385264Y1021261D01*
X385711Y1021696D01*
X386167Y1022120D01*
X386634Y1022533D01*
X387111Y1022934D01*
X387598Y1023324D01*
X388094Y1023701D01*
X388599Y1024067D01*
X389114Y1024419D01*
X389636Y1024759D01*
X390167Y1025086D01*
X390705Y1025400D01*
X391252Y1025701D01*
X391805Y1025988D01*
X392365Y1026261D01*
X392932Y1026521D01*
X393505Y1026767D01*
X394084Y1026998D01*
X394668Y1027215D01*
X395257Y1027418D01*
X395852Y1027606D01*
X396450Y1027780D01*
X397053Y1027939D01*
X397660Y1028083D01*
X398270Y1028212D01*
X398883Y1028326D01*
X399498Y1028425D01*
X400116Y1028509D01*
X400735Y1028578D01*
X401356Y1028631D01*
X401979Y1028669D01*
X402602Y1028692D01*
X403225Y1028700D01*
X403848Y1028692D01*
X404471Y1028669D01*
X405094Y1028631D01*
X405715Y1028578D01*
X406334Y1028509D01*
X406952Y1028425D01*
X407567Y1028326D01*
X408180Y1028212D01*
X408790Y1028083D01*
X409397Y1027939D01*
X410000Y1027780D01*
X410598Y1027606D01*
X411193Y1027418D01*
X411782Y1027215D01*
X412366Y1026998D01*
X412945Y1026767D01*
X413518Y1026521D01*
X414085Y1026261D01*
X414645Y1025988D01*
X415198Y1025701D01*
X415745Y1025400D01*
X416283Y1025086D01*
X416814Y1024759D01*
X417336Y1024419D01*
X417851Y1024067D01*
X418356Y1023701D01*
X418852Y1023324D01*
X419339Y1022934D01*
X419816Y1022533D01*
X420283Y1022120D01*
X420739Y1021696D01*
X421186Y1021261D01*
X421621Y1020814D01*
X422045Y1020358D01*
X422458Y1019891D01*
X422859Y1019414D01*
X423249Y1018927D01*
X423626Y1018431D01*
X423992Y1017926D01*
X424344Y1017411D01*
X424684Y1016889D01*
X425011Y1016358D01*
X425325Y1015820D01*
X425626Y1015273D01*
X425913Y1014720D01*
X426186Y1014160D01*
X426446Y1013593D01*
X426692Y1013020D01*
X426923Y1012441D01*
X427140Y1011857D01*
X427343Y1011268D01*
X427531Y1010673D01*
X427705Y1010075D01*
X427864Y1009472D01*
X428008Y1008865D01*
X428137Y1008255D01*
X428251Y1007642D01*
X428350Y1007027D01*
X428434Y1006409D01*
X428503Y1005790D01*
X428556Y1005169D01*
X428594Y1004546D01*
X428617Y1003923D01*
X428625Y1003300D01*
X428617Y1002677D01*
X428594Y1002054D01*
X428556Y1001431D01*
X428503Y1000810D01*
X428434Y1000191D01*
X428350Y999573D01*
X428251Y998958D01*
X428137Y998345D01*
X428008Y997735D01*
X427864Y997128D01*
X427705Y996525D01*
X427531Y995927D01*
X427343Y995332D01*
X427140Y994743D01*
X426923Y994159D01*
X426692Y993580D01*
X426446Y993007D01*
X426186Y992440D01*
X425913Y991880D01*
X425626Y991327D01*
X425325Y990780D01*
X425011Y990242D01*
X424684Y989711D01*
X424344Y989189D01*
X423992Y988674D01*
X423626Y988169D01*
X423249Y987673D01*
X422859Y987186D01*
X422458Y986709D01*
X422045Y986242D01*
X421621Y985786D01*
X421186Y985339D01*
X420739Y984904D01*
X420283Y984480D01*
X419816Y984067D01*
X419339Y983666D01*
X418852Y983276D01*
X418356Y982899D01*
X417851Y982533D01*
X417336Y982181D01*
X416814Y981841D01*
X416283Y981514D01*
X415745Y981200D01*
X415198Y980899D01*
X414645Y980612D01*
X414085Y980339D01*
X413518Y980079D01*
X412945Y979833D01*
X412366Y979602D01*
X411782Y979385D01*
X411193Y979182D01*
X410598Y978994D01*
X410000Y978820D01*
X409397Y978661D01*
X408790Y978517D01*
X408180Y978388D01*
X407567Y978274D01*
X406952Y978175D01*
X406334Y978091D01*
X405715Y978022D01*
X405094Y977969D01*
X404471Y977931D01*
X403848Y977908D01*
X403225Y977900D01*
X402602Y977908D01*
X401979Y977931D01*
X401356Y977969D01*
X400735Y978022D01*
X400116Y978091D01*
X399498Y978175D01*
X398883Y978274D01*
X398270Y978388D01*
X397660Y978517D01*
X397053Y978661D01*
X396450Y978820D01*
X395852Y978994D01*
X395257Y979182D01*
X394668Y979385D01*
X394084Y979602D01*
X393505Y979833D01*
X392932Y980079D01*
X392365Y980339D01*
X391805Y980612D01*
X391252Y980899D01*
X390705Y981200D01*
X390167Y981514D01*
X389636Y981841D01*
X389114Y982181D01*
X388599Y982533D01*
X388094Y982899D01*
X387598Y983276D01*
X387111Y983666D01*
X386634Y984067D01*
X386167Y984480D01*
X385711Y984904D01*
X385264Y985339D01*
X384829Y985786D01*
X384405Y986242D01*
X383992Y986709D01*
X383591Y987186D01*
X383201Y987673D01*
X382824Y988169D01*
X382458Y988674D01*
X382106Y989189D01*
X381766Y989711D01*
X381439Y990242D01*
X381125Y990780D01*
X380824Y991327D01*
X380537Y991880D01*
X380264Y992440D01*
X380004Y993007D01*
X379758Y993580D01*
X379527Y994159D01*
X379310Y994743D01*
X379107Y995332D01*
X378919Y995927D01*
X378745Y996525D01*
X378586Y997128D01*
X378442Y997735D01*
X378313Y998345D01*
X378199Y998958D01*
X378100Y999573D01*
X378016Y1000191D01*
X377947Y1000810D01*
X377894Y1001431D01*
X377856Y1002054D01*
X377833Y1002677D01*
X377825Y1003300D01*
D11*
X440817Y1041908D02*
X440817Y1053602D01*
X434970Y1053602D01*
X433021Y1051653D01*
X433021Y1047755D01*
X434970Y1045806D01*
X440817Y1045806D01*
X436919Y1045806D02*
X433021Y1041908D01*
X429123Y1051653D02*
X427174Y1053602D01*
X423276Y1053602D01*
X421327Y1051653D01*
X421327Y1049704D01*
X423276Y1047755D01*
X421327Y1045806D01*
X421327Y1043857D01*
X423276Y1041908D01*
X427174Y1041908D01*
X429123Y1043857D01*
X429123Y1045806D01*
X427174Y1047755D01*
X429123Y1049704D01*
X429123Y1051653D01*
X427174Y1047755D02*
X423276Y1047755D01*
X413531Y1051653D02*
X409633Y1053602D01*
X413531Y1051653D02*
X417429Y1047755D01*
X417429Y1043857D01*
X415480Y1041908D01*
X411582Y1041908D01*
X409633Y1043857D01*
X409633Y1045806D01*
X411582Y1047755D01*
X417429Y1047755D01*
D10*
X331875Y1057900D02*
X245975Y1057900D01*
X245975Y960000D01*
X331875Y960000D01*
X331875Y1057900D01*
D12*
X299925Y997050D02*
X300075Y997320D01*
X300217Y997594D01*
X300353Y997872D01*
X300482Y998152D01*
X300605Y998436D01*
X300720Y998722D01*
X300828Y999012D01*
X300929Y999304D01*
X301023Y999598D01*
X301110Y999894D01*
X301190Y1000193D01*
X301262Y1000493D01*
X301327Y1000795D01*
X301384Y1001099D01*
X301434Y1001403D01*
X301477Y1001709D01*
X301512Y1002016D01*
X301539Y1002324D01*
X301559Y1002632D01*
X301572Y1002941D01*
X301577Y1003250D01*
X301574Y1003559D01*
X301564Y1003867D01*
X301547Y1004176D01*
X301522Y1004484D01*
X301489Y1004791D01*
X301449Y1005097D01*
X301401Y1005402D01*
X301346Y1005706D01*
X301284Y1006009D01*
X301214Y1006310D01*
X301137Y1006609D01*
X301052Y1006906D01*
X300961Y1007201D01*
X300862Y1007493D01*
X300756Y1007784D01*
X300643Y1008071D01*
X300523Y1008356D01*
X300396Y1008637D01*
X300262Y1008916D01*
X300122Y1009191D01*
X299975Y1009462D01*
X299821Y1009730D01*
X299661Y1009994D01*
X299494Y1010255D01*
X299321Y1010511D01*
X299142Y1010762D01*
X298957Y1011009D01*
X298766Y1011252D01*
X298569Y1011490D01*
X298366Y1011723D01*
X298157Y1011951D01*
X297943Y1012174D01*
X297724Y1012391D01*
X297500Y1012603D01*
X297270Y1012810D01*
X297035Y1013011D01*
X296796Y1013206D01*
X296552Y1013395D01*
X296303Y1013578D01*
X296050Y1013755D01*
X295792Y1013926D01*
X295531Y1014091D01*
X295266Y1014249D01*
X294996Y1014400D01*
X294724Y1014545D01*
X294447Y1014683D01*
X294168Y1014815D01*
X293885Y1014939D01*
X293599Y1015057D01*
X293311Y1015167D01*
X293020Y1015271D01*
X292727Y1015367D01*
X292431Y1015457D01*
X292133Y1015539D01*
X291833Y1015613D01*
X291532Y1015681D01*
X291229Y1015740D01*
X290924Y1015793D01*
X290619Y1015838D01*
X290312Y1015876D01*
X290005Y1015906D01*
X289697Y1015928D01*
X289388Y1015944D01*
X289079Y1015951D01*
X288771Y1015951D01*
X288462Y1015944D01*
X288153Y1015928D01*
X287845Y1015906D01*
X287538Y1015876D01*
X287231Y1015838D01*
X286926Y1015793D01*
X286621Y1015740D01*
X286318Y1015681D01*
X286017Y1015613D01*
X285717Y1015539D01*
X285419Y1015457D01*
X285123Y1015367D01*
X284830Y1015271D01*
X284539Y1015167D01*
X284251Y1015057D01*
X283965Y1014939D01*
X283682Y1014815D01*
X283403Y1014683D01*
X283126Y1014545D01*
X282854Y1014400D01*
X282584Y1014249D01*
X282319Y1014091D01*
X282058Y1013926D01*
X281800Y1013755D01*
X281547Y1013578D01*
X281298Y1013395D01*
X281054Y1013206D01*
X280815Y1013011D01*
X280580Y1012810D01*
X280350Y1012603D01*
X280126Y1012391D01*
X279907Y1012174D01*
X279693Y1011951D01*
X279484Y1011723D01*
X279281Y1011490D01*
X279084Y1011252D01*
X278893Y1011009D01*
X278708Y1010762D01*
X278529Y1010511D01*
X278356Y1010255D01*
X278189Y1009994D01*
X278029Y1009730D01*
X277875Y1009462D01*
X277728Y1009191D01*
X277588Y1008916D01*
X277454Y1008637D01*
X277327Y1008356D01*
X277207Y1008071D01*
X277094Y1007784D01*
X276988Y1007493D01*
X276889Y1007201D01*
X276798Y1006906D01*
X276713Y1006609D01*
X276636Y1006310D01*
X276566Y1006009D01*
X276504Y1005706D01*
X276449Y1005402D01*
X276401Y1005097D01*
X276361Y1004791D01*
X276328Y1004484D01*
X276303Y1004176D01*
X276286Y1003867D01*
X276276Y1003559D01*
X276273Y1003250D01*
X276278Y1002941D01*
X276291Y1002632D01*
X276311Y1002324D01*
X276338Y1002016D01*
X276373Y1001709D01*
X276416Y1001403D01*
X276466Y1001099D01*
X276523Y1000795D01*
X276588Y1000493D01*
X276660Y1000193D01*
X276740Y999894D01*
X276827Y999598D01*
X276921Y999304D01*
X277022Y999012D01*
X277130Y998722D01*
X277245Y998436D01*
X277368Y998152D01*
X277497Y997872D01*
X277633Y997594D01*
X277775Y997320D01*
X277925Y997050D01*
X299925Y997050D01*
X313175Y997050D02*
X264425Y997050D01*
X263525Y1003300D02*
X263533Y1003923D01*
X263556Y1004546D01*
X263594Y1005169D01*
X263647Y1005790D01*
X263716Y1006409D01*
X263800Y1007027D01*
X263899Y1007642D01*
X264013Y1008255D01*
X264142Y1008865D01*
X264286Y1009472D01*
X264445Y1010075D01*
X264619Y1010673D01*
X264807Y1011268D01*
X265010Y1011857D01*
X265227Y1012441D01*
X265458Y1013020D01*
X265704Y1013593D01*
X265964Y1014160D01*
X266237Y1014720D01*
X266524Y1015273D01*
X266825Y1015820D01*
X267139Y1016358D01*
X267466Y1016889D01*
X267806Y1017411D01*
X268158Y1017926D01*
X268524Y1018431D01*
X268901Y1018927D01*
X269291Y1019414D01*
X269692Y1019891D01*
X270105Y1020358D01*
X270529Y1020814D01*
X270964Y1021261D01*
X271411Y1021696D01*
X271867Y1022120D01*
X272334Y1022533D01*
X272811Y1022934D01*
X273298Y1023324D01*
X273794Y1023701D01*
X274299Y1024067D01*
X274814Y1024419D01*
X275336Y1024759D01*
X275867Y1025086D01*
X276405Y1025400D01*
X276952Y1025701D01*
X277505Y1025988D01*
X278065Y1026261D01*
X278632Y1026521D01*
X279205Y1026767D01*
X279784Y1026998D01*
X280368Y1027215D01*
X280957Y1027418D01*
X281552Y1027606D01*
X282150Y1027780D01*
X282753Y1027939D01*
X283360Y1028083D01*
X283970Y1028212D01*
X284583Y1028326D01*
X285198Y1028425D01*
X285816Y1028509D01*
X286435Y1028578D01*
X287056Y1028631D01*
X287679Y1028669D01*
X288302Y1028692D01*
X288925Y1028700D01*
X289548Y1028692D01*
X290171Y1028669D01*
X290794Y1028631D01*
X291415Y1028578D01*
X292034Y1028509D01*
X292652Y1028425D01*
X293267Y1028326D01*
X293880Y1028212D01*
X294490Y1028083D01*
X295097Y1027939D01*
X295700Y1027780D01*
X296298Y1027606D01*
X296893Y1027418D01*
X297482Y1027215D01*
X298066Y1026998D01*
X298645Y1026767D01*
X299218Y1026521D01*
X299785Y1026261D01*
X300345Y1025988D01*
X300898Y1025701D01*
X301445Y1025400D01*
X301983Y1025086D01*
X302514Y1024759D01*
X303036Y1024419D01*
X303551Y1024067D01*
X304056Y1023701D01*
X304552Y1023324D01*
X305039Y1022934D01*
X305516Y1022533D01*
X305983Y1022120D01*
X306439Y1021696D01*
X306886Y1021261D01*
X307321Y1020814D01*
X307745Y1020358D01*
X308158Y1019891D01*
X308559Y1019414D01*
X308949Y1018927D01*
X309326Y1018431D01*
X309692Y1017926D01*
X310044Y1017411D01*
X310384Y1016889D01*
X310711Y1016358D01*
X311025Y1015820D01*
X311326Y1015273D01*
X311613Y1014720D01*
X311886Y1014160D01*
X312146Y1013593D01*
X312392Y1013020D01*
X312623Y1012441D01*
X312840Y1011857D01*
X313043Y1011268D01*
X313231Y1010673D01*
X313405Y1010075D01*
X313564Y1009472D01*
X313708Y1008865D01*
X313837Y1008255D01*
X313951Y1007642D01*
X314050Y1007027D01*
X314134Y1006409D01*
X314203Y1005790D01*
X314256Y1005169D01*
X314294Y1004546D01*
X314317Y1003923D01*
X314325Y1003300D01*
X314317Y1002677D01*
X314294Y1002054D01*
X314256Y1001431D01*
X314203Y1000810D01*
X314134Y1000191D01*
X314050Y999573D01*
X313951Y998958D01*
X313837Y998345D01*
X313708Y997735D01*
X313564Y997128D01*
X313405Y996525D01*
X313231Y995927D01*
X313043Y995332D01*
X312840Y994743D01*
X312623Y994159D01*
X312392Y993580D01*
X312146Y993007D01*
X311886Y992440D01*
X311613Y991880D01*
X311326Y991327D01*
X311025Y990780D01*
X310711Y990242D01*
X310384Y989711D01*
X310044Y989189D01*
X309692Y988674D01*
X309326Y988169D01*
X308949Y987673D01*
X308559Y987186D01*
X308158Y986709D01*
X307745Y986242D01*
X307321Y985786D01*
X306886Y985339D01*
X306439Y984904D01*
X305983Y984480D01*
X305516Y984067D01*
X305039Y983666D01*
X304552Y983276D01*
X304056Y982899D01*
X303551Y982533D01*
X303036Y982181D01*
X302514Y981841D01*
X301983Y981514D01*
X301445Y981200D01*
X300898Y980899D01*
X300345Y980612D01*
X299785Y980339D01*
X299218Y980079D01*
X298645Y979833D01*
X298066Y979602D01*
X297482Y979385D01*
X296893Y979182D01*
X296298Y978994D01*
X295700Y978820D01*
X295097Y978661D01*
X294490Y978517D01*
X293880Y978388D01*
X293267Y978274D01*
X292652Y978175D01*
X292034Y978091D01*
X291415Y978022D01*
X290794Y977969D01*
X290171Y977931D01*
X289548Y977908D01*
X288925Y977900D01*
X288302Y977908D01*
X287679Y977931D01*
X287056Y977969D01*
X286435Y978022D01*
X285816Y978091D01*
X285198Y978175D01*
X284583Y978274D01*
X283970Y978388D01*
X283360Y978517D01*
X282753Y978661D01*
X282150Y978820D01*
X281552Y978994D01*
X280957Y979182D01*
X280368Y979385D01*
X279784Y979602D01*
X279205Y979833D01*
X278632Y980079D01*
X278065Y980339D01*
X277505Y980612D01*
X276952Y980899D01*
X276405Y981200D01*
X275867Y981514D01*
X275336Y981841D01*
X274814Y982181D01*
X274299Y982533D01*
X273794Y982899D01*
X273298Y983276D01*
X272811Y983666D01*
X272334Y984067D01*
X271867Y984480D01*
X271411Y984904D01*
X270964Y985339D01*
X270529Y985786D01*
X270105Y986242D01*
X269692Y986709D01*
X269291Y987186D01*
X268901Y987673D01*
X268524Y988169D01*
X268158Y988674D01*
X267806Y989189D01*
X267466Y989711D01*
X267139Y990242D01*
X266825Y990780D01*
X266524Y991327D01*
X266237Y991880D01*
X265964Y992440D01*
X265704Y993007D01*
X265458Y993580D01*
X265227Y994159D01*
X265010Y994743D01*
X264807Y995332D01*
X264619Y995927D01*
X264445Y996525D01*
X264286Y997128D01*
X264142Y997735D01*
X264013Y998345D01*
X263899Y998958D01*
X263800Y999573D01*
X263716Y1000191D01*
X263647Y1000810D01*
X263594Y1001431D01*
X263556Y1002054D01*
X263533Y1002677D01*
X263525Y1003300D01*
D11*
X326517Y1041908D02*
X326517Y1053602D01*
X320670Y1053602D01*
X318721Y1051653D01*
X318721Y1047755D01*
X320670Y1045806D01*
X326517Y1045806D01*
X322619Y1045806D02*
X318721Y1041908D01*
X314823Y1051653D02*
X312874Y1053602D01*
X308976Y1053602D01*
X307027Y1051653D01*
X307027Y1049704D01*
X308976Y1047755D01*
X307027Y1045806D01*
X307027Y1043857D01*
X308976Y1041908D01*
X312874Y1041908D01*
X314823Y1043857D01*
X314823Y1045806D01*
X312874Y1047755D01*
X314823Y1049704D01*
X314823Y1051653D01*
X312874Y1047755D02*
X308976Y1047755D01*
X303129Y1053602D02*
X295333Y1053602D01*
X295333Y1051653D01*
X303129Y1043857D01*
X303129Y1041908D01*
D10*
X217575Y1057900D02*
X131675Y1057900D01*
X131675Y960000D01*
X217575Y960000D01*
X217575Y1057900D01*
D12*
X185625Y997050D02*
X185775Y997320D01*
X185917Y997594D01*
X186053Y997872D01*
X186182Y998152D01*
X186305Y998436D01*
X186420Y998722D01*
X186528Y999012D01*
X186629Y999304D01*
X186723Y999598D01*
X186810Y999894D01*
X186890Y1000193D01*
X186962Y1000493D01*
X187027Y1000795D01*
X187084Y1001099D01*
X187134Y1001403D01*
X187177Y1001709D01*
X187212Y1002016D01*
X187239Y1002324D01*
X187259Y1002632D01*
X187272Y1002941D01*
X187277Y1003250D01*
X187274Y1003559D01*
X187264Y1003867D01*
X187247Y1004176D01*
X187222Y1004484D01*
X187189Y1004791D01*
X187149Y1005097D01*
X187101Y1005402D01*
X187046Y1005706D01*
X186984Y1006009D01*
X186914Y1006310D01*
X186837Y1006609D01*
X186752Y1006906D01*
X186661Y1007201D01*
X186562Y1007493D01*
X186456Y1007784D01*
X186343Y1008071D01*
X186223Y1008356D01*
X186096Y1008637D01*
X185962Y1008916D01*
X185822Y1009191D01*
X185675Y1009462D01*
X185521Y1009730D01*
X185361Y1009994D01*
X185194Y1010255D01*
X185021Y1010511D01*
X184842Y1010762D01*
X184657Y1011009D01*
X184466Y1011252D01*
X184269Y1011490D01*
X184066Y1011723D01*
X183857Y1011951D01*
X183643Y1012174D01*
X183424Y1012391D01*
X183200Y1012603D01*
X182970Y1012810D01*
X182735Y1013011D01*
X182496Y1013206D01*
X182252Y1013395D01*
X182003Y1013578D01*
X181750Y1013755D01*
X181492Y1013926D01*
X181231Y1014091D01*
X180966Y1014249D01*
X180696Y1014400D01*
X180424Y1014545D01*
X180147Y1014683D01*
X179868Y1014815D01*
X179585Y1014939D01*
X179299Y1015057D01*
X179011Y1015167D01*
X178720Y1015271D01*
X178427Y1015367D01*
X178131Y1015457D01*
X177833Y1015539D01*
X177533Y1015613D01*
X177232Y1015681D01*
X176929Y1015740D01*
X176624Y1015793D01*
X176319Y1015838D01*
X176012Y1015876D01*
X175705Y1015906D01*
X175397Y1015928D01*
X175088Y1015944D01*
X174779Y1015951D01*
X174471Y1015951D01*
X174162Y1015944D01*
X173853Y1015928D01*
X173545Y1015906D01*
X173238Y1015876D01*
X172931Y1015838D01*
X172626Y1015793D01*
X172321Y1015740D01*
X172018Y1015681D01*
X171717Y1015613D01*
X171417Y1015539D01*
X171119Y1015457D01*
X170823Y1015367D01*
X170530Y1015271D01*
X170239Y1015167D01*
X169951Y1015057D01*
X169665Y1014939D01*
X169382Y1014815D01*
X169103Y1014683D01*
X168826Y1014545D01*
X168554Y1014400D01*
X168284Y1014249D01*
X168019Y1014091D01*
X167758Y1013926D01*
X167500Y1013755D01*
X167247Y1013578D01*
X166998Y1013395D01*
X166754Y1013206D01*
X166515Y1013011D01*
X166280Y1012810D01*
X166050Y1012603D01*
X165826Y1012391D01*
X165607Y1012174D01*
X165393Y1011951D01*
X165184Y1011723D01*
X164981Y1011490D01*
X164784Y1011252D01*
X164593Y1011009D01*
X164408Y1010762D01*
X164229Y1010511D01*
X164056Y1010255D01*
X163889Y1009994D01*
X163729Y1009730D01*
X163575Y1009462D01*
X163428Y1009191D01*
X163288Y1008916D01*
X163154Y1008637D01*
X163027Y1008356D01*
X162907Y1008071D01*
X162794Y1007784D01*
X162688Y1007493D01*
X162589Y1007201D01*
X162498Y1006906D01*
X162413Y1006609D01*
X162336Y1006310D01*
X162266Y1006009D01*
X162204Y1005706D01*
X162149Y1005402D01*
X162101Y1005097D01*
X162061Y1004791D01*
X162028Y1004484D01*
X162003Y1004176D01*
X161986Y1003867D01*
X161976Y1003559D01*
X161973Y1003250D01*
X161978Y1002941D01*
X161991Y1002632D01*
X162011Y1002324D01*
X162038Y1002016D01*
X162073Y1001709D01*
X162116Y1001403D01*
X162166Y1001099D01*
X162223Y1000795D01*
X162288Y1000493D01*
X162360Y1000193D01*
X162440Y999894D01*
X162527Y999598D01*
X162621Y999304D01*
X162722Y999012D01*
X162830Y998722D01*
X162945Y998436D01*
X163068Y998152D01*
X163197Y997872D01*
X163333Y997594D01*
X163475Y997320D01*
X163625Y997050D01*
X185625Y997050D01*
X198875Y997050D02*
X150125Y997050D01*
X149225Y1003300D02*
X149233Y1003923D01*
X149256Y1004546D01*
X149294Y1005169D01*
X149347Y1005790D01*
X149416Y1006409D01*
X149500Y1007027D01*
X149599Y1007642D01*
X149713Y1008255D01*
X149842Y1008865D01*
X149986Y1009472D01*
X150145Y1010075D01*
X150319Y1010673D01*
X150507Y1011268D01*
X150710Y1011857D01*
X150927Y1012441D01*
X151158Y1013020D01*
X151404Y1013593D01*
X151664Y1014160D01*
X151937Y1014720D01*
X152224Y1015273D01*
X152525Y1015820D01*
X152839Y1016358D01*
X153166Y1016889D01*
X153506Y1017411D01*
X153858Y1017926D01*
X154224Y1018431D01*
X154601Y1018927D01*
X154991Y1019414D01*
X155392Y1019891D01*
X155805Y1020358D01*
X156229Y1020814D01*
X156664Y1021261D01*
X157111Y1021696D01*
X157567Y1022120D01*
X158034Y1022533D01*
X158511Y1022934D01*
X158998Y1023324D01*
X159494Y1023701D01*
X159999Y1024067D01*
X160514Y1024419D01*
X161036Y1024759D01*
X161567Y1025086D01*
X162105Y1025400D01*
X162652Y1025701D01*
X163205Y1025988D01*
X163765Y1026261D01*
X164332Y1026521D01*
X164905Y1026767D01*
X165484Y1026998D01*
X166068Y1027215D01*
X166657Y1027418D01*
X167252Y1027606D01*
X167850Y1027780D01*
X168453Y1027939D01*
X169060Y1028083D01*
X169670Y1028212D01*
X170283Y1028326D01*
X170898Y1028425D01*
X171516Y1028509D01*
X172135Y1028578D01*
X172756Y1028631D01*
X173379Y1028669D01*
X174002Y1028692D01*
X174625Y1028700D01*
X175248Y1028692D01*
X175871Y1028669D01*
X176494Y1028631D01*
X177115Y1028578D01*
X177734Y1028509D01*
X178352Y1028425D01*
X178967Y1028326D01*
X179580Y1028212D01*
X180190Y1028083D01*
X180797Y1027939D01*
X181400Y1027780D01*
X181998Y1027606D01*
X182593Y1027418D01*
X183182Y1027215D01*
X183766Y1026998D01*
X184345Y1026767D01*
X184918Y1026521D01*
X185485Y1026261D01*
X186045Y1025988D01*
X186598Y1025701D01*
X187145Y1025400D01*
X187683Y1025086D01*
X188214Y1024759D01*
X188736Y1024419D01*
X189251Y1024067D01*
X189756Y1023701D01*
X190252Y1023324D01*
X190739Y1022934D01*
X191216Y1022533D01*
X191683Y1022120D01*
X192139Y1021696D01*
X192586Y1021261D01*
X193021Y1020814D01*
X193445Y1020358D01*
X193858Y1019891D01*
X194259Y1019414D01*
X194649Y1018927D01*
X195026Y1018431D01*
X195392Y1017926D01*
X195744Y1017411D01*
X196084Y1016889D01*
X196411Y1016358D01*
X196725Y1015820D01*
X197026Y1015273D01*
X197313Y1014720D01*
X197586Y1014160D01*
X197846Y1013593D01*
X198092Y1013020D01*
X198323Y1012441D01*
X198540Y1011857D01*
X198743Y1011268D01*
X198931Y1010673D01*
X199105Y1010075D01*
X199264Y1009472D01*
X199408Y1008865D01*
X199537Y1008255D01*
X199651Y1007642D01*
X199750Y1007027D01*
X199834Y1006409D01*
X199903Y1005790D01*
X199956Y1005169D01*
X199994Y1004546D01*
X200017Y1003923D01*
X200025Y1003300D01*
X200017Y1002677D01*
X199994Y1002054D01*
X199956Y1001431D01*
X199903Y1000810D01*
X199834Y1000191D01*
X199750Y999573D01*
X199651Y998958D01*
X199537Y998345D01*
X199408Y997735D01*
X199264Y997128D01*
X199105Y996525D01*
X198931Y995927D01*
X198743Y995332D01*
X198540Y994743D01*
X198323Y994159D01*
X198092Y993580D01*
X197846Y993007D01*
X197586Y992440D01*
X197313Y991880D01*
X197026Y991327D01*
X196725Y990780D01*
X196411Y990242D01*
X196084Y989711D01*
X195744Y989189D01*
X195392Y988674D01*
X195026Y988169D01*
X194649Y987673D01*
X194259Y987186D01*
X193858Y986709D01*
X193445Y986242D01*
X193021Y985786D01*
X192586Y985339D01*
X192139Y984904D01*
X191683Y984480D01*
X191216Y984067D01*
X190739Y983666D01*
X190252Y983276D01*
X189756Y982899D01*
X189251Y982533D01*
X188736Y982181D01*
X188214Y981841D01*
X187683Y981514D01*
X187145Y981200D01*
X186598Y980899D01*
X186045Y980612D01*
X185485Y980339D01*
X184918Y980079D01*
X184345Y979833D01*
X183766Y979602D01*
X183182Y979385D01*
X182593Y979182D01*
X181998Y978994D01*
X181400Y978820D01*
X180797Y978661D01*
X180190Y978517D01*
X179580Y978388D01*
X178967Y978274D01*
X178352Y978175D01*
X177734Y978091D01*
X177115Y978022D01*
X176494Y977969D01*
X175871Y977931D01*
X175248Y977908D01*
X174625Y977900D01*
X174002Y977908D01*
X173379Y977931D01*
X172756Y977969D01*
X172135Y978022D01*
X171516Y978091D01*
X170898Y978175D01*
X170283Y978274D01*
X169670Y978388D01*
X169060Y978517D01*
X168453Y978661D01*
X167850Y978820D01*
X167252Y978994D01*
X166657Y979182D01*
X166068Y979385D01*
X165484Y979602D01*
X164905Y979833D01*
X164332Y980079D01*
X163765Y980339D01*
X163205Y980612D01*
X162652Y980899D01*
X162105Y981200D01*
X161567Y981514D01*
X161036Y981841D01*
X160514Y982181D01*
X159999Y982533D01*
X159494Y982899D01*
X158998Y983276D01*
X158511Y983666D01*
X158034Y984067D01*
X157567Y984480D01*
X157111Y984904D01*
X156664Y985339D01*
X156229Y985786D01*
X155805Y986242D01*
X155392Y986709D01*
X154991Y987186D01*
X154601Y987673D01*
X154224Y988169D01*
X153858Y988674D01*
X153506Y989189D01*
X153166Y989711D01*
X152839Y990242D01*
X152525Y990780D01*
X152224Y991327D01*
X151937Y991880D01*
X151664Y992440D01*
X151404Y993007D01*
X151158Y993580D01*
X150927Y994159D01*
X150710Y994743D01*
X150507Y995332D01*
X150319Y995927D01*
X150145Y996525D01*
X149986Y997128D01*
X149842Y997735D01*
X149713Y998345D01*
X149599Y998958D01*
X149500Y999573D01*
X149416Y1000191D01*
X149347Y1000810D01*
X149294Y1001431D01*
X149256Y1002054D01*
X149233Y1002677D01*
X149225Y1003300D01*
D11*
X212217Y1041908D02*
X212217Y1053602D01*
X206370Y1053602D01*
X204421Y1051653D01*
X204421Y1047755D01*
X206370Y1045806D01*
X212217Y1045806D01*
X208319Y1045806D02*
X204421Y1041908D01*
X200523Y1051653D02*
X198574Y1053602D01*
X194676Y1053602D01*
X192727Y1051653D01*
X192727Y1049704D01*
X194676Y1047755D01*
X192727Y1045806D01*
X192727Y1043857D01*
X194676Y1041908D01*
X198574Y1041908D01*
X200523Y1043857D01*
X200523Y1045806D01*
X198574Y1047755D01*
X200523Y1049704D01*
X200523Y1051653D01*
X198574Y1047755D02*
X194676Y1047755D01*
X188829Y1051653D02*
X186880Y1053602D01*
X182982Y1053602D01*
X181033Y1051653D01*
X181033Y1049704D01*
X182982Y1047755D01*
X181033Y1045806D01*
X181033Y1043857D01*
X182982Y1041908D01*
X186880Y1041908D01*
X188829Y1043857D01*
X188829Y1045806D01*
X186880Y1047755D01*
X188829Y1049704D01*
X188829Y1051653D01*
X186880Y1047755D02*
X182982Y1047755D01*
D10*
X103275Y1057900D02*
X17375Y1057900D01*
X17375Y960000D01*
X103275Y960000D01*
X103275Y1057900D01*
D12*
X71325Y997050D02*
X71475Y997320D01*
X71617Y997594D01*
X71753Y997872D01*
X71882Y998152D01*
X72005Y998436D01*
X72120Y998722D01*
X72228Y999012D01*
X72329Y999304D01*
X72423Y999598D01*
X72510Y999894D01*
X72590Y1000193D01*
X72662Y1000493D01*
X72727Y1000795D01*
X72784Y1001099D01*
X72834Y1001403D01*
X72877Y1001709D01*
X72912Y1002016D01*
X72939Y1002324D01*
X72959Y1002632D01*
X72972Y1002941D01*
X72977Y1003250D01*
X72974Y1003559D01*
X72964Y1003867D01*
X72947Y1004176D01*
X72922Y1004484D01*
X72889Y1004791D01*
X72849Y1005097D01*
X72801Y1005402D01*
X72746Y1005706D01*
X72684Y1006009D01*
X72614Y1006310D01*
X72537Y1006609D01*
X72452Y1006906D01*
X72361Y1007201D01*
X72262Y1007493D01*
X72156Y1007784D01*
X72043Y1008071D01*
X71923Y1008356D01*
X71796Y1008637D01*
X71662Y1008916D01*
X71522Y1009191D01*
X71375Y1009462D01*
X71221Y1009730D01*
X71061Y1009994D01*
X70894Y1010255D01*
X70721Y1010511D01*
X70542Y1010762D01*
X70357Y1011009D01*
X70166Y1011252D01*
X69969Y1011490D01*
X69766Y1011723D01*
X69557Y1011951D01*
X69343Y1012174D01*
X69124Y1012391D01*
X68900Y1012603D01*
X68670Y1012810D01*
X68435Y1013011D01*
X68196Y1013206D01*
X67952Y1013395D01*
X67703Y1013578D01*
X67450Y1013755D01*
X67192Y1013926D01*
X66931Y1014091D01*
X66666Y1014249D01*
X66396Y1014400D01*
X66124Y1014545D01*
X65847Y1014683D01*
X65568Y1014815D01*
X65285Y1014939D01*
X64999Y1015057D01*
X64711Y1015167D01*
X64420Y1015271D01*
X64127Y1015367D01*
X63831Y1015457D01*
X63533Y1015539D01*
X63233Y1015613D01*
X62932Y1015681D01*
X62629Y1015740D01*
X62324Y1015793D01*
X62019Y1015838D01*
X61712Y1015876D01*
X61405Y1015906D01*
X61097Y1015928D01*
X60788Y1015944D01*
X60479Y1015951D01*
X60171Y1015951D01*
X59862Y1015944D01*
X59553Y1015928D01*
X59245Y1015906D01*
X58938Y1015876D01*
X58631Y1015838D01*
X58326Y1015793D01*
X58021Y1015740D01*
X57718Y1015681D01*
X57417Y1015613D01*
X57117Y1015539D01*
X56819Y1015457D01*
X56523Y1015367D01*
X56230Y1015271D01*
X55939Y1015167D01*
X55651Y1015057D01*
X55365Y1014939D01*
X55082Y1014815D01*
X54803Y1014683D01*
X54526Y1014545D01*
X54254Y1014400D01*
X53984Y1014249D01*
X53719Y1014091D01*
X53458Y1013926D01*
X53200Y1013755D01*
X52947Y1013578D01*
X52698Y1013395D01*
X52454Y1013206D01*
X52215Y1013011D01*
X51980Y1012810D01*
X51750Y1012603D01*
X51526Y1012391D01*
X51307Y1012174D01*
X51093Y1011951D01*
X50884Y1011723D01*
X50681Y1011490D01*
X50484Y1011252D01*
X50293Y1011009D01*
X50108Y1010762D01*
X49929Y1010511D01*
X49756Y1010255D01*
X49589Y1009994D01*
X49429Y1009730D01*
X49275Y1009462D01*
X49128Y1009191D01*
X48988Y1008916D01*
X48854Y1008637D01*
X48727Y1008356D01*
X48607Y1008071D01*
X48494Y1007784D01*
X48388Y1007493D01*
X48289Y1007201D01*
X48198Y1006906D01*
X48113Y1006609D01*
X48036Y1006310D01*
X47966Y1006009D01*
X47904Y1005706D01*
X47849Y1005402D01*
X47801Y1005097D01*
X47761Y1004791D01*
X47728Y1004484D01*
X47703Y1004176D01*
X47686Y1003867D01*
X47676Y1003559D01*
X47673Y1003250D01*
X47678Y1002941D01*
X47691Y1002632D01*
X47711Y1002324D01*
X47738Y1002016D01*
X47773Y1001709D01*
X47816Y1001403D01*
X47866Y1001099D01*
X47923Y1000795D01*
X47988Y1000493D01*
X48060Y1000193D01*
X48140Y999894D01*
X48227Y999598D01*
X48321Y999304D01*
X48422Y999012D01*
X48530Y998722D01*
X48645Y998436D01*
X48768Y998152D01*
X48897Y997872D01*
X49033Y997594D01*
X49175Y997320D01*
X49325Y997050D01*
X71325Y997050D01*
X84575Y997050D02*
X35825Y997050D01*
X34925Y1003300D02*
X34933Y1003923D01*
X34956Y1004546D01*
X34994Y1005169D01*
X35047Y1005790D01*
X35116Y1006409D01*
X35200Y1007027D01*
X35299Y1007642D01*
X35413Y1008255D01*
X35542Y1008865D01*
X35686Y1009472D01*
X35845Y1010075D01*
X36019Y1010673D01*
X36207Y1011268D01*
X36410Y1011857D01*
X36627Y1012441D01*
X36858Y1013020D01*
X37104Y1013593D01*
X37364Y1014160D01*
X37637Y1014720D01*
X37924Y1015273D01*
X38225Y1015820D01*
X38539Y1016358D01*
X38866Y1016889D01*
X39206Y1017411D01*
X39558Y1017926D01*
X39924Y1018431D01*
X40301Y1018927D01*
X40691Y1019414D01*
X41092Y1019891D01*
X41505Y1020358D01*
X41929Y1020814D01*
X42364Y1021261D01*
X42811Y1021696D01*
X43267Y1022120D01*
X43734Y1022533D01*
X44211Y1022934D01*
X44698Y1023324D01*
X45194Y1023701D01*
X45699Y1024067D01*
X46214Y1024419D01*
X46736Y1024759D01*
X47267Y1025086D01*
X47805Y1025400D01*
X48352Y1025701D01*
X48905Y1025988D01*
X49465Y1026261D01*
X50032Y1026521D01*
X50605Y1026767D01*
X51184Y1026998D01*
X51768Y1027215D01*
X52357Y1027418D01*
X52952Y1027606D01*
X53550Y1027780D01*
X54153Y1027939D01*
X54760Y1028083D01*
X55370Y1028212D01*
X55983Y1028326D01*
X56598Y1028425D01*
X57216Y1028509D01*
X57835Y1028578D01*
X58456Y1028631D01*
X59079Y1028669D01*
X59702Y1028692D01*
X60325Y1028700D01*
X60948Y1028692D01*
X61571Y1028669D01*
X62194Y1028631D01*
X62815Y1028578D01*
X63434Y1028509D01*
X64052Y1028425D01*
X64667Y1028326D01*
X65280Y1028212D01*
X65890Y1028083D01*
X66497Y1027939D01*
X67100Y1027780D01*
X67698Y1027606D01*
X68293Y1027418D01*
X68882Y1027215D01*
X69466Y1026998D01*
X70045Y1026767D01*
X70618Y1026521D01*
X71185Y1026261D01*
X71745Y1025988D01*
X72298Y1025701D01*
X72845Y1025400D01*
X73383Y1025086D01*
X73914Y1024759D01*
X74436Y1024419D01*
X74951Y1024067D01*
X75456Y1023701D01*
X75952Y1023324D01*
X76439Y1022934D01*
X76916Y1022533D01*
X77383Y1022120D01*
X77839Y1021696D01*
X78286Y1021261D01*
X78721Y1020814D01*
X79145Y1020358D01*
X79558Y1019891D01*
X79959Y1019414D01*
X80349Y1018927D01*
X80726Y1018431D01*
X81092Y1017926D01*
X81444Y1017411D01*
X81784Y1016889D01*
X82111Y1016358D01*
X82425Y1015820D01*
X82726Y1015273D01*
X83013Y1014720D01*
X83286Y1014160D01*
X83546Y1013593D01*
X83792Y1013020D01*
X84023Y1012441D01*
X84240Y1011857D01*
X84443Y1011268D01*
X84631Y1010673D01*
X84805Y1010075D01*
X84964Y1009472D01*
X85108Y1008865D01*
X85237Y1008255D01*
X85351Y1007642D01*
X85450Y1007027D01*
X85534Y1006409D01*
X85603Y1005790D01*
X85656Y1005169D01*
X85694Y1004546D01*
X85717Y1003923D01*
X85725Y1003300D01*
X85717Y1002677D01*
X85694Y1002054D01*
X85656Y1001431D01*
X85603Y1000810D01*
X85534Y1000191D01*
X85450Y999573D01*
X85351Y998958D01*
X85237Y998345D01*
X85108Y997735D01*
X84964Y997128D01*
X84805Y996525D01*
X84631Y995927D01*
X84443Y995332D01*
X84240Y994743D01*
X84023Y994159D01*
X83792Y993580D01*
X83546Y993007D01*
X83286Y992440D01*
X83013Y991880D01*
X82726Y991327D01*
X82425Y990780D01*
X82111Y990242D01*
X81784Y989711D01*
X81444Y989189D01*
X81092Y988674D01*
X80726Y988169D01*
X80349Y987673D01*
X79959Y987186D01*
X79558Y986709D01*
X79145Y986242D01*
X78721Y985786D01*
X78286Y985339D01*
X77839Y984904D01*
X77383Y984480D01*
X76916Y984067D01*
X76439Y983666D01*
X75952Y983276D01*
X75456Y982899D01*
X74951Y982533D01*
X74436Y982181D01*
X73914Y981841D01*
X73383Y981514D01*
X72845Y981200D01*
X72298Y980899D01*
X71745Y980612D01*
X71185Y980339D01*
X70618Y980079D01*
X70045Y979833D01*
X69466Y979602D01*
X68882Y979385D01*
X68293Y979182D01*
X67698Y978994D01*
X67100Y978820D01*
X66497Y978661D01*
X65890Y978517D01*
X65280Y978388D01*
X64667Y978274D01*
X64052Y978175D01*
X63434Y978091D01*
X62815Y978022D01*
X62194Y977969D01*
X61571Y977931D01*
X60948Y977908D01*
X60325Y977900D01*
X59702Y977908D01*
X59079Y977931D01*
X58456Y977969D01*
X57835Y978022D01*
X57216Y978091D01*
X56598Y978175D01*
X55983Y978274D01*
X55370Y978388D01*
X54760Y978517D01*
X54153Y978661D01*
X53550Y978820D01*
X52952Y978994D01*
X52357Y979182D01*
X51768Y979385D01*
X51184Y979602D01*
X50605Y979833D01*
X50032Y980079D01*
X49465Y980339D01*
X48905Y980612D01*
X48352Y980899D01*
X47805Y981200D01*
X47267Y981514D01*
X46736Y981841D01*
X46214Y982181D01*
X45699Y982533D01*
X45194Y982899D01*
X44698Y983276D01*
X44211Y983666D01*
X43734Y984067D01*
X43267Y984480D01*
X42811Y984904D01*
X42364Y985339D01*
X41929Y985786D01*
X41505Y986242D01*
X41092Y986709D01*
X40691Y987186D01*
X40301Y987673D01*
X39924Y988169D01*
X39558Y988674D01*
X39206Y989189D01*
X38866Y989711D01*
X38539Y990242D01*
X38225Y990780D01*
X37924Y991327D01*
X37637Y991880D01*
X37364Y992440D01*
X37104Y993007D01*
X36858Y993580D01*
X36627Y994159D01*
X36410Y994743D01*
X36207Y995332D01*
X36019Y995927D01*
X35845Y996525D01*
X35686Y997128D01*
X35542Y997735D01*
X35413Y998345D01*
X35299Y998958D01*
X35200Y999573D01*
X35116Y1000191D01*
X35047Y1000810D01*
X34994Y1001431D01*
X34956Y1002054D01*
X34933Y1002677D01*
X34925Y1003300D01*
D11*
X97917Y1041908D02*
X97917Y1053602D01*
X92070Y1053602D01*
X90121Y1051653D01*
X90121Y1047755D01*
X92070Y1045806D01*
X97917Y1045806D01*
X94019Y1045806D02*
X90121Y1041908D01*
X86223Y1051653D02*
X84274Y1053602D01*
X80376Y1053602D01*
X78427Y1051653D01*
X78427Y1049704D01*
X80376Y1047755D01*
X78427Y1045806D01*
X78427Y1043857D01*
X80376Y1041908D01*
X84274Y1041908D01*
X86223Y1043857D01*
X86223Y1045806D01*
X84274Y1047755D01*
X86223Y1049704D01*
X86223Y1051653D01*
X84274Y1047755D02*
X80376Y1047755D01*
X74529Y1043857D02*
X72580Y1041908D01*
X68682Y1041908D01*
X66733Y1043857D01*
X66733Y1051653D01*
X68682Y1053602D01*
X72580Y1053602D01*
X74529Y1051653D01*
X74529Y1049704D01*
X72580Y1047755D01*
X66733Y1047755D01*
D10*
X674989Y114000D02*
X687989Y114000D01*
X681489Y140000D02*
X674989Y140000D01*
X645989Y127000D02*
X645994Y127393D01*
X646008Y127785D01*
X646032Y128177D01*
X646066Y128568D01*
X646109Y128959D01*
X646162Y129348D01*
X646225Y129735D01*
X646296Y130121D01*
X646378Y130506D01*
X646468Y130888D01*
X646569Y131267D01*
X646678Y131645D01*
X646797Y132019D01*
X646924Y132390D01*
X647061Y132758D01*
X647207Y133123D01*
X647362Y133484D01*
X647525Y133841D01*
X647697Y134194D01*
X647878Y134542D01*
X648068Y134886D01*
X648265Y135226D01*
X648471Y135560D01*
X648685Y135889D01*
X648908Y136213D01*
X649138Y136531D01*
X649375Y136844D01*
X649621Y137150D01*
X649874Y137451D01*
X650134Y137745D01*
X650401Y138033D01*
X650675Y138314D01*
X650956Y138588D01*
X651244Y138855D01*
X651538Y139115D01*
X651839Y139368D01*
X652145Y139614D01*
X652458Y139851D01*
X652776Y140081D01*
X653100Y140304D01*
X653429Y140518D01*
X653763Y140724D01*
X654103Y140921D01*
X654447Y141111D01*
X654795Y141292D01*
X655148Y141464D01*
X655505Y141627D01*
X655866Y141782D01*
X656231Y141928D01*
X656599Y142065D01*
X656970Y142192D01*
X657344Y142311D01*
X657722Y142420D01*
X658101Y142521D01*
X658483Y142611D01*
X658868Y142693D01*
X659254Y142764D01*
X659641Y142827D01*
X660030Y142880D01*
X660421Y142923D01*
X660812Y142957D01*
X661204Y142981D01*
X661596Y142995D01*
X661989Y143000D01*
X662382Y142995D01*
X662774Y142981D01*
X663166Y142957D01*
X663557Y142923D01*
X663948Y142880D01*
X664337Y142827D01*
X664724Y142764D01*
X665110Y142693D01*
X665495Y142611D01*
X665877Y142521D01*
X666256Y142420D01*
X666634Y142311D01*
X667008Y142192D01*
X667379Y142065D01*
X667747Y141928D01*
X668112Y141782D01*
X668473Y141627D01*
X668830Y141464D01*
X669183Y141292D01*
X669531Y141111D01*
X669875Y140921D01*
X670215Y140724D01*
X670549Y140518D01*
X670878Y140304D01*
X671202Y140081D01*
X671520Y139851D01*
X671833Y139614D01*
X672139Y139368D01*
X672440Y139115D01*
X672734Y138855D01*
X673022Y138588D01*
X673303Y138314D01*
X673577Y138033D01*
X673844Y137745D01*
X674104Y137451D01*
X674357Y137150D01*
X674603Y136844D01*
X674840Y136531D01*
X675070Y136213D01*
X675293Y135889D01*
X675507Y135560D01*
X675713Y135226D01*
X675910Y134886D01*
X676100Y134542D01*
X676281Y134194D01*
X676453Y133841D01*
X676616Y133484D01*
X676771Y133123D01*
X676917Y132758D01*
X677054Y132390D01*
X677181Y132019D01*
X677300Y131645D01*
X677409Y131267D01*
X677510Y130888D01*
X677600Y130506D01*
X677682Y130121D01*
X677753Y129735D01*
X677816Y129348D01*
X677869Y128959D01*
X677912Y128568D01*
X677946Y128177D01*
X677970Y127785D01*
X677984Y127393D01*
X677989Y127000D01*
X677984Y126607D01*
X677970Y126215D01*
X677946Y125823D01*
X677912Y125432D01*
X677869Y125041D01*
X677816Y124652D01*
X677753Y124265D01*
X677682Y123879D01*
X677600Y123494D01*
X677510Y123112D01*
X677409Y122733D01*
X677300Y122355D01*
X677181Y121981D01*
X677054Y121610D01*
X676917Y121242D01*
X676771Y120877D01*
X676616Y120516D01*
X676453Y120159D01*
X676281Y119806D01*
X676100Y119458D01*
X675910Y119114D01*
X675713Y118774D01*
X675507Y118440D01*
X675293Y118111D01*
X675070Y117787D01*
X674840Y117469D01*
X674603Y117156D01*
X674357Y116850D01*
X674104Y116549D01*
X673844Y116255D01*
X673577Y115967D01*
X673303Y115686D01*
X673022Y115412D01*
X672734Y115145D01*
X672440Y114885D01*
X672139Y114632D01*
X671833Y114386D01*
X671520Y114149D01*
X671202Y113919D01*
X670878Y113696D01*
X670549Y113482D01*
X670215Y113276D01*
X669875Y113079D01*
X669531Y112889D01*
X669183Y112708D01*
X668830Y112536D01*
X668473Y112373D01*
X668112Y112218D01*
X667747Y112072D01*
X667379Y111935D01*
X667008Y111808D01*
X666634Y111689D01*
X666256Y111580D01*
X665877Y111479D01*
X665495Y111389D01*
X665110Y111307D01*
X664724Y111236D01*
X664337Y111173D01*
X663948Y111120D01*
X663557Y111077D01*
X663166Y111043D01*
X662774Y111019D01*
X662382Y111005D01*
X661989Y111000D01*
X661596Y111005D01*
X661204Y111019D01*
X660812Y111043D01*
X660421Y111077D01*
X660030Y111120D01*
X659641Y111173D01*
X659254Y111236D01*
X658868Y111307D01*
X658483Y111389D01*
X658101Y111479D01*
X657722Y111580D01*
X657344Y111689D01*
X656970Y111808D01*
X656599Y111935D01*
X656231Y112072D01*
X655866Y112218D01*
X655505Y112373D01*
X655148Y112536D01*
X654795Y112708D01*
X654447Y112889D01*
X654103Y113079D01*
X653763Y113276D01*
X653429Y113482D01*
X653100Y113696D01*
X652776Y113919D01*
X652458Y114149D01*
X652145Y114386D01*
X651839Y114632D01*
X651538Y114885D01*
X651244Y115145D01*
X650956Y115412D01*
X650675Y115686D01*
X650401Y115967D01*
X650134Y116255D01*
X649874Y116549D01*
X649621Y116850D01*
X649375Y117156D01*
X649138Y117469D01*
X648908Y117787D01*
X648685Y118111D01*
X648471Y118440D01*
X648265Y118774D01*
X648068Y119114D01*
X647878Y119458D01*
X647697Y119806D01*
X647525Y120159D01*
X647362Y120516D01*
X647207Y120877D01*
X647061Y121242D01*
X646924Y121610D01*
X646797Y121981D01*
X646678Y122355D01*
X646569Y122733D01*
X646468Y123112D01*
X646378Y123494D01*
X646296Y123879D01*
X646225Y124265D01*
X646162Y124652D01*
X646109Y125041D01*
X646066Y125432D01*
X646032Y125823D01*
X646008Y126215D01*
X645994Y126607D01*
X645989Y127000D01*
D13*
X680340Y116291D02*
X685933Y116291D01*
X680340Y116291D02*
X680340Y120020D01*
X685933Y121904D02*
X685933Y125633D01*
X685933Y121904D02*
X680340Y121904D01*
X680340Y125633D01*
X683136Y123768D02*
X683136Y121904D01*
X680340Y127517D02*
X685933Y127517D01*
X680340Y127517D02*
X680340Y130314D01*
X681272Y131246D01*
X685001Y131246D01*
X685933Y130314D01*
X685933Y127517D01*
X684069Y133130D02*
X685933Y134995D01*
X680340Y134995D01*
X680340Y136859D02*
X680340Y133130D01*
D10*
X573688Y114001D02*
X560688Y114001D01*
X560688Y140001D02*
X567188Y140001D01*
X531688Y127001D02*
X531693Y127394D01*
X531707Y127786D01*
X531731Y128178D01*
X531765Y128569D01*
X531808Y128960D01*
X531861Y129349D01*
X531924Y129736D01*
X531995Y130122D01*
X532077Y130507D01*
X532167Y130889D01*
X532268Y131268D01*
X532377Y131646D01*
X532496Y132020D01*
X532623Y132391D01*
X532760Y132759D01*
X532906Y133124D01*
X533061Y133485D01*
X533224Y133842D01*
X533396Y134195D01*
X533577Y134543D01*
X533767Y134887D01*
X533964Y135227D01*
X534170Y135561D01*
X534384Y135890D01*
X534607Y136214D01*
X534837Y136532D01*
X535074Y136845D01*
X535320Y137151D01*
X535573Y137452D01*
X535833Y137746D01*
X536100Y138034D01*
X536374Y138315D01*
X536655Y138589D01*
X536943Y138856D01*
X537237Y139116D01*
X537538Y139369D01*
X537844Y139615D01*
X538157Y139852D01*
X538475Y140082D01*
X538799Y140305D01*
X539128Y140519D01*
X539462Y140725D01*
X539802Y140922D01*
X540146Y141112D01*
X540494Y141293D01*
X540847Y141465D01*
X541204Y141628D01*
X541565Y141783D01*
X541930Y141929D01*
X542298Y142066D01*
X542669Y142193D01*
X543043Y142312D01*
X543421Y142421D01*
X543800Y142522D01*
X544182Y142612D01*
X544567Y142694D01*
X544953Y142765D01*
X545340Y142828D01*
X545729Y142881D01*
X546120Y142924D01*
X546511Y142958D01*
X546903Y142982D01*
X547295Y142996D01*
X547688Y143001D01*
X548081Y142996D01*
X548473Y142982D01*
X548865Y142958D01*
X549256Y142924D01*
X549647Y142881D01*
X550036Y142828D01*
X550423Y142765D01*
X550809Y142694D01*
X551194Y142612D01*
X551576Y142522D01*
X551955Y142421D01*
X552333Y142312D01*
X552707Y142193D01*
X553078Y142066D01*
X553446Y141929D01*
X553811Y141783D01*
X554172Y141628D01*
X554529Y141465D01*
X554882Y141293D01*
X555230Y141112D01*
X555574Y140922D01*
X555914Y140725D01*
X556248Y140519D01*
X556577Y140305D01*
X556901Y140082D01*
X557219Y139852D01*
X557532Y139615D01*
X557838Y139369D01*
X558139Y139116D01*
X558433Y138856D01*
X558721Y138589D01*
X559002Y138315D01*
X559276Y138034D01*
X559543Y137746D01*
X559803Y137452D01*
X560056Y137151D01*
X560302Y136845D01*
X560539Y136532D01*
X560769Y136214D01*
X560992Y135890D01*
X561206Y135561D01*
X561412Y135227D01*
X561609Y134887D01*
X561799Y134543D01*
X561980Y134195D01*
X562152Y133842D01*
X562315Y133485D01*
X562470Y133124D01*
X562616Y132759D01*
X562753Y132391D01*
X562880Y132020D01*
X562999Y131646D01*
X563108Y131268D01*
X563209Y130889D01*
X563299Y130507D01*
X563381Y130122D01*
X563452Y129736D01*
X563515Y129349D01*
X563568Y128960D01*
X563611Y128569D01*
X563645Y128178D01*
X563669Y127786D01*
X563683Y127394D01*
X563688Y127001D01*
X563683Y126608D01*
X563669Y126216D01*
X563645Y125824D01*
X563611Y125433D01*
X563568Y125042D01*
X563515Y124653D01*
X563452Y124266D01*
X563381Y123880D01*
X563299Y123495D01*
X563209Y123113D01*
X563108Y122734D01*
X562999Y122356D01*
X562880Y121982D01*
X562753Y121611D01*
X562616Y121243D01*
X562470Y120878D01*
X562315Y120517D01*
X562152Y120160D01*
X561980Y119807D01*
X561799Y119459D01*
X561609Y119115D01*
X561412Y118775D01*
X561206Y118441D01*
X560992Y118112D01*
X560769Y117788D01*
X560539Y117470D01*
X560302Y117157D01*
X560056Y116851D01*
X559803Y116550D01*
X559543Y116256D01*
X559276Y115968D01*
X559002Y115687D01*
X558721Y115413D01*
X558433Y115146D01*
X558139Y114886D01*
X557838Y114633D01*
X557532Y114387D01*
X557219Y114150D01*
X556901Y113920D01*
X556577Y113697D01*
X556248Y113483D01*
X555914Y113277D01*
X555574Y113080D01*
X555230Y112890D01*
X554882Y112709D01*
X554529Y112537D01*
X554172Y112374D01*
X553811Y112219D01*
X553446Y112073D01*
X553078Y111936D01*
X552707Y111809D01*
X552333Y111690D01*
X551955Y111581D01*
X551576Y111480D01*
X551194Y111390D01*
X550809Y111308D01*
X550423Y111237D01*
X550036Y111174D01*
X549647Y111121D01*
X549256Y111078D01*
X548865Y111044D01*
X548473Y111020D01*
X548081Y111006D01*
X547688Y111001D01*
X547295Y111006D01*
X546903Y111020D01*
X546511Y111044D01*
X546120Y111078D01*
X545729Y111121D01*
X545340Y111174D01*
X544953Y111237D01*
X544567Y111308D01*
X544182Y111390D01*
X543800Y111480D01*
X543421Y111581D01*
X543043Y111690D01*
X542669Y111809D01*
X542298Y111936D01*
X541930Y112073D01*
X541565Y112219D01*
X541204Y112374D01*
X540847Y112537D01*
X540494Y112709D01*
X540146Y112890D01*
X539802Y113080D01*
X539462Y113277D01*
X539128Y113483D01*
X538799Y113697D01*
X538475Y113920D01*
X538157Y114150D01*
X537844Y114387D01*
X537538Y114633D01*
X537237Y114886D01*
X536943Y115146D01*
X536655Y115413D01*
X536374Y115687D01*
X536100Y115968D01*
X535833Y116256D01*
X535573Y116550D01*
X535320Y116851D01*
X535074Y117157D01*
X534837Y117470D01*
X534607Y117788D01*
X534384Y118112D01*
X534170Y118441D01*
X533964Y118775D01*
X533767Y119115D01*
X533577Y119459D01*
X533396Y119807D01*
X533224Y120160D01*
X533061Y120517D01*
X532906Y120878D01*
X532760Y121243D01*
X532623Y121611D01*
X532496Y121982D01*
X532377Y122356D01*
X532268Y122734D01*
X532167Y123113D01*
X532077Y123495D01*
X531995Y123880D01*
X531924Y124266D01*
X531861Y124653D01*
X531808Y125042D01*
X531765Y125433D01*
X531731Y125824D01*
X531707Y126216D01*
X531693Y126608D01*
X531688Y127001D01*
D13*
X566041Y116293D02*
X571634Y116293D01*
X566041Y116293D02*
X566041Y120022D01*
X571634Y121906D02*
X571634Y125635D01*
X571634Y121906D02*
X566041Y121906D01*
X566041Y125635D01*
X568837Y123770D02*
X568837Y121906D01*
X566041Y127519D02*
X571634Y127519D01*
X566041Y127519D02*
X566041Y130316D01*
X566973Y131248D01*
X570702Y131248D01*
X571634Y130316D01*
X571634Y127519D01*
X571634Y133132D02*
X571634Y136861D01*
X571634Y133132D02*
X568837Y133132D01*
X569770Y134997D01*
X569770Y135929D01*
X568837Y136861D01*
X566973Y136861D01*
X566041Y135929D01*
X566041Y134064D01*
X566973Y133132D01*
D10*
X459388Y114000D02*
X446388Y114000D01*
X446388Y140000D02*
X452888Y140000D01*
X417388Y127000D02*
X417393Y127393D01*
X417407Y127785D01*
X417431Y128177D01*
X417465Y128568D01*
X417508Y128959D01*
X417561Y129348D01*
X417624Y129735D01*
X417695Y130121D01*
X417777Y130506D01*
X417867Y130888D01*
X417968Y131267D01*
X418077Y131645D01*
X418196Y132019D01*
X418323Y132390D01*
X418460Y132758D01*
X418606Y133123D01*
X418761Y133484D01*
X418924Y133841D01*
X419096Y134194D01*
X419277Y134542D01*
X419467Y134886D01*
X419664Y135226D01*
X419870Y135560D01*
X420084Y135889D01*
X420307Y136213D01*
X420537Y136531D01*
X420774Y136844D01*
X421020Y137150D01*
X421273Y137451D01*
X421533Y137745D01*
X421800Y138033D01*
X422074Y138314D01*
X422355Y138588D01*
X422643Y138855D01*
X422937Y139115D01*
X423238Y139368D01*
X423544Y139614D01*
X423857Y139851D01*
X424175Y140081D01*
X424499Y140304D01*
X424828Y140518D01*
X425162Y140724D01*
X425502Y140921D01*
X425846Y141111D01*
X426194Y141292D01*
X426547Y141464D01*
X426904Y141627D01*
X427265Y141782D01*
X427630Y141928D01*
X427998Y142065D01*
X428369Y142192D01*
X428743Y142311D01*
X429121Y142420D01*
X429500Y142521D01*
X429882Y142611D01*
X430267Y142693D01*
X430653Y142764D01*
X431040Y142827D01*
X431429Y142880D01*
X431820Y142923D01*
X432211Y142957D01*
X432603Y142981D01*
X432995Y142995D01*
X433388Y143000D01*
X433781Y142995D01*
X434173Y142981D01*
X434565Y142957D01*
X434956Y142923D01*
X435347Y142880D01*
X435736Y142827D01*
X436123Y142764D01*
X436509Y142693D01*
X436894Y142611D01*
X437276Y142521D01*
X437655Y142420D01*
X438033Y142311D01*
X438407Y142192D01*
X438778Y142065D01*
X439146Y141928D01*
X439511Y141782D01*
X439872Y141627D01*
X440229Y141464D01*
X440582Y141292D01*
X440930Y141111D01*
X441274Y140921D01*
X441614Y140724D01*
X441948Y140518D01*
X442277Y140304D01*
X442601Y140081D01*
X442919Y139851D01*
X443232Y139614D01*
X443538Y139368D01*
X443839Y139115D01*
X444133Y138855D01*
X444421Y138588D01*
X444702Y138314D01*
X444976Y138033D01*
X445243Y137745D01*
X445503Y137451D01*
X445756Y137150D01*
X446002Y136844D01*
X446239Y136531D01*
X446469Y136213D01*
X446692Y135889D01*
X446906Y135560D01*
X447112Y135226D01*
X447309Y134886D01*
X447499Y134542D01*
X447680Y134194D01*
X447852Y133841D01*
X448015Y133484D01*
X448170Y133123D01*
X448316Y132758D01*
X448453Y132390D01*
X448580Y132019D01*
X448699Y131645D01*
X448808Y131267D01*
X448909Y130888D01*
X448999Y130506D01*
X449081Y130121D01*
X449152Y129735D01*
X449215Y129348D01*
X449268Y128959D01*
X449311Y128568D01*
X449345Y128177D01*
X449369Y127785D01*
X449383Y127393D01*
X449388Y127000D01*
X449383Y126607D01*
X449369Y126215D01*
X449345Y125823D01*
X449311Y125432D01*
X449268Y125041D01*
X449215Y124652D01*
X449152Y124265D01*
X449081Y123879D01*
X448999Y123494D01*
X448909Y123112D01*
X448808Y122733D01*
X448699Y122355D01*
X448580Y121981D01*
X448453Y121610D01*
X448316Y121242D01*
X448170Y120877D01*
X448015Y120516D01*
X447852Y120159D01*
X447680Y119806D01*
X447499Y119458D01*
X447309Y119114D01*
X447112Y118774D01*
X446906Y118440D01*
X446692Y118111D01*
X446469Y117787D01*
X446239Y117469D01*
X446002Y117156D01*
X445756Y116850D01*
X445503Y116549D01*
X445243Y116255D01*
X444976Y115967D01*
X444702Y115686D01*
X444421Y115412D01*
X444133Y115145D01*
X443839Y114885D01*
X443538Y114632D01*
X443232Y114386D01*
X442919Y114149D01*
X442601Y113919D01*
X442277Y113696D01*
X441948Y113482D01*
X441614Y113276D01*
X441274Y113079D01*
X440930Y112889D01*
X440582Y112708D01*
X440229Y112536D01*
X439872Y112373D01*
X439511Y112218D01*
X439146Y112072D01*
X438778Y111935D01*
X438407Y111808D01*
X438033Y111689D01*
X437655Y111580D01*
X437276Y111479D01*
X436894Y111389D01*
X436509Y111307D01*
X436123Y111236D01*
X435736Y111173D01*
X435347Y111120D01*
X434956Y111077D01*
X434565Y111043D01*
X434173Y111019D01*
X433781Y111005D01*
X433388Y111000D01*
X432995Y111005D01*
X432603Y111019D01*
X432211Y111043D01*
X431820Y111077D01*
X431429Y111120D01*
X431040Y111173D01*
X430653Y111236D01*
X430267Y111307D01*
X429882Y111389D01*
X429500Y111479D01*
X429121Y111580D01*
X428743Y111689D01*
X428369Y111808D01*
X427998Y111935D01*
X427630Y112072D01*
X427265Y112218D01*
X426904Y112373D01*
X426547Y112536D01*
X426194Y112708D01*
X425846Y112889D01*
X425502Y113079D01*
X425162Y113276D01*
X424828Y113482D01*
X424499Y113696D01*
X424175Y113919D01*
X423857Y114149D01*
X423544Y114386D01*
X423238Y114632D01*
X422937Y114885D01*
X422643Y115145D01*
X422355Y115412D01*
X422074Y115686D01*
X421800Y115967D01*
X421533Y116255D01*
X421273Y116549D01*
X421020Y116850D01*
X420774Y117156D01*
X420537Y117469D01*
X420307Y117787D01*
X420084Y118111D01*
X419870Y118440D01*
X419664Y118774D01*
X419467Y119114D01*
X419277Y119458D01*
X419096Y119806D01*
X418924Y120159D01*
X418761Y120516D01*
X418606Y120877D01*
X418460Y121242D01*
X418323Y121610D01*
X418196Y121981D01*
X418077Y122355D01*
X417968Y122733D01*
X417867Y123112D01*
X417777Y123494D01*
X417695Y123879D01*
X417624Y124265D01*
X417561Y124652D01*
X417508Y125041D01*
X417465Y125432D01*
X417431Y125823D01*
X417407Y126215D01*
X417393Y126607D01*
X417388Y127000D01*
D13*
X451740Y116292D02*
X457333Y116292D01*
X451740Y116292D02*
X451740Y120021D01*
X457333Y121905D02*
X457333Y125634D01*
X457333Y121905D02*
X451740Y121905D01*
X451740Y125634D01*
X454536Y123769D02*
X454536Y121905D01*
X451740Y127518D02*
X457333Y127518D01*
X451740Y127518D02*
X451740Y130315D01*
X452672Y131247D01*
X456401Y131247D01*
X457333Y130315D01*
X457333Y127518D01*
X451740Y133131D02*
X451740Y136860D01*
X451740Y133131D02*
X455469Y136860D01*
X456401Y136860D01*
X457333Y135928D01*
X457333Y134063D01*
X456401Y133131D01*
D10*
X345088Y114000D02*
X332088Y114000D01*
X332088Y140000D02*
X338588Y140000D01*
X303088Y127000D02*
X303093Y127393D01*
X303107Y127785D01*
X303131Y128177D01*
X303165Y128568D01*
X303208Y128959D01*
X303261Y129348D01*
X303324Y129735D01*
X303395Y130121D01*
X303477Y130506D01*
X303567Y130888D01*
X303668Y131267D01*
X303777Y131645D01*
X303896Y132019D01*
X304023Y132390D01*
X304160Y132758D01*
X304306Y133123D01*
X304461Y133484D01*
X304624Y133841D01*
X304796Y134194D01*
X304977Y134542D01*
X305167Y134886D01*
X305364Y135226D01*
X305570Y135560D01*
X305784Y135889D01*
X306007Y136213D01*
X306237Y136531D01*
X306474Y136844D01*
X306720Y137150D01*
X306973Y137451D01*
X307233Y137745D01*
X307500Y138033D01*
X307774Y138314D01*
X308055Y138588D01*
X308343Y138855D01*
X308637Y139115D01*
X308938Y139368D01*
X309244Y139614D01*
X309557Y139851D01*
X309875Y140081D01*
X310199Y140304D01*
X310528Y140518D01*
X310862Y140724D01*
X311202Y140921D01*
X311546Y141111D01*
X311894Y141292D01*
X312247Y141464D01*
X312604Y141627D01*
X312965Y141782D01*
X313330Y141928D01*
X313698Y142065D01*
X314069Y142192D01*
X314443Y142311D01*
X314821Y142420D01*
X315200Y142521D01*
X315582Y142611D01*
X315967Y142693D01*
X316353Y142764D01*
X316740Y142827D01*
X317129Y142880D01*
X317520Y142923D01*
X317911Y142957D01*
X318303Y142981D01*
X318695Y142995D01*
X319088Y143000D01*
X319481Y142995D01*
X319873Y142981D01*
X320265Y142957D01*
X320656Y142923D01*
X321047Y142880D01*
X321436Y142827D01*
X321823Y142764D01*
X322209Y142693D01*
X322594Y142611D01*
X322976Y142521D01*
X323355Y142420D01*
X323733Y142311D01*
X324107Y142192D01*
X324478Y142065D01*
X324846Y141928D01*
X325211Y141782D01*
X325572Y141627D01*
X325929Y141464D01*
X326282Y141292D01*
X326630Y141111D01*
X326974Y140921D01*
X327314Y140724D01*
X327648Y140518D01*
X327977Y140304D01*
X328301Y140081D01*
X328619Y139851D01*
X328932Y139614D01*
X329238Y139368D01*
X329539Y139115D01*
X329833Y138855D01*
X330121Y138588D01*
X330402Y138314D01*
X330676Y138033D01*
X330943Y137745D01*
X331203Y137451D01*
X331456Y137150D01*
X331702Y136844D01*
X331939Y136531D01*
X332169Y136213D01*
X332392Y135889D01*
X332606Y135560D01*
X332812Y135226D01*
X333009Y134886D01*
X333199Y134542D01*
X333380Y134194D01*
X333552Y133841D01*
X333715Y133484D01*
X333870Y133123D01*
X334016Y132758D01*
X334153Y132390D01*
X334280Y132019D01*
X334399Y131645D01*
X334508Y131267D01*
X334609Y130888D01*
X334699Y130506D01*
X334781Y130121D01*
X334852Y129735D01*
X334915Y129348D01*
X334968Y128959D01*
X335011Y128568D01*
X335045Y128177D01*
X335069Y127785D01*
X335083Y127393D01*
X335088Y127000D01*
X335083Y126607D01*
X335069Y126215D01*
X335045Y125823D01*
X335011Y125432D01*
X334968Y125041D01*
X334915Y124652D01*
X334852Y124265D01*
X334781Y123879D01*
X334699Y123494D01*
X334609Y123112D01*
X334508Y122733D01*
X334399Y122355D01*
X334280Y121981D01*
X334153Y121610D01*
X334016Y121242D01*
X333870Y120877D01*
X333715Y120516D01*
X333552Y120159D01*
X333380Y119806D01*
X333199Y119458D01*
X333009Y119114D01*
X332812Y118774D01*
X332606Y118440D01*
X332392Y118111D01*
X332169Y117787D01*
X331939Y117469D01*
X331702Y117156D01*
X331456Y116850D01*
X331203Y116549D01*
X330943Y116255D01*
X330676Y115967D01*
X330402Y115686D01*
X330121Y115412D01*
X329833Y115145D01*
X329539Y114885D01*
X329238Y114632D01*
X328932Y114386D01*
X328619Y114149D01*
X328301Y113919D01*
X327977Y113696D01*
X327648Y113482D01*
X327314Y113276D01*
X326974Y113079D01*
X326630Y112889D01*
X326282Y112708D01*
X325929Y112536D01*
X325572Y112373D01*
X325211Y112218D01*
X324846Y112072D01*
X324478Y111935D01*
X324107Y111808D01*
X323733Y111689D01*
X323355Y111580D01*
X322976Y111479D01*
X322594Y111389D01*
X322209Y111307D01*
X321823Y111236D01*
X321436Y111173D01*
X321047Y111120D01*
X320656Y111077D01*
X320265Y111043D01*
X319873Y111019D01*
X319481Y111005D01*
X319088Y111000D01*
X318695Y111005D01*
X318303Y111019D01*
X317911Y111043D01*
X317520Y111077D01*
X317129Y111120D01*
X316740Y111173D01*
X316353Y111236D01*
X315967Y111307D01*
X315582Y111389D01*
X315200Y111479D01*
X314821Y111580D01*
X314443Y111689D01*
X314069Y111808D01*
X313698Y111935D01*
X313330Y112072D01*
X312965Y112218D01*
X312604Y112373D01*
X312247Y112536D01*
X311894Y112708D01*
X311546Y112889D01*
X311202Y113079D01*
X310862Y113276D01*
X310528Y113482D01*
X310199Y113696D01*
X309875Y113919D01*
X309557Y114149D01*
X309244Y114386D01*
X308938Y114632D01*
X308637Y114885D01*
X308343Y115145D01*
X308055Y115412D01*
X307774Y115686D01*
X307500Y115967D01*
X307233Y116255D01*
X306973Y116549D01*
X306720Y116850D01*
X306474Y117156D01*
X306237Y117469D01*
X306007Y117787D01*
X305784Y118111D01*
X305570Y118440D01*
X305364Y118774D01*
X305167Y119114D01*
X304977Y119458D01*
X304796Y119806D01*
X304624Y120159D01*
X304461Y120516D01*
X304306Y120877D01*
X304160Y121242D01*
X304023Y121610D01*
X303896Y121981D01*
X303777Y122355D01*
X303668Y122733D01*
X303567Y123112D01*
X303477Y123494D01*
X303395Y123879D01*
X303324Y124265D01*
X303261Y124652D01*
X303208Y125041D01*
X303165Y125432D01*
X303131Y125823D01*
X303107Y126215D01*
X303093Y126607D01*
X303088Y127000D01*
D13*
X337439Y116292D02*
X343032Y116292D01*
X337439Y116292D02*
X337439Y120021D01*
X343032Y121905D02*
X343032Y125634D01*
X343032Y121905D02*
X337439Y121905D01*
X337439Y125634D01*
X340235Y123769D02*
X340235Y121905D01*
X337439Y127518D02*
X343032Y127518D01*
X337439Y127518D02*
X337439Y130315D01*
X338371Y131247D01*
X342100Y131247D01*
X343032Y130315D01*
X343032Y127518D01*
X342100Y133131D02*
X343032Y134063D01*
X343032Y135928D01*
X342100Y136860D01*
X341168Y136860D01*
X340235Y135928D01*
X340235Y134996D01*
X340235Y135928D02*
X339303Y136860D01*
X338371Y136860D01*
X337439Y135928D01*
X337439Y134063D01*
X338371Y133131D01*
D10*
X230788Y114001D02*
X217788Y114001D01*
X217788Y140001D02*
X224288Y140001D01*
X188788Y127001D02*
X188793Y127394D01*
X188807Y127786D01*
X188831Y128178D01*
X188865Y128569D01*
X188908Y128960D01*
X188961Y129349D01*
X189024Y129736D01*
X189095Y130122D01*
X189177Y130507D01*
X189267Y130889D01*
X189368Y131268D01*
X189477Y131646D01*
X189596Y132020D01*
X189723Y132391D01*
X189860Y132759D01*
X190006Y133124D01*
X190161Y133485D01*
X190324Y133842D01*
X190496Y134195D01*
X190677Y134543D01*
X190867Y134887D01*
X191064Y135227D01*
X191270Y135561D01*
X191484Y135890D01*
X191707Y136214D01*
X191937Y136532D01*
X192174Y136845D01*
X192420Y137151D01*
X192673Y137452D01*
X192933Y137746D01*
X193200Y138034D01*
X193474Y138315D01*
X193755Y138589D01*
X194043Y138856D01*
X194337Y139116D01*
X194638Y139369D01*
X194944Y139615D01*
X195257Y139852D01*
X195575Y140082D01*
X195899Y140305D01*
X196228Y140519D01*
X196562Y140725D01*
X196902Y140922D01*
X197246Y141112D01*
X197594Y141293D01*
X197947Y141465D01*
X198304Y141628D01*
X198665Y141783D01*
X199030Y141929D01*
X199398Y142066D01*
X199769Y142193D01*
X200143Y142312D01*
X200521Y142421D01*
X200900Y142522D01*
X201282Y142612D01*
X201667Y142694D01*
X202053Y142765D01*
X202440Y142828D01*
X202829Y142881D01*
X203220Y142924D01*
X203611Y142958D01*
X204003Y142982D01*
X204395Y142996D01*
X204788Y143001D01*
X205181Y142996D01*
X205573Y142982D01*
X205965Y142958D01*
X206356Y142924D01*
X206747Y142881D01*
X207136Y142828D01*
X207523Y142765D01*
X207909Y142694D01*
X208294Y142612D01*
X208676Y142522D01*
X209055Y142421D01*
X209433Y142312D01*
X209807Y142193D01*
X210178Y142066D01*
X210546Y141929D01*
X210911Y141783D01*
X211272Y141628D01*
X211629Y141465D01*
X211982Y141293D01*
X212330Y141112D01*
X212674Y140922D01*
X213014Y140725D01*
X213348Y140519D01*
X213677Y140305D01*
X214001Y140082D01*
X214319Y139852D01*
X214632Y139615D01*
X214938Y139369D01*
X215239Y139116D01*
X215533Y138856D01*
X215821Y138589D01*
X216102Y138315D01*
X216376Y138034D01*
X216643Y137746D01*
X216903Y137452D01*
X217156Y137151D01*
X217402Y136845D01*
X217639Y136532D01*
X217869Y136214D01*
X218092Y135890D01*
X218306Y135561D01*
X218512Y135227D01*
X218709Y134887D01*
X218899Y134543D01*
X219080Y134195D01*
X219252Y133842D01*
X219415Y133485D01*
X219570Y133124D01*
X219716Y132759D01*
X219853Y132391D01*
X219980Y132020D01*
X220099Y131646D01*
X220208Y131268D01*
X220309Y130889D01*
X220399Y130507D01*
X220481Y130122D01*
X220552Y129736D01*
X220615Y129349D01*
X220668Y128960D01*
X220711Y128569D01*
X220745Y128178D01*
X220769Y127786D01*
X220783Y127394D01*
X220788Y127001D01*
X220783Y126608D01*
X220769Y126216D01*
X220745Y125824D01*
X220711Y125433D01*
X220668Y125042D01*
X220615Y124653D01*
X220552Y124266D01*
X220481Y123880D01*
X220399Y123495D01*
X220309Y123113D01*
X220208Y122734D01*
X220099Y122356D01*
X219980Y121982D01*
X219853Y121611D01*
X219716Y121243D01*
X219570Y120878D01*
X219415Y120517D01*
X219252Y120160D01*
X219080Y119807D01*
X218899Y119459D01*
X218709Y119115D01*
X218512Y118775D01*
X218306Y118441D01*
X218092Y118112D01*
X217869Y117788D01*
X217639Y117470D01*
X217402Y117157D01*
X217156Y116851D01*
X216903Y116550D01*
X216643Y116256D01*
X216376Y115968D01*
X216102Y115687D01*
X215821Y115413D01*
X215533Y115146D01*
X215239Y114886D01*
X214938Y114633D01*
X214632Y114387D01*
X214319Y114150D01*
X214001Y113920D01*
X213677Y113697D01*
X213348Y113483D01*
X213014Y113277D01*
X212674Y113080D01*
X212330Y112890D01*
X211982Y112709D01*
X211629Y112537D01*
X211272Y112374D01*
X210911Y112219D01*
X210546Y112073D01*
X210178Y111936D01*
X209807Y111809D01*
X209433Y111690D01*
X209055Y111581D01*
X208676Y111480D01*
X208294Y111390D01*
X207909Y111308D01*
X207523Y111237D01*
X207136Y111174D01*
X206747Y111121D01*
X206356Y111078D01*
X205965Y111044D01*
X205573Y111020D01*
X205181Y111006D01*
X204788Y111001D01*
X204395Y111006D01*
X204003Y111020D01*
X203611Y111044D01*
X203220Y111078D01*
X202829Y111121D01*
X202440Y111174D01*
X202053Y111237D01*
X201667Y111308D01*
X201282Y111390D01*
X200900Y111480D01*
X200521Y111581D01*
X200143Y111690D01*
X199769Y111809D01*
X199398Y111936D01*
X199030Y112073D01*
X198665Y112219D01*
X198304Y112374D01*
X197947Y112537D01*
X197594Y112709D01*
X197246Y112890D01*
X196902Y113080D01*
X196562Y113277D01*
X196228Y113483D01*
X195899Y113697D01*
X195575Y113920D01*
X195257Y114150D01*
X194944Y114387D01*
X194638Y114633D01*
X194337Y114886D01*
X194043Y115146D01*
X193755Y115413D01*
X193474Y115687D01*
X193200Y115968D01*
X192933Y116256D01*
X192673Y116550D01*
X192420Y116851D01*
X192174Y117157D01*
X191937Y117470D01*
X191707Y117788D01*
X191484Y118112D01*
X191270Y118441D01*
X191064Y118775D01*
X190867Y119115D01*
X190677Y119459D01*
X190496Y119807D01*
X190324Y120160D01*
X190161Y120517D01*
X190006Y120878D01*
X189860Y121243D01*
X189723Y121611D01*
X189596Y121982D01*
X189477Y122356D01*
X189368Y122734D01*
X189267Y123113D01*
X189177Y123495D01*
X189095Y123880D01*
X189024Y124266D01*
X188961Y124653D01*
X188908Y125042D01*
X188865Y125433D01*
X188831Y125824D01*
X188807Y126216D01*
X188793Y126608D01*
X188788Y127001D01*
D13*
X223141Y116292D02*
X228734Y116292D01*
X223141Y116292D02*
X223141Y120021D01*
X228734Y121905D02*
X228734Y125634D01*
X228734Y121905D02*
X223141Y121905D01*
X223141Y125634D01*
X225937Y123769D02*
X225937Y121905D01*
X223141Y127518D02*
X228734Y127518D01*
X223141Y127518D02*
X223141Y130315D01*
X224073Y131247D01*
X227802Y131247D01*
X228734Y130315D01*
X228734Y127518D01*
X227802Y134996D02*
X228734Y136860D01*
X227802Y134996D02*
X225937Y133131D01*
X224073Y133131D01*
X223141Y134063D01*
X223141Y135928D01*
X224073Y136860D01*
X225005Y136860D01*
X225937Y135928D01*
X225937Y133131D01*
D10*
X116488Y114000D02*
X103488Y114000D01*
X103488Y140000D02*
X109988Y140000D01*
X74488Y127000D02*
X74493Y127393D01*
X74507Y127785D01*
X74531Y128177D01*
X74565Y128568D01*
X74608Y128959D01*
X74661Y129348D01*
X74724Y129735D01*
X74795Y130121D01*
X74877Y130506D01*
X74967Y130888D01*
X75068Y131267D01*
X75177Y131645D01*
X75296Y132019D01*
X75423Y132390D01*
X75560Y132758D01*
X75706Y133123D01*
X75861Y133484D01*
X76024Y133841D01*
X76196Y134194D01*
X76377Y134542D01*
X76567Y134886D01*
X76764Y135226D01*
X76970Y135560D01*
X77184Y135889D01*
X77407Y136213D01*
X77637Y136531D01*
X77874Y136844D01*
X78120Y137150D01*
X78373Y137451D01*
X78633Y137745D01*
X78900Y138033D01*
X79174Y138314D01*
X79455Y138588D01*
X79743Y138855D01*
X80037Y139115D01*
X80338Y139368D01*
X80644Y139614D01*
X80957Y139851D01*
X81275Y140081D01*
X81599Y140304D01*
X81928Y140518D01*
X82262Y140724D01*
X82602Y140921D01*
X82946Y141111D01*
X83294Y141292D01*
X83647Y141464D01*
X84004Y141627D01*
X84365Y141782D01*
X84730Y141928D01*
X85098Y142065D01*
X85469Y142192D01*
X85843Y142311D01*
X86221Y142420D01*
X86600Y142521D01*
X86982Y142611D01*
X87367Y142693D01*
X87753Y142764D01*
X88140Y142827D01*
X88529Y142880D01*
X88920Y142923D01*
X89311Y142957D01*
X89703Y142981D01*
X90095Y142995D01*
X90488Y143000D01*
X90881Y142995D01*
X91273Y142981D01*
X91665Y142957D01*
X92056Y142923D01*
X92447Y142880D01*
X92836Y142827D01*
X93223Y142764D01*
X93609Y142693D01*
X93994Y142611D01*
X94376Y142521D01*
X94755Y142420D01*
X95133Y142311D01*
X95507Y142192D01*
X95878Y142065D01*
X96246Y141928D01*
X96611Y141782D01*
X96972Y141627D01*
X97329Y141464D01*
X97682Y141292D01*
X98030Y141111D01*
X98374Y140921D01*
X98714Y140724D01*
X99048Y140518D01*
X99377Y140304D01*
X99701Y140081D01*
X100019Y139851D01*
X100332Y139614D01*
X100638Y139368D01*
X100939Y139115D01*
X101233Y138855D01*
X101521Y138588D01*
X101802Y138314D01*
X102076Y138033D01*
X102343Y137745D01*
X102603Y137451D01*
X102856Y137150D01*
X103102Y136844D01*
X103339Y136531D01*
X103569Y136213D01*
X103792Y135889D01*
X104006Y135560D01*
X104212Y135226D01*
X104409Y134886D01*
X104599Y134542D01*
X104780Y134194D01*
X104952Y133841D01*
X105115Y133484D01*
X105270Y133123D01*
X105416Y132758D01*
X105553Y132390D01*
X105680Y132019D01*
X105799Y131645D01*
X105908Y131267D01*
X106009Y130888D01*
X106099Y130506D01*
X106181Y130121D01*
X106252Y129735D01*
X106315Y129348D01*
X106368Y128959D01*
X106411Y128568D01*
X106445Y128177D01*
X106469Y127785D01*
X106483Y127393D01*
X106488Y127000D01*
X106483Y126607D01*
X106469Y126215D01*
X106445Y125823D01*
X106411Y125432D01*
X106368Y125041D01*
X106315Y124652D01*
X106252Y124265D01*
X106181Y123879D01*
X106099Y123494D01*
X106009Y123112D01*
X105908Y122733D01*
X105799Y122355D01*
X105680Y121981D01*
X105553Y121610D01*
X105416Y121242D01*
X105270Y120877D01*
X105115Y120516D01*
X104952Y120159D01*
X104780Y119806D01*
X104599Y119458D01*
X104409Y119114D01*
X104212Y118774D01*
X104006Y118440D01*
X103792Y118111D01*
X103569Y117787D01*
X103339Y117469D01*
X103102Y117156D01*
X102856Y116850D01*
X102603Y116549D01*
X102343Y116255D01*
X102076Y115967D01*
X101802Y115686D01*
X101521Y115412D01*
X101233Y115145D01*
X100939Y114885D01*
X100638Y114632D01*
X100332Y114386D01*
X100019Y114149D01*
X99701Y113919D01*
X99377Y113696D01*
X99048Y113482D01*
X98714Y113276D01*
X98374Y113079D01*
X98030Y112889D01*
X97682Y112708D01*
X97329Y112536D01*
X96972Y112373D01*
X96611Y112218D01*
X96246Y112072D01*
X95878Y111935D01*
X95507Y111808D01*
X95133Y111689D01*
X94755Y111580D01*
X94376Y111479D01*
X93994Y111389D01*
X93609Y111307D01*
X93223Y111236D01*
X92836Y111173D01*
X92447Y111120D01*
X92056Y111077D01*
X91665Y111043D01*
X91273Y111019D01*
X90881Y111005D01*
X90488Y111000D01*
X90095Y111005D01*
X89703Y111019D01*
X89311Y111043D01*
X88920Y111077D01*
X88529Y111120D01*
X88140Y111173D01*
X87753Y111236D01*
X87367Y111307D01*
X86982Y111389D01*
X86600Y111479D01*
X86221Y111580D01*
X85843Y111689D01*
X85469Y111808D01*
X85098Y111935D01*
X84730Y112072D01*
X84365Y112218D01*
X84004Y112373D01*
X83647Y112536D01*
X83294Y112708D01*
X82946Y112889D01*
X82602Y113079D01*
X82262Y113276D01*
X81928Y113482D01*
X81599Y113696D01*
X81275Y113919D01*
X80957Y114149D01*
X80644Y114386D01*
X80338Y114632D01*
X80037Y114885D01*
X79743Y115145D01*
X79455Y115412D01*
X79174Y115686D01*
X78900Y115967D01*
X78633Y116255D01*
X78373Y116549D01*
X78120Y116850D01*
X77874Y117156D01*
X77637Y117469D01*
X77407Y117787D01*
X77184Y118111D01*
X76970Y118440D01*
X76764Y118774D01*
X76567Y119114D01*
X76377Y119458D01*
X76196Y119806D01*
X76024Y120159D01*
X75861Y120516D01*
X75706Y120877D01*
X75560Y121242D01*
X75423Y121610D01*
X75296Y121981D01*
X75177Y122355D01*
X75068Y122733D01*
X74967Y123112D01*
X74877Y123494D01*
X74795Y123879D01*
X74724Y124265D01*
X74661Y124652D01*
X74608Y125041D01*
X74565Y125432D01*
X74531Y125823D01*
X74507Y126215D01*
X74493Y126607D01*
X74488Y127000D01*
D13*
X108839Y116292D02*
X114432Y116292D01*
X108839Y116292D02*
X108839Y120021D01*
X114432Y121905D02*
X114432Y125634D01*
X114432Y121905D02*
X108839Y121905D01*
X108839Y125634D01*
X111635Y123769D02*
X111635Y121905D01*
X108839Y127518D02*
X114432Y127518D01*
X108839Y127518D02*
X108839Y130315D01*
X109771Y131247D01*
X113500Y131247D01*
X114432Y130315D01*
X114432Y127518D01*
X114432Y135928D02*
X108839Y135928D01*
X111635Y133131D02*
X114432Y135928D01*
X111635Y136860D02*
X111635Y133131D01*
D12*
X153035Y793432D02*
X196215Y793432D01*
X196215Y854392D02*
X153035Y854392D01*
X205105Y834072D02*
X205105Y813932D01*
X144145Y813632D02*
X144145Y834072D01*
X156845Y823912D02*
X156850Y824348D01*
X156866Y824784D01*
X156893Y825220D01*
X156931Y825655D01*
X156979Y826088D01*
X157037Y826521D01*
X157107Y826952D01*
X157187Y827381D01*
X157277Y827808D01*
X157378Y828232D01*
X157489Y828654D01*
X157611Y829073D01*
X157742Y829489D01*
X157884Y829902D01*
X158036Y830311D01*
X158198Y830716D01*
X158370Y831117D01*
X158552Y831514D01*
X158743Y831906D01*
X158944Y832293D01*
X159155Y832676D01*
X159375Y833053D01*
X159604Y833424D01*
X159841Y833790D01*
X160088Y834150D01*
X160344Y834504D01*
X160608Y834851D01*
X160881Y835192D01*
X161162Y835525D01*
X161451Y835852D01*
X161748Y836172D01*
X162053Y836484D01*
X162365Y836789D01*
X162685Y837086D01*
X163012Y837375D01*
X163345Y837656D01*
X163686Y837929D01*
X164033Y838193D01*
X164387Y838449D01*
X164747Y838696D01*
X165113Y838933D01*
X165484Y839162D01*
X165861Y839382D01*
X166244Y839593D01*
X166631Y839794D01*
X167023Y839985D01*
X167420Y840167D01*
X167821Y840339D01*
X168226Y840501D01*
X168635Y840653D01*
X169048Y840795D01*
X169464Y840926D01*
X169883Y841048D01*
X170305Y841159D01*
X170729Y841260D01*
X171156Y841350D01*
X171585Y841430D01*
X172016Y841500D01*
X172449Y841558D01*
X172882Y841606D01*
X173317Y841644D01*
X173753Y841671D01*
X174189Y841687D01*
X174625Y841692D01*
X175061Y841687D01*
X175497Y841671D01*
X175933Y841644D01*
X176368Y841606D01*
X176801Y841558D01*
X177234Y841500D01*
X177665Y841430D01*
X178094Y841350D01*
X178521Y841260D01*
X178945Y841159D01*
X179367Y841048D01*
X179786Y840926D01*
X180202Y840795D01*
X180615Y840653D01*
X181024Y840501D01*
X181429Y840339D01*
X181830Y840167D01*
X182227Y839985D01*
X182619Y839794D01*
X183006Y839593D01*
X183389Y839382D01*
X183766Y839162D01*
X184137Y838933D01*
X184503Y838696D01*
X184863Y838449D01*
X185217Y838193D01*
X185564Y837929D01*
X185905Y837656D01*
X186238Y837375D01*
X186565Y837086D01*
X186885Y836789D01*
X187197Y836484D01*
X187502Y836172D01*
X187799Y835852D01*
X188088Y835525D01*
X188369Y835192D01*
X188642Y834851D01*
X188906Y834504D01*
X189162Y834150D01*
X189409Y833790D01*
X189646Y833424D01*
X189875Y833053D01*
X190095Y832676D01*
X190306Y832293D01*
X190507Y831906D01*
X190698Y831514D01*
X190880Y831117D01*
X191052Y830716D01*
X191214Y830311D01*
X191366Y829902D01*
X191508Y829489D01*
X191639Y829073D01*
X191761Y828654D01*
X191872Y828232D01*
X191973Y827808D01*
X192063Y827381D01*
X192143Y826952D01*
X192213Y826521D01*
X192271Y826088D01*
X192319Y825655D01*
X192357Y825220D01*
X192384Y824784D01*
X192400Y824348D01*
X192405Y823912D01*
X192400Y823476D01*
X192384Y823040D01*
X192357Y822604D01*
X192319Y822169D01*
X192271Y821736D01*
X192213Y821303D01*
X192143Y820872D01*
X192063Y820443D01*
X191973Y820016D01*
X191872Y819592D01*
X191761Y819170D01*
X191639Y818751D01*
X191508Y818335D01*
X191366Y817922D01*
X191214Y817513D01*
X191052Y817108D01*
X190880Y816707D01*
X190698Y816310D01*
X190507Y815918D01*
X190306Y815531D01*
X190095Y815148D01*
X189875Y814771D01*
X189646Y814400D01*
X189409Y814034D01*
X189162Y813674D01*
X188906Y813320D01*
X188642Y812973D01*
X188369Y812632D01*
X188088Y812299D01*
X187799Y811972D01*
X187502Y811652D01*
X187197Y811340D01*
X186885Y811035D01*
X186565Y810738D01*
X186238Y810449D01*
X185905Y810168D01*
X185564Y809895D01*
X185217Y809631D01*
X184863Y809375D01*
X184503Y809128D01*
X184137Y808891D01*
X183766Y808662D01*
X183389Y808442D01*
X183006Y808231D01*
X182619Y808030D01*
X182227Y807839D01*
X181830Y807657D01*
X181429Y807485D01*
X181024Y807323D01*
X180615Y807171D01*
X180202Y807029D01*
X179786Y806898D01*
X179367Y806776D01*
X178945Y806665D01*
X178521Y806564D01*
X178094Y806474D01*
X177665Y806394D01*
X177234Y806324D01*
X176801Y806266D01*
X176368Y806218D01*
X175933Y806180D01*
X175497Y806153D01*
X175061Y806137D01*
X174625Y806132D01*
X174189Y806137D01*
X173753Y806153D01*
X173317Y806180D01*
X172882Y806218D01*
X172449Y806266D01*
X172016Y806324D01*
X171585Y806394D01*
X171156Y806474D01*
X170729Y806564D01*
X170305Y806665D01*
X169883Y806776D01*
X169464Y806898D01*
X169048Y807029D01*
X168635Y807171D01*
X168226Y807323D01*
X167821Y807485D01*
X167420Y807657D01*
X167023Y807839D01*
X166631Y808030D01*
X166244Y808231D01*
X165861Y808442D01*
X165484Y808662D01*
X165113Y808891D01*
X164747Y809128D01*
X164387Y809375D01*
X164033Y809631D01*
X163686Y809895D01*
X163345Y810168D01*
X163012Y810449D01*
X162685Y810738D01*
X162365Y811035D01*
X162053Y811340D01*
X161748Y811652D01*
X161451Y811972D01*
X161162Y812299D01*
X160881Y812632D01*
X160608Y812973D01*
X160344Y813320D01*
X160088Y813674D01*
X159841Y814034D01*
X159604Y814400D01*
X159375Y814771D01*
X159155Y815148D01*
X158944Y815531D01*
X158743Y815918D01*
X158552Y816310D01*
X158370Y816707D01*
X158198Y817108D01*
X158036Y817513D01*
X157884Y817922D01*
X157742Y818335D01*
X157611Y818751D01*
X157489Y819170D01*
X157378Y819592D01*
X157277Y820016D01*
X157187Y820443D01*
X157107Y820872D01*
X157037Y821303D01*
X156979Y821736D01*
X156931Y822169D01*
X156893Y822604D01*
X156866Y823040D01*
X156850Y823476D01*
X156845Y823912D01*
D11*
X227831Y826650D02*
X229357Y828175D01*
X232407Y828175D01*
X233933Y826650D01*
X233933Y825124D01*
X232407Y823599D01*
X229357Y823599D01*
X227831Y822074D01*
X227831Y820548D01*
X229357Y819023D01*
X232407Y819023D01*
X233933Y820548D01*
X224577Y819023D02*
X224577Y828175D01*
X221527Y822074D02*
X224577Y819023D01*
X221527Y822074D02*
X218476Y819023D01*
X218476Y828175D01*
X215222Y828175D02*
X209121Y828175D01*
X215222Y828175D02*
X215222Y823599D01*
X212172Y825124D01*
X210646Y825124D01*
X209121Y823599D01*
X209121Y820548D01*
X210646Y819023D01*
X213697Y819023D01*
X215222Y820548D01*
D12*
X81915Y793432D02*
X38735Y793432D01*
X38735Y854392D02*
X81915Y854392D01*
X90805Y834072D02*
X90805Y813932D01*
X29845Y813632D02*
X29845Y834072D01*
X42545Y823912D02*
X42550Y824348D01*
X42566Y824784D01*
X42593Y825220D01*
X42631Y825655D01*
X42679Y826088D01*
X42737Y826521D01*
X42807Y826952D01*
X42887Y827381D01*
X42977Y827808D01*
X43078Y828232D01*
X43189Y828654D01*
X43311Y829073D01*
X43442Y829489D01*
X43584Y829902D01*
X43736Y830311D01*
X43898Y830716D01*
X44070Y831117D01*
X44252Y831514D01*
X44443Y831906D01*
X44644Y832293D01*
X44855Y832676D01*
X45075Y833053D01*
X45304Y833424D01*
X45541Y833790D01*
X45788Y834150D01*
X46044Y834504D01*
X46308Y834851D01*
X46581Y835192D01*
X46862Y835525D01*
X47151Y835852D01*
X47448Y836172D01*
X47753Y836484D01*
X48065Y836789D01*
X48385Y837086D01*
X48712Y837375D01*
X49045Y837656D01*
X49386Y837929D01*
X49733Y838193D01*
X50087Y838449D01*
X50447Y838696D01*
X50813Y838933D01*
X51184Y839162D01*
X51561Y839382D01*
X51944Y839593D01*
X52331Y839794D01*
X52723Y839985D01*
X53120Y840167D01*
X53521Y840339D01*
X53926Y840501D01*
X54335Y840653D01*
X54748Y840795D01*
X55164Y840926D01*
X55583Y841048D01*
X56005Y841159D01*
X56429Y841260D01*
X56856Y841350D01*
X57285Y841430D01*
X57716Y841500D01*
X58149Y841558D01*
X58582Y841606D01*
X59017Y841644D01*
X59453Y841671D01*
X59889Y841687D01*
X60325Y841692D01*
X60761Y841687D01*
X61197Y841671D01*
X61633Y841644D01*
X62068Y841606D01*
X62501Y841558D01*
X62934Y841500D01*
X63365Y841430D01*
X63794Y841350D01*
X64221Y841260D01*
X64645Y841159D01*
X65067Y841048D01*
X65486Y840926D01*
X65902Y840795D01*
X66315Y840653D01*
X66724Y840501D01*
X67129Y840339D01*
X67530Y840167D01*
X67927Y839985D01*
X68319Y839794D01*
X68706Y839593D01*
X69089Y839382D01*
X69466Y839162D01*
X69837Y838933D01*
X70203Y838696D01*
X70563Y838449D01*
X70917Y838193D01*
X71264Y837929D01*
X71605Y837656D01*
X71938Y837375D01*
X72265Y837086D01*
X72585Y836789D01*
X72897Y836484D01*
X73202Y836172D01*
X73499Y835852D01*
X73788Y835525D01*
X74069Y835192D01*
X74342Y834851D01*
X74606Y834504D01*
X74862Y834150D01*
X75109Y833790D01*
X75346Y833424D01*
X75575Y833053D01*
X75795Y832676D01*
X76006Y832293D01*
X76207Y831906D01*
X76398Y831514D01*
X76580Y831117D01*
X76752Y830716D01*
X76914Y830311D01*
X77066Y829902D01*
X77208Y829489D01*
X77339Y829073D01*
X77461Y828654D01*
X77572Y828232D01*
X77673Y827808D01*
X77763Y827381D01*
X77843Y826952D01*
X77913Y826521D01*
X77971Y826088D01*
X78019Y825655D01*
X78057Y825220D01*
X78084Y824784D01*
X78100Y824348D01*
X78105Y823912D01*
X78100Y823476D01*
X78084Y823040D01*
X78057Y822604D01*
X78019Y822169D01*
X77971Y821736D01*
X77913Y821303D01*
X77843Y820872D01*
X77763Y820443D01*
X77673Y820016D01*
X77572Y819592D01*
X77461Y819170D01*
X77339Y818751D01*
X77208Y818335D01*
X77066Y817922D01*
X76914Y817513D01*
X76752Y817108D01*
X76580Y816707D01*
X76398Y816310D01*
X76207Y815918D01*
X76006Y815531D01*
X75795Y815148D01*
X75575Y814771D01*
X75346Y814400D01*
X75109Y814034D01*
X74862Y813674D01*
X74606Y813320D01*
X74342Y812973D01*
X74069Y812632D01*
X73788Y812299D01*
X73499Y811972D01*
X73202Y811652D01*
X72897Y811340D01*
X72585Y811035D01*
X72265Y810738D01*
X71938Y810449D01*
X71605Y810168D01*
X71264Y809895D01*
X70917Y809631D01*
X70563Y809375D01*
X70203Y809128D01*
X69837Y808891D01*
X69466Y808662D01*
X69089Y808442D01*
X68706Y808231D01*
X68319Y808030D01*
X67927Y807839D01*
X67530Y807657D01*
X67129Y807485D01*
X66724Y807323D01*
X66315Y807171D01*
X65902Y807029D01*
X65486Y806898D01*
X65067Y806776D01*
X64645Y806665D01*
X64221Y806564D01*
X63794Y806474D01*
X63365Y806394D01*
X62934Y806324D01*
X62501Y806266D01*
X62068Y806218D01*
X61633Y806180D01*
X61197Y806153D01*
X60761Y806137D01*
X60325Y806132D01*
X59889Y806137D01*
X59453Y806153D01*
X59017Y806180D01*
X58582Y806218D01*
X58149Y806266D01*
X57716Y806324D01*
X57285Y806394D01*
X56856Y806474D01*
X56429Y806564D01*
X56005Y806665D01*
X55583Y806776D01*
X55164Y806898D01*
X54748Y807029D01*
X54335Y807171D01*
X53926Y807323D01*
X53521Y807485D01*
X53120Y807657D01*
X52723Y807839D01*
X52331Y808030D01*
X51944Y808231D01*
X51561Y808442D01*
X51184Y808662D01*
X50813Y808891D01*
X50447Y809128D01*
X50087Y809375D01*
X49733Y809631D01*
X49386Y809895D01*
X49045Y810168D01*
X48712Y810449D01*
X48385Y810738D01*
X48065Y811035D01*
X47753Y811340D01*
X47448Y811652D01*
X47151Y811972D01*
X46862Y812299D01*
X46581Y812632D01*
X46308Y812973D01*
X46044Y813320D01*
X45788Y813674D01*
X45541Y814034D01*
X45304Y814400D01*
X45075Y814771D01*
X44855Y815148D01*
X44644Y815531D01*
X44443Y815918D01*
X44252Y816310D01*
X44070Y816707D01*
X43898Y817108D01*
X43736Y817513D01*
X43584Y817922D01*
X43442Y818335D01*
X43311Y818751D01*
X43189Y819170D01*
X43078Y819592D01*
X42977Y820016D01*
X42887Y820443D01*
X42807Y820872D01*
X42737Y821303D01*
X42679Y821736D01*
X42631Y822169D01*
X42593Y822604D01*
X42566Y823040D01*
X42550Y823476D01*
X42545Y823912D01*
D11*
X111944Y826650D02*
X113470Y828175D01*
X116520Y828175D01*
X118046Y826650D01*
X118046Y825124D01*
X116520Y823599D01*
X113470Y823599D01*
X111944Y822074D01*
X111944Y820548D01*
X113470Y819023D01*
X116520Y819023D01*
X118046Y820548D01*
X108690Y819023D02*
X108690Y828175D01*
X105640Y822074D02*
X108690Y819023D01*
X105640Y822074D02*
X102589Y819023D01*
X102589Y828175D01*
X96285Y826650D02*
X93234Y828175D01*
X96285Y826650D02*
X99335Y823599D01*
X99335Y820548D01*
X97810Y819023D01*
X94759Y819023D01*
X93234Y820548D01*
X93234Y822074D01*
X94759Y823599D01*
X99335Y823599D01*
D12*
X610235Y793432D02*
X653415Y793432D01*
X653415Y854392D02*
X610235Y854392D01*
X662305Y834072D02*
X662305Y813932D01*
X601345Y813632D02*
X601345Y834072D01*
X614045Y823912D02*
X614050Y824348D01*
X614066Y824784D01*
X614093Y825220D01*
X614131Y825655D01*
X614179Y826088D01*
X614237Y826521D01*
X614307Y826952D01*
X614387Y827381D01*
X614477Y827808D01*
X614578Y828232D01*
X614689Y828654D01*
X614811Y829073D01*
X614942Y829489D01*
X615084Y829902D01*
X615236Y830311D01*
X615398Y830716D01*
X615570Y831117D01*
X615752Y831514D01*
X615943Y831906D01*
X616144Y832293D01*
X616355Y832676D01*
X616575Y833053D01*
X616804Y833424D01*
X617041Y833790D01*
X617288Y834150D01*
X617544Y834504D01*
X617808Y834851D01*
X618081Y835192D01*
X618362Y835525D01*
X618651Y835852D01*
X618948Y836172D01*
X619253Y836484D01*
X619565Y836789D01*
X619885Y837086D01*
X620212Y837375D01*
X620545Y837656D01*
X620886Y837929D01*
X621233Y838193D01*
X621587Y838449D01*
X621947Y838696D01*
X622313Y838933D01*
X622684Y839162D01*
X623061Y839382D01*
X623444Y839593D01*
X623831Y839794D01*
X624223Y839985D01*
X624620Y840167D01*
X625021Y840339D01*
X625426Y840501D01*
X625835Y840653D01*
X626248Y840795D01*
X626664Y840926D01*
X627083Y841048D01*
X627505Y841159D01*
X627929Y841260D01*
X628356Y841350D01*
X628785Y841430D01*
X629216Y841500D01*
X629649Y841558D01*
X630082Y841606D01*
X630517Y841644D01*
X630953Y841671D01*
X631389Y841687D01*
X631825Y841692D01*
X632261Y841687D01*
X632697Y841671D01*
X633133Y841644D01*
X633568Y841606D01*
X634001Y841558D01*
X634434Y841500D01*
X634865Y841430D01*
X635294Y841350D01*
X635721Y841260D01*
X636145Y841159D01*
X636567Y841048D01*
X636986Y840926D01*
X637402Y840795D01*
X637815Y840653D01*
X638224Y840501D01*
X638629Y840339D01*
X639030Y840167D01*
X639427Y839985D01*
X639819Y839794D01*
X640206Y839593D01*
X640589Y839382D01*
X640966Y839162D01*
X641337Y838933D01*
X641703Y838696D01*
X642063Y838449D01*
X642417Y838193D01*
X642764Y837929D01*
X643105Y837656D01*
X643438Y837375D01*
X643765Y837086D01*
X644085Y836789D01*
X644397Y836484D01*
X644702Y836172D01*
X644999Y835852D01*
X645288Y835525D01*
X645569Y835192D01*
X645842Y834851D01*
X646106Y834504D01*
X646362Y834150D01*
X646609Y833790D01*
X646846Y833424D01*
X647075Y833053D01*
X647295Y832676D01*
X647506Y832293D01*
X647707Y831906D01*
X647898Y831514D01*
X648080Y831117D01*
X648252Y830716D01*
X648414Y830311D01*
X648566Y829902D01*
X648708Y829489D01*
X648839Y829073D01*
X648961Y828654D01*
X649072Y828232D01*
X649173Y827808D01*
X649263Y827381D01*
X649343Y826952D01*
X649413Y826521D01*
X649471Y826088D01*
X649519Y825655D01*
X649557Y825220D01*
X649584Y824784D01*
X649600Y824348D01*
X649605Y823912D01*
X649600Y823476D01*
X649584Y823040D01*
X649557Y822604D01*
X649519Y822169D01*
X649471Y821736D01*
X649413Y821303D01*
X649343Y820872D01*
X649263Y820443D01*
X649173Y820016D01*
X649072Y819592D01*
X648961Y819170D01*
X648839Y818751D01*
X648708Y818335D01*
X648566Y817922D01*
X648414Y817513D01*
X648252Y817108D01*
X648080Y816707D01*
X647898Y816310D01*
X647707Y815918D01*
X647506Y815531D01*
X647295Y815148D01*
X647075Y814771D01*
X646846Y814400D01*
X646609Y814034D01*
X646362Y813674D01*
X646106Y813320D01*
X645842Y812973D01*
X645569Y812632D01*
X645288Y812299D01*
X644999Y811972D01*
X644702Y811652D01*
X644397Y811340D01*
X644085Y811035D01*
X643765Y810738D01*
X643438Y810449D01*
X643105Y810168D01*
X642764Y809895D01*
X642417Y809631D01*
X642063Y809375D01*
X641703Y809128D01*
X641337Y808891D01*
X640966Y808662D01*
X640589Y808442D01*
X640206Y808231D01*
X639819Y808030D01*
X639427Y807839D01*
X639030Y807657D01*
X638629Y807485D01*
X638224Y807323D01*
X637815Y807171D01*
X637402Y807029D01*
X636986Y806898D01*
X636567Y806776D01*
X636145Y806665D01*
X635721Y806564D01*
X635294Y806474D01*
X634865Y806394D01*
X634434Y806324D01*
X634001Y806266D01*
X633568Y806218D01*
X633133Y806180D01*
X632697Y806153D01*
X632261Y806137D01*
X631825Y806132D01*
X631389Y806137D01*
X630953Y806153D01*
X630517Y806180D01*
X630082Y806218D01*
X629649Y806266D01*
X629216Y806324D01*
X628785Y806394D01*
X628356Y806474D01*
X627929Y806564D01*
X627505Y806665D01*
X627083Y806776D01*
X626664Y806898D01*
X626248Y807029D01*
X625835Y807171D01*
X625426Y807323D01*
X625021Y807485D01*
X624620Y807657D01*
X624223Y807839D01*
X623831Y808030D01*
X623444Y808231D01*
X623061Y808442D01*
X622684Y808662D01*
X622313Y808891D01*
X621947Y809128D01*
X621587Y809375D01*
X621233Y809631D01*
X620886Y809895D01*
X620545Y810168D01*
X620212Y810449D01*
X619885Y810738D01*
X619565Y811035D01*
X619253Y811340D01*
X618948Y811652D01*
X618651Y811972D01*
X618362Y812299D01*
X618081Y812632D01*
X617808Y812973D01*
X617544Y813320D01*
X617288Y813674D01*
X617041Y814034D01*
X616804Y814400D01*
X616575Y814771D01*
X616355Y815148D01*
X616144Y815531D01*
X615943Y815918D01*
X615752Y816310D01*
X615570Y816707D01*
X615398Y817108D01*
X615236Y817513D01*
X615084Y817922D01*
X614942Y818335D01*
X614811Y818751D01*
X614689Y819170D01*
X614578Y819592D01*
X614477Y820016D01*
X614387Y820443D01*
X614307Y820872D01*
X614237Y821303D01*
X614179Y821736D01*
X614131Y822169D01*
X614093Y822604D01*
X614066Y823040D01*
X614050Y823476D01*
X614045Y823912D01*
D11*
X685031Y826649D02*
X686557Y828174D01*
X689607Y828174D01*
X691133Y826649D01*
X691133Y825123D01*
X689607Y823598D01*
X686557Y823598D01*
X685031Y822073D01*
X685031Y820547D01*
X686557Y819022D01*
X689607Y819022D01*
X691133Y820547D01*
X681777Y819022D02*
X681777Y828174D01*
X678727Y822073D02*
X681777Y819022D01*
X678727Y822073D02*
X675676Y819022D01*
X675676Y828174D01*
X672422Y825123D02*
X669372Y828174D01*
X669372Y819022D01*
X672422Y819022D02*
X666321Y819022D01*
D12*
X539115Y793432D02*
X495935Y793432D01*
X495935Y854392D02*
X539115Y854392D01*
X548005Y834072D02*
X548005Y813932D01*
X487045Y813632D02*
X487045Y834072D01*
X499745Y823912D02*
X499750Y824348D01*
X499766Y824784D01*
X499793Y825220D01*
X499831Y825655D01*
X499879Y826088D01*
X499937Y826521D01*
X500007Y826952D01*
X500087Y827381D01*
X500177Y827808D01*
X500278Y828232D01*
X500389Y828654D01*
X500511Y829073D01*
X500642Y829489D01*
X500784Y829902D01*
X500936Y830311D01*
X501098Y830716D01*
X501270Y831117D01*
X501452Y831514D01*
X501643Y831906D01*
X501844Y832293D01*
X502055Y832676D01*
X502275Y833053D01*
X502504Y833424D01*
X502741Y833790D01*
X502988Y834150D01*
X503244Y834504D01*
X503508Y834851D01*
X503781Y835192D01*
X504062Y835525D01*
X504351Y835852D01*
X504648Y836172D01*
X504953Y836484D01*
X505265Y836789D01*
X505585Y837086D01*
X505912Y837375D01*
X506245Y837656D01*
X506586Y837929D01*
X506933Y838193D01*
X507287Y838449D01*
X507647Y838696D01*
X508013Y838933D01*
X508384Y839162D01*
X508761Y839382D01*
X509144Y839593D01*
X509531Y839794D01*
X509923Y839985D01*
X510320Y840167D01*
X510721Y840339D01*
X511126Y840501D01*
X511535Y840653D01*
X511948Y840795D01*
X512364Y840926D01*
X512783Y841048D01*
X513205Y841159D01*
X513629Y841260D01*
X514056Y841350D01*
X514485Y841430D01*
X514916Y841500D01*
X515349Y841558D01*
X515782Y841606D01*
X516217Y841644D01*
X516653Y841671D01*
X517089Y841687D01*
X517525Y841692D01*
X517961Y841687D01*
X518397Y841671D01*
X518833Y841644D01*
X519268Y841606D01*
X519701Y841558D01*
X520134Y841500D01*
X520565Y841430D01*
X520994Y841350D01*
X521421Y841260D01*
X521845Y841159D01*
X522267Y841048D01*
X522686Y840926D01*
X523102Y840795D01*
X523515Y840653D01*
X523924Y840501D01*
X524329Y840339D01*
X524730Y840167D01*
X525127Y839985D01*
X525519Y839794D01*
X525906Y839593D01*
X526289Y839382D01*
X526666Y839162D01*
X527037Y838933D01*
X527403Y838696D01*
X527763Y838449D01*
X528117Y838193D01*
X528464Y837929D01*
X528805Y837656D01*
X529138Y837375D01*
X529465Y837086D01*
X529785Y836789D01*
X530097Y836484D01*
X530402Y836172D01*
X530699Y835852D01*
X530988Y835525D01*
X531269Y835192D01*
X531542Y834851D01*
X531806Y834504D01*
X532062Y834150D01*
X532309Y833790D01*
X532546Y833424D01*
X532775Y833053D01*
X532995Y832676D01*
X533206Y832293D01*
X533407Y831906D01*
X533598Y831514D01*
X533780Y831117D01*
X533952Y830716D01*
X534114Y830311D01*
X534266Y829902D01*
X534408Y829489D01*
X534539Y829073D01*
X534661Y828654D01*
X534772Y828232D01*
X534873Y827808D01*
X534963Y827381D01*
X535043Y826952D01*
X535113Y826521D01*
X535171Y826088D01*
X535219Y825655D01*
X535257Y825220D01*
X535284Y824784D01*
X535300Y824348D01*
X535305Y823912D01*
X535300Y823476D01*
X535284Y823040D01*
X535257Y822604D01*
X535219Y822169D01*
X535171Y821736D01*
X535113Y821303D01*
X535043Y820872D01*
X534963Y820443D01*
X534873Y820016D01*
X534772Y819592D01*
X534661Y819170D01*
X534539Y818751D01*
X534408Y818335D01*
X534266Y817922D01*
X534114Y817513D01*
X533952Y817108D01*
X533780Y816707D01*
X533598Y816310D01*
X533407Y815918D01*
X533206Y815531D01*
X532995Y815148D01*
X532775Y814771D01*
X532546Y814400D01*
X532309Y814034D01*
X532062Y813674D01*
X531806Y813320D01*
X531542Y812973D01*
X531269Y812632D01*
X530988Y812299D01*
X530699Y811972D01*
X530402Y811652D01*
X530097Y811340D01*
X529785Y811035D01*
X529465Y810738D01*
X529138Y810449D01*
X528805Y810168D01*
X528464Y809895D01*
X528117Y809631D01*
X527763Y809375D01*
X527403Y809128D01*
X527037Y808891D01*
X526666Y808662D01*
X526289Y808442D01*
X525906Y808231D01*
X525519Y808030D01*
X525127Y807839D01*
X524730Y807657D01*
X524329Y807485D01*
X523924Y807323D01*
X523515Y807171D01*
X523102Y807029D01*
X522686Y806898D01*
X522267Y806776D01*
X521845Y806665D01*
X521421Y806564D01*
X520994Y806474D01*
X520565Y806394D01*
X520134Y806324D01*
X519701Y806266D01*
X519268Y806218D01*
X518833Y806180D01*
X518397Y806153D01*
X517961Y806137D01*
X517525Y806132D01*
X517089Y806137D01*
X516653Y806153D01*
X516217Y806180D01*
X515782Y806218D01*
X515349Y806266D01*
X514916Y806324D01*
X514485Y806394D01*
X514056Y806474D01*
X513629Y806564D01*
X513205Y806665D01*
X512783Y806776D01*
X512364Y806898D01*
X511948Y807029D01*
X511535Y807171D01*
X511126Y807323D01*
X510721Y807485D01*
X510320Y807657D01*
X509923Y807839D01*
X509531Y808030D01*
X509144Y808231D01*
X508761Y808442D01*
X508384Y808662D01*
X508013Y808891D01*
X507647Y809128D01*
X507287Y809375D01*
X506933Y809631D01*
X506586Y809895D01*
X506245Y810168D01*
X505912Y810449D01*
X505585Y810738D01*
X505265Y811035D01*
X504953Y811340D01*
X504648Y811652D01*
X504351Y811972D01*
X504062Y812299D01*
X503781Y812632D01*
X503508Y812973D01*
X503244Y813320D01*
X502988Y813674D01*
X502741Y814034D01*
X502504Y814400D01*
X502275Y814771D01*
X502055Y815148D01*
X501844Y815531D01*
X501643Y815918D01*
X501452Y816310D01*
X501270Y816707D01*
X501098Y817108D01*
X500936Y817513D01*
X500784Y817922D01*
X500642Y818335D01*
X500511Y818751D01*
X500389Y819170D01*
X500278Y819592D01*
X500177Y820016D01*
X500087Y820443D01*
X500007Y820872D01*
X499937Y821303D01*
X499879Y821736D01*
X499831Y822169D01*
X499793Y822604D01*
X499766Y823040D01*
X499750Y823476D01*
X499745Y823912D01*
D11*
X570731Y826650D02*
X572257Y828175D01*
X575307Y828175D01*
X576833Y826650D01*
X576833Y825124D01*
X575307Y823599D01*
X572257Y823599D01*
X570731Y822074D01*
X570731Y820548D01*
X572257Y819023D01*
X575307Y819023D01*
X576833Y820548D01*
X567477Y819023D02*
X567477Y828175D01*
X564427Y822074D02*
X567477Y819023D01*
X564427Y822074D02*
X561376Y819023D01*
X561376Y828175D01*
X558122Y819023D02*
X552021Y819023D01*
X558122Y819023D02*
X552021Y825124D01*
X552021Y826650D01*
X553546Y828175D01*
X556597Y828175D01*
X558122Y826650D01*
D12*
X424815Y793432D02*
X381635Y793432D01*
X381635Y854392D02*
X424815Y854392D01*
X433705Y834072D02*
X433705Y813932D01*
X372745Y813632D02*
X372745Y834072D01*
X385445Y823912D02*
X385450Y824348D01*
X385466Y824784D01*
X385493Y825220D01*
X385531Y825655D01*
X385579Y826088D01*
X385637Y826521D01*
X385707Y826952D01*
X385787Y827381D01*
X385877Y827808D01*
X385978Y828232D01*
X386089Y828654D01*
X386211Y829073D01*
X386342Y829489D01*
X386484Y829902D01*
X386636Y830311D01*
X386798Y830716D01*
X386970Y831117D01*
X387152Y831514D01*
X387343Y831906D01*
X387544Y832293D01*
X387755Y832676D01*
X387975Y833053D01*
X388204Y833424D01*
X388441Y833790D01*
X388688Y834150D01*
X388944Y834504D01*
X389208Y834851D01*
X389481Y835192D01*
X389762Y835525D01*
X390051Y835852D01*
X390348Y836172D01*
X390653Y836484D01*
X390965Y836789D01*
X391285Y837086D01*
X391612Y837375D01*
X391945Y837656D01*
X392286Y837929D01*
X392633Y838193D01*
X392987Y838449D01*
X393347Y838696D01*
X393713Y838933D01*
X394084Y839162D01*
X394461Y839382D01*
X394844Y839593D01*
X395231Y839794D01*
X395623Y839985D01*
X396020Y840167D01*
X396421Y840339D01*
X396826Y840501D01*
X397235Y840653D01*
X397648Y840795D01*
X398064Y840926D01*
X398483Y841048D01*
X398905Y841159D01*
X399329Y841260D01*
X399756Y841350D01*
X400185Y841430D01*
X400616Y841500D01*
X401049Y841558D01*
X401482Y841606D01*
X401917Y841644D01*
X402353Y841671D01*
X402789Y841687D01*
X403225Y841692D01*
X403661Y841687D01*
X404097Y841671D01*
X404533Y841644D01*
X404968Y841606D01*
X405401Y841558D01*
X405834Y841500D01*
X406265Y841430D01*
X406694Y841350D01*
X407121Y841260D01*
X407545Y841159D01*
X407967Y841048D01*
X408386Y840926D01*
X408802Y840795D01*
X409215Y840653D01*
X409624Y840501D01*
X410029Y840339D01*
X410430Y840167D01*
X410827Y839985D01*
X411219Y839794D01*
X411606Y839593D01*
X411989Y839382D01*
X412366Y839162D01*
X412737Y838933D01*
X413103Y838696D01*
X413463Y838449D01*
X413817Y838193D01*
X414164Y837929D01*
X414505Y837656D01*
X414838Y837375D01*
X415165Y837086D01*
X415485Y836789D01*
X415797Y836484D01*
X416102Y836172D01*
X416399Y835852D01*
X416688Y835525D01*
X416969Y835192D01*
X417242Y834851D01*
X417506Y834504D01*
X417762Y834150D01*
X418009Y833790D01*
X418246Y833424D01*
X418475Y833053D01*
X418695Y832676D01*
X418906Y832293D01*
X419107Y831906D01*
X419298Y831514D01*
X419480Y831117D01*
X419652Y830716D01*
X419814Y830311D01*
X419966Y829902D01*
X420108Y829489D01*
X420239Y829073D01*
X420361Y828654D01*
X420472Y828232D01*
X420573Y827808D01*
X420663Y827381D01*
X420743Y826952D01*
X420813Y826521D01*
X420871Y826088D01*
X420919Y825655D01*
X420957Y825220D01*
X420984Y824784D01*
X421000Y824348D01*
X421005Y823912D01*
X421000Y823476D01*
X420984Y823040D01*
X420957Y822604D01*
X420919Y822169D01*
X420871Y821736D01*
X420813Y821303D01*
X420743Y820872D01*
X420663Y820443D01*
X420573Y820016D01*
X420472Y819592D01*
X420361Y819170D01*
X420239Y818751D01*
X420108Y818335D01*
X419966Y817922D01*
X419814Y817513D01*
X419652Y817108D01*
X419480Y816707D01*
X419298Y816310D01*
X419107Y815918D01*
X418906Y815531D01*
X418695Y815148D01*
X418475Y814771D01*
X418246Y814400D01*
X418009Y814034D01*
X417762Y813674D01*
X417506Y813320D01*
X417242Y812973D01*
X416969Y812632D01*
X416688Y812299D01*
X416399Y811972D01*
X416102Y811652D01*
X415797Y811340D01*
X415485Y811035D01*
X415165Y810738D01*
X414838Y810449D01*
X414505Y810168D01*
X414164Y809895D01*
X413817Y809631D01*
X413463Y809375D01*
X413103Y809128D01*
X412737Y808891D01*
X412366Y808662D01*
X411989Y808442D01*
X411606Y808231D01*
X411219Y808030D01*
X410827Y807839D01*
X410430Y807657D01*
X410029Y807485D01*
X409624Y807323D01*
X409215Y807171D01*
X408802Y807029D01*
X408386Y806898D01*
X407967Y806776D01*
X407545Y806665D01*
X407121Y806564D01*
X406694Y806474D01*
X406265Y806394D01*
X405834Y806324D01*
X405401Y806266D01*
X404968Y806218D01*
X404533Y806180D01*
X404097Y806153D01*
X403661Y806137D01*
X403225Y806132D01*
X402789Y806137D01*
X402353Y806153D01*
X401917Y806180D01*
X401482Y806218D01*
X401049Y806266D01*
X400616Y806324D01*
X400185Y806394D01*
X399756Y806474D01*
X399329Y806564D01*
X398905Y806665D01*
X398483Y806776D01*
X398064Y806898D01*
X397648Y807029D01*
X397235Y807171D01*
X396826Y807323D01*
X396421Y807485D01*
X396020Y807657D01*
X395623Y807839D01*
X395231Y808030D01*
X394844Y808231D01*
X394461Y808442D01*
X394084Y808662D01*
X393713Y808891D01*
X393347Y809128D01*
X392987Y809375D01*
X392633Y809631D01*
X392286Y809895D01*
X391945Y810168D01*
X391612Y810449D01*
X391285Y810738D01*
X390965Y811035D01*
X390653Y811340D01*
X390348Y811652D01*
X390051Y811972D01*
X389762Y812299D01*
X389481Y812632D01*
X389208Y812973D01*
X388944Y813320D01*
X388688Y813674D01*
X388441Y814034D01*
X388204Y814400D01*
X387975Y814771D01*
X387755Y815148D01*
X387544Y815531D01*
X387343Y815918D01*
X387152Y816310D01*
X386970Y816707D01*
X386798Y817108D01*
X386636Y817513D01*
X386484Y817922D01*
X386342Y818335D01*
X386211Y818751D01*
X386089Y819170D01*
X385978Y819592D01*
X385877Y820016D01*
X385787Y820443D01*
X385707Y820872D01*
X385637Y821303D01*
X385579Y821736D01*
X385531Y822169D01*
X385493Y822604D01*
X385466Y823040D01*
X385450Y823476D01*
X385445Y823912D01*
D11*
X456431Y826649D02*
X457957Y828174D01*
X461007Y828174D01*
X462533Y826649D01*
X462533Y825123D01*
X461007Y823598D01*
X457957Y823598D01*
X456431Y822073D01*
X456431Y820547D01*
X457957Y819022D01*
X461007Y819022D01*
X462533Y820547D01*
X453177Y819022D02*
X453177Y828174D01*
X450127Y822073D02*
X453177Y819022D01*
X450127Y822073D02*
X447076Y819022D01*
X447076Y828174D01*
X443822Y826649D02*
X442297Y828174D01*
X439246Y828174D01*
X437721Y826649D01*
X437721Y825123D01*
X439246Y823598D01*
X440772Y823598D01*
X439246Y823598D02*
X437721Y822073D01*
X437721Y820547D01*
X439246Y819022D01*
X442297Y819022D01*
X443822Y820547D01*
D12*
X310515Y793432D02*
X267335Y793432D01*
X267335Y854392D02*
X310515Y854392D01*
X319405Y834072D02*
X319405Y813932D01*
X258445Y813632D02*
X258445Y834072D01*
X271145Y823912D02*
X271150Y824348D01*
X271166Y824784D01*
X271193Y825220D01*
X271231Y825655D01*
X271279Y826088D01*
X271337Y826521D01*
X271407Y826952D01*
X271487Y827381D01*
X271577Y827808D01*
X271678Y828232D01*
X271789Y828654D01*
X271911Y829073D01*
X272042Y829489D01*
X272184Y829902D01*
X272336Y830311D01*
X272498Y830716D01*
X272670Y831117D01*
X272852Y831514D01*
X273043Y831906D01*
X273244Y832293D01*
X273455Y832676D01*
X273675Y833053D01*
X273904Y833424D01*
X274141Y833790D01*
X274388Y834150D01*
X274644Y834504D01*
X274908Y834851D01*
X275181Y835192D01*
X275462Y835525D01*
X275751Y835852D01*
X276048Y836172D01*
X276353Y836484D01*
X276665Y836789D01*
X276985Y837086D01*
X277312Y837375D01*
X277645Y837656D01*
X277986Y837929D01*
X278333Y838193D01*
X278687Y838449D01*
X279047Y838696D01*
X279413Y838933D01*
X279784Y839162D01*
X280161Y839382D01*
X280544Y839593D01*
X280931Y839794D01*
X281323Y839985D01*
X281720Y840167D01*
X282121Y840339D01*
X282526Y840501D01*
X282935Y840653D01*
X283348Y840795D01*
X283764Y840926D01*
X284183Y841048D01*
X284605Y841159D01*
X285029Y841260D01*
X285456Y841350D01*
X285885Y841430D01*
X286316Y841500D01*
X286749Y841558D01*
X287182Y841606D01*
X287617Y841644D01*
X288053Y841671D01*
X288489Y841687D01*
X288925Y841692D01*
X289361Y841687D01*
X289797Y841671D01*
X290233Y841644D01*
X290668Y841606D01*
X291101Y841558D01*
X291534Y841500D01*
X291965Y841430D01*
X292394Y841350D01*
X292821Y841260D01*
X293245Y841159D01*
X293667Y841048D01*
X294086Y840926D01*
X294502Y840795D01*
X294915Y840653D01*
X295324Y840501D01*
X295729Y840339D01*
X296130Y840167D01*
X296527Y839985D01*
X296919Y839794D01*
X297306Y839593D01*
X297689Y839382D01*
X298066Y839162D01*
X298437Y838933D01*
X298803Y838696D01*
X299163Y838449D01*
X299517Y838193D01*
X299864Y837929D01*
X300205Y837656D01*
X300538Y837375D01*
X300865Y837086D01*
X301185Y836789D01*
X301497Y836484D01*
X301802Y836172D01*
X302099Y835852D01*
X302388Y835525D01*
X302669Y835192D01*
X302942Y834851D01*
X303206Y834504D01*
X303462Y834150D01*
X303709Y833790D01*
X303946Y833424D01*
X304175Y833053D01*
X304395Y832676D01*
X304606Y832293D01*
X304807Y831906D01*
X304998Y831514D01*
X305180Y831117D01*
X305352Y830716D01*
X305514Y830311D01*
X305666Y829902D01*
X305808Y829489D01*
X305939Y829073D01*
X306061Y828654D01*
X306172Y828232D01*
X306273Y827808D01*
X306363Y827381D01*
X306443Y826952D01*
X306513Y826521D01*
X306571Y826088D01*
X306619Y825655D01*
X306657Y825220D01*
X306684Y824784D01*
X306700Y824348D01*
X306705Y823912D01*
X306700Y823476D01*
X306684Y823040D01*
X306657Y822604D01*
X306619Y822169D01*
X306571Y821736D01*
X306513Y821303D01*
X306443Y820872D01*
X306363Y820443D01*
X306273Y820016D01*
X306172Y819592D01*
X306061Y819170D01*
X305939Y818751D01*
X305808Y818335D01*
X305666Y817922D01*
X305514Y817513D01*
X305352Y817108D01*
X305180Y816707D01*
X304998Y816310D01*
X304807Y815918D01*
X304606Y815531D01*
X304395Y815148D01*
X304175Y814771D01*
X303946Y814400D01*
X303709Y814034D01*
X303462Y813674D01*
X303206Y813320D01*
X302942Y812973D01*
X302669Y812632D01*
X302388Y812299D01*
X302099Y811972D01*
X301802Y811652D01*
X301497Y811340D01*
X301185Y811035D01*
X300865Y810738D01*
X300538Y810449D01*
X300205Y810168D01*
X299864Y809895D01*
X299517Y809631D01*
X299163Y809375D01*
X298803Y809128D01*
X298437Y808891D01*
X298066Y808662D01*
X297689Y808442D01*
X297306Y808231D01*
X296919Y808030D01*
X296527Y807839D01*
X296130Y807657D01*
X295729Y807485D01*
X295324Y807323D01*
X294915Y807171D01*
X294502Y807029D01*
X294086Y806898D01*
X293667Y806776D01*
X293245Y806665D01*
X292821Y806564D01*
X292394Y806474D01*
X291965Y806394D01*
X291534Y806324D01*
X291101Y806266D01*
X290668Y806218D01*
X290233Y806180D01*
X289797Y806153D01*
X289361Y806137D01*
X288925Y806132D01*
X288489Y806137D01*
X288053Y806153D01*
X287617Y806180D01*
X287182Y806218D01*
X286749Y806266D01*
X286316Y806324D01*
X285885Y806394D01*
X285456Y806474D01*
X285029Y806564D01*
X284605Y806665D01*
X284183Y806776D01*
X283764Y806898D01*
X283348Y807029D01*
X282935Y807171D01*
X282526Y807323D01*
X282121Y807485D01*
X281720Y807657D01*
X281323Y807839D01*
X280931Y808030D01*
X280544Y808231D01*
X280161Y808442D01*
X279784Y808662D01*
X279413Y808891D01*
X279047Y809128D01*
X278687Y809375D01*
X278333Y809631D01*
X277986Y809895D01*
X277645Y810168D01*
X277312Y810449D01*
X276985Y810738D01*
X276665Y811035D01*
X276353Y811340D01*
X276048Y811652D01*
X275751Y811972D01*
X275462Y812299D01*
X275181Y812632D01*
X274908Y812973D01*
X274644Y813320D01*
X274388Y813674D01*
X274141Y814034D01*
X273904Y814400D01*
X273675Y814771D01*
X273455Y815148D01*
X273244Y815531D01*
X273043Y815918D01*
X272852Y816310D01*
X272670Y816707D01*
X272498Y817108D01*
X272336Y817513D01*
X272184Y817922D01*
X272042Y818335D01*
X271911Y818751D01*
X271789Y819170D01*
X271678Y819592D01*
X271577Y820016D01*
X271487Y820443D01*
X271407Y820872D01*
X271337Y821303D01*
X271279Y821736D01*
X271231Y822169D01*
X271193Y822604D01*
X271166Y823040D01*
X271150Y823476D01*
X271145Y823912D01*
D11*
X342131Y826650D02*
X343657Y828175D01*
X346707Y828175D01*
X348233Y826650D01*
X348233Y825124D01*
X346707Y823599D01*
X343657Y823599D01*
X342131Y822074D01*
X342131Y820548D01*
X343657Y819023D01*
X346707Y819023D01*
X348233Y820548D01*
X338877Y819023D02*
X338877Y828175D01*
X335827Y822074D02*
X338877Y819023D01*
X335827Y822074D02*
X332776Y819023D01*
X332776Y828175D01*
X324946Y828175D02*
X324946Y819023D01*
X329522Y823599D02*
X324946Y828175D01*
X323421Y823599D02*
X329522Y823599D01*
D10*
X586825Y784600D02*
X676825Y784600D01*
X676825Y434600D01*
X586825Y434600D01*
X586825Y784600D01*
D11*
X623219Y431302D02*
X623219Y419608D01*
X623219Y431302D02*
X617372Y431302D01*
X615423Y429353D01*
X615423Y425455D01*
X617372Y423506D01*
X623219Y423506D01*
X619321Y423506D02*
X615423Y419608D01*
X611525Y431302D02*
X603729Y431302D01*
X603729Y429353D01*
X611525Y421557D01*
X611525Y419608D01*
X599831Y429353D02*
X597882Y431302D01*
X593984Y431302D01*
X592035Y429353D01*
X592035Y427404D01*
X593984Y425455D01*
X592035Y423506D01*
X592035Y421557D01*
X593984Y419608D01*
X597882Y419608D01*
X599831Y421557D01*
X599831Y423506D01*
X597882Y425455D01*
X599831Y427404D01*
X599831Y429353D01*
X597882Y425455D02*
X593984Y425455D01*
D10*
X562525Y434600D02*
X472525Y434600D01*
X472525Y784600D01*
X562525Y784600D01*
X562525Y434600D01*
D11*
X508919Y431302D02*
X508919Y419608D01*
X508919Y431302D02*
X503072Y431302D01*
X501123Y429353D01*
X501123Y425455D01*
X503072Y423506D01*
X508919Y423506D01*
X505021Y423506D02*
X501123Y419608D01*
X497225Y431302D02*
X489429Y431302D01*
X489429Y429353D01*
X497225Y421557D01*
X497225Y419608D01*
X485531Y421557D02*
X483582Y419608D01*
X479684Y419608D01*
X477735Y421557D01*
X477735Y429353D01*
X479684Y431302D01*
X483582Y431302D01*
X485531Y429353D01*
X485531Y427404D01*
X483582Y425455D01*
X477735Y425455D01*
D10*
X448225Y434600D02*
X358225Y434600D01*
X358225Y784600D01*
X448225Y784600D01*
X448225Y434600D01*
D11*
X394619Y431302D02*
X394619Y419608D01*
X394619Y431302D02*
X388772Y431302D01*
X386823Y429353D01*
X386823Y425455D01*
X388772Y423506D01*
X394619Y423506D01*
X390721Y423506D02*
X386823Y419608D01*
X382925Y429353D02*
X380976Y431302D01*
X377078Y431302D01*
X375129Y429353D01*
X375129Y427404D01*
X377078Y425455D01*
X375129Y423506D01*
X375129Y421557D01*
X377078Y419608D01*
X380976Y419608D01*
X382925Y421557D01*
X382925Y423506D01*
X380976Y425455D01*
X382925Y427404D01*
X382925Y429353D01*
X380976Y425455D02*
X377078Y425455D01*
X371231Y421557D02*
X371231Y429353D01*
X369282Y431302D01*
X365384Y431302D01*
X363435Y429353D01*
X363435Y421557D01*
X365384Y419608D01*
X369282Y419608D01*
X371231Y421557D01*
X363435Y429353D01*
D10*
X333925Y434600D02*
X243925Y434600D01*
X243925Y784600D01*
X333925Y784600D01*
X333925Y434600D01*
D11*
X280319Y431302D02*
X280319Y419608D01*
X280319Y431302D02*
X274472Y431302D01*
X272523Y429353D01*
X272523Y425455D01*
X274472Y423506D01*
X280319Y423506D01*
X276421Y423506D02*
X272523Y419608D01*
X268625Y429353D02*
X266676Y431302D01*
X262778Y431302D01*
X260829Y429353D01*
X260829Y427404D01*
X262778Y425455D01*
X260829Y423506D01*
X260829Y421557D01*
X262778Y419608D01*
X266676Y419608D01*
X268625Y421557D01*
X268625Y423506D01*
X266676Y425455D01*
X268625Y427404D01*
X268625Y429353D01*
X266676Y425455D02*
X262778Y425455D01*
X256931Y427404D02*
X253033Y431302D01*
X253033Y419608D01*
X256931Y419608D02*
X249135Y419608D01*
D10*
X219625Y434600D02*
X129625Y434600D01*
X129625Y784600D01*
X219625Y784600D01*
X219625Y434600D01*
D11*
X166019Y431302D02*
X166019Y419608D01*
X166019Y431302D02*
X160172Y431302D01*
X158223Y429353D01*
X158223Y425455D01*
X160172Y423506D01*
X166019Y423506D01*
X162121Y423506D02*
X158223Y419608D01*
X154325Y429353D02*
X152376Y431302D01*
X148478Y431302D01*
X146529Y429353D01*
X146529Y427404D01*
X148478Y425455D01*
X146529Y423506D01*
X146529Y421557D01*
X148478Y419608D01*
X152376Y419608D01*
X154325Y421557D01*
X154325Y423506D01*
X152376Y425455D01*
X154325Y427404D01*
X154325Y429353D01*
X152376Y425455D02*
X148478Y425455D01*
X142631Y419608D02*
X134835Y419608D01*
X142631Y419608D02*
X134835Y427404D01*
X134835Y429353D01*
X136784Y431302D01*
X140682Y431302D01*
X142631Y429353D01*
D10*
X105325Y784600D02*
X15325Y784600D01*
X105325Y784600D02*
X105325Y434600D01*
X15325Y434600D01*
X15325Y784600D01*
D11*
X51719Y431302D02*
X51719Y419608D01*
X51719Y431302D02*
X45872Y431302D01*
X43923Y429353D01*
X43923Y425455D01*
X45872Y423506D01*
X51719Y423506D01*
X47821Y423506D02*
X43923Y419608D01*
X40025Y429353D02*
X38076Y431302D01*
X34178Y431302D01*
X32229Y429353D01*
X32229Y427404D01*
X34178Y425455D01*
X32229Y423506D01*
X32229Y421557D01*
X34178Y419608D01*
X38076Y419608D01*
X40025Y421557D01*
X40025Y423506D01*
X38076Y425455D01*
X40025Y427404D01*
X40025Y429353D01*
X38076Y425455D02*
X34178Y425455D01*
X28331Y429353D02*
X26382Y431302D01*
X22484Y431302D01*
X20535Y429353D01*
X20535Y427404D01*
X22484Y425455D01*
X24433Y425455D01*
X22484Y425455D02*
X20535Y423506D01*
X20535Y421557D01*
X22484Y419608D01*
X26382Y419608D01*
X28331Y421557D01*
D10*
X390525Y903288D02*
X390218Y902974D01*
X389920Y902653D01*
X389629Y902325D01*
X389347Y901989D01*
X389073Y901647D01*
X388807Y901298D01*
X388550Y900943D01*
X388301Y900582D01*
X388062Y900214D01*
X387831Y899841D01*
X387610Y899463D01*
X387398Y899079D01*
X387195Y898690D01*
X387002Y898296D01*
X386819Y897898D01*
X386645Y897495D01*
X386482Y897088D01*
X386328Y896678D01*
X386184Y896263D01*
X386051Y895846D01*
X385927Y895425D01*
X385815Y895001D01*
X385712Y894575D01*
X385620Y894146D01*
X385538Y893715D01*
X385467Y893282D01*
X385407Y892848D01*
X385357Y892412D01*
X385318Y891975D01*
X385289Y891538D01*
X385271Y891100D01*
X385264Y890661D01*
X385268Y890223D01*
X385282Y889784D01*
X385307Y889346D01*
X385343Y888909D01*
X385389Y888473D01*
X385446Y888038D01*
X385513Y887605D01*
X385592Y887174D01*
X385680Y886744D01*
X385779Y886317D01*
X385889Y885892D01*
X386008Y885470D01*
X386139Y885052D01*
X386279Y884636D01*
X386429Y884224D01*
X386590Y883816D01*
X386760Y883412D01*
X386940Y883012D01*
X387130Y882617D01*
X387329Y882226D01*
X387538Y881841D01*
X387756Y881460D01*
X387984Y881085D01*
X388220Y880716D01*
X388466Y880353D01*
X388720Y879995D01*
X388983Y879644D01*
X389254Y879300D01*
X389534Y878962D01*
X389822Y878631D01*
X390118Y878308D01*
X390422Y877991D01*
X390733Y877683D01*
X391052Y877381D01*
X391378Y877088D01*
X391711Y876803D01*
X392051Y876526D01*
X392398Y876257D01*
X392751Y875997D01*
X393110Y875746D01*
X393475Y875503D01*
X393847Y875270D01*
X394223Y875046D01*
X394606Y874830D01*
X394993Y874625D01*
X395385Y874428D01*
X395782Y874242D01*
X396183Y874065D01*
X396589Y873898D01*
X396998Y873741D01*
X397411Y873594D01*
X397828Y873457D01*
X398248Y873330D01*
X398671Y873214D01*
X399096Y873108D01*
X399524Y873012D01*
X399954Y872927D01*
X400386Y872853D01*
X400820Y872789D01*
X401256Y872735D01*
X401692Y872693D01*
X402129Y872660D01*
X402567Y872639D01*
X403006Y872628D01*
X403444Y872628D01*
X403883Y872639D01*
X404321Y872660D01*
X404758Y872693D01*
X405194Y872735D01*
X405630Y872789D01*
X406064Y872853D01*
X406496Y872927D01*
X406926Y873012D01*
X407354Y873108D01*
X407779Y873214D01*
X408202Y873330D01*
X408622Y873457D01*
X409039Y873594D01*
X409452Y873741D01*
X409861Y873898D01*
X410267Y874065D01*
X410668Y874242D01*
X411065Y874428D01*
X411457Y874625D01*
X411844Y874830D01*
X412227Y875046D01*
X412603Y875270D01*
X412975Y875503D01*
X413340Y875746D01*
X413699Y875997D01*
X414052Y876257D01*
X414399Y876526D01*
X414739Y876803D01*
X415072Y877088D01*
X415398Y877381D01*
X415717Y877683D01*
X416028Y877991D01*
X416332Y878308D01*
X416628Y878631D01*
X416916Y878962D01*
X417196Y879300D01*
X417467Y879644D01*
X417730Y879995D01*
X417984Y880353D01*
X418230Y880716D01*
X418466Y881085D01*
X418694Y881460D01*
X418912Y881841D01*
X419121Y882226D01*
X419320Y882617D01*
X419510Y883012D01*
X419690Y883412D01*
X419860Y883816D01*
X420021Y884224D01*
X420171Y884636D01*
X420311Y885052D01*
X420442Y885470D01*
X420561Y885892D01*
X420671Y886317D01*
X420770Y886744D01*
X420858Y887174D01*
X420937Y887605D01*
X421004Y888038D01*
X421061Y888473D01*
X421107Y888909D01*
X421143Y889346D01*
X421168Y889784D01*
X421182Y890223D01*
X421186Y890661D01*
X421179Y891100D01*
X421161Y891538D01*
X421132Y891975D01*
X421093Y892412D01*
X421043Y892848D01*
X420983Y893282D01*
X420912Y893715D01*
X420830Y894146D01*
X420738Y894575D01*
X420635Y895001D01*
X420523Y895425D01*
X420399Y895846D01*
X420266Y896263D01*
X420122Y896678D01*
X419968Y897088D01*
X419805Y897495D01*
X419631Y897898D01*
X419448Y898296D01*
X419255Y898690D01*
X419052Y899079D01*
X418840Y899463D01*
X418619Y899841D01*
X418388Y900214D01*
X418149Y900582D01*
X417900Y900943D01*
X417643Y901298D01*
X417377Y901647D01*
X417103Y901989D01*
X416821Y902325D01*
X416530Y902653D01*
X416232Y902974D01*
X415925Y903288D01*
X390525Y903288D01*
X390225Y890588D02*
X390229Y890907D01*
X390241Y891226D01*
X390260Y891544D01*
X390288Y891862D01*
X390323Y892179D01*
X390366Y892495D01*
X390416Y892811D01*
X390475Y893124D01*
X390541Y893436D01*
X390615Y893747D01*
X390696Y894055D01*
X390785Y894362D01*
X390881Y894666D01*
X390985Y894968D01*
X391096Y895267D01*
X391215Y895563D01*
X391340Y895856D01*
X391473Y896146D01*
X391613Y896433D01*
X391760Y896716D01*
X391914Y896996D01*
X392075Y897271D01*
X392242Y897543D01*
X392416Y897810D01*
X392596Y898074D01*
X392783Y898332D01*
X392976Y898586D01*
X393176Y898835D01*
X393381Y899079D01*
X393593Y899318D01*
X393810Y899552D01*
X394033Y899780D01*
X394261Y900003D01*
X394495Y900220D01*
X394734Y900432D01*
X394978Y900637D01*
X395227Y900837D01*
X395481Y901030D01*
X395739Y901217D01*
X396003Y901397D01*
X396270Y901571D01*
X396542Y901738D01*
X396817Y901899D01*
X397097Y902053D01*
X397380Y902200D01*
X397667Y902340D01*
X397957Y902473D01*
X398250Y902598D01*
X398546Y902717D01*
X398845Y902828D01*
X399147Y902932D01*
X399451Y903028D01*
X399758Y903117D01*
X400066Y903198D01*
X400377Y903272D01*
X400689Y903338D01*
X401002Y903397D01*
X401318Y903447D01*
X401634Y903490D01*
X401951Y903525D01*
X402269Y903553D01*
X402587Y903572D01*
X402906Y903584D01*
X403225Y903588D01*
X403544Y903584D01*
X403863Y903572D01*
X404181Y903553D01*
X404499Y903525D01*
X404816Y903490D01*
X405132Y903447D01*
X405448Y903397D01*
X405761Y903338D01*
X406073Y903272D01*
X406384Y903198D01*
X406692Y903117D01*
X406999Y903028D01*
X407303Y902932D01*
X407605Y902828D01*
X407904Y902717D01*
X408200Y902598D01*
X408493Y902473D01*
X408783Y902340D01*
X409070Y902200D01*
X409353Y902053D01*
X409633Y901899D01*
X409908Y901738D01*
X410180Y901571D01*
X410447Y901397D01*
X410711Y901217D01*
X410969Y901030D01*
X411223Y900837D01*
X411472Y900637D01*
X411716Y900432D01*
X411955Y900220D01*
X412189Y900003D01*
X412417Y899780D01*
X412640Y899552D01*
X412857Y899318D01*
X413069Y899079D01*
X413274Y898835D01*
X413474Y898586D01*
X413667Y898332D01*
X413854Y898074D01*
X414034Y897810D01*
X414208Y897543D01*
X414375Y897271D01*
X414536Y896996D01*
X414690Y896716D01*
X414837Y896433D01*
X414977Y896146D01*
X415110Y895856D01*
X415235Y895563D01*
X415354Y895267D01*
X415465Y894968D01*
X415569Y894666D01*
X415665Y894362D01*
X415754Y894055D01*
X415835Y893747D01*
X415909Y893436D01*
X415975Y893124D01*
X416034Y892811D01*
X416084Y892495D01*
X416127Y892179D01*
X416162Y891862D01*
X416190Y891544D01*
X416209Y891226D01*
X416221Y890907D01*
X416225Y890588D01*
X416221Y890269D01*
X416209Y889950D01*
X416190Y889632D01*
X416162Y889314D01*
X416127Y888997D01*
X416084Y888681D01*
X416034Y888365D01*
X415975Y888052D01*
X415909Y887740D01*
X415835Y887429D01*
X415754Y887121D01*
X415665Y886814D01*
X415569Y886510D01*
X415465Y886208D01*
X415354Y885909D01*
X415235Y885613D01*
X415110Y885320D01*
X414977Y885030D01*
X414837Y884743D01*
X414690Y884460D01*
X414536Y884180D01*
X414375Y883905D01*
X414208Y883633D01*
X414034Y883366D01*
X413854Y883102D01*
X413667Y882844D01*
X413474Y882590D01*
X413274Y882341D01*
X413069Y882097D01*
X412857Y881858D01*
X412640Y881624D01*
X412417Y881396D01*
X412189Y881173D01*
X411955Y880956D01*
X411716Y880744D01*
X411472Y880539D01*
X411223Y880339D01*
X410969Y880146D01*
X410711Y879959D01*
X410447Y879779D01*
X410180Y879605D01*
X409908Y879438D01*
X409633Y879277D01*
X409353Y879123D01*
X409070Y878976D01*
X408783Y878836D01*
X408493Y878703D01*
X408200Y878578D01*
X407904Y878459D01*
X407605Y878348D01*
X407303Y878244D01*
X406999Y878148D01*
X406692Y878059D01*
X406384Y877978D01*
X406073Y877904D01*
X405761Y877838D01*
X405448Y877779D01*
X405132Y877729D01*
X404816Y877686D01*
X404499Y877651D01*
X404181Y877623D01*
X403863Y877604D01*
X403544Y877592D01*
X403225Y877588D01*
X402906Y877592D01*
X402587Y877604D01*
X402269Y877623D01*
X401951Y877651D01*
X401634Y877686D01*
X401318Y877729D01*
X401002Y877779D01*
X400689Y877838D01*
X400377Y877904D01*
X400066Y877978D01*
X399758Y878059D01*
X399451Y878148D01*
X399147Y878244D01*
X398845Y878348D01*
X398546Y878459D01*
X398250Y878578D01*
X397957Y878703D01*
X397667Y878836D01*
X397380Y878976D01*
X397097Y879123D01*
X396817Y879277D01*
X396542Y879438D01*
X396270Y879605D01*
X396003Y879779D01*
X395739Y879959D01*
X395481Y880146D01*
X395227Y880339D01*
X394978Y880539D01*
X394734Y880744D01*
X394495Y880956D01*
X394261Y881173D01*
X394033Y881396D01*
X393810Y881624D01*
X393593Y881858D01*
X393381Y882097D01*
X393176Y882341D01*
X392976Y882590D01*
X392783Y882844D01*
X392596Y883102D01*
X392416Y883366D01*
X392242Y883633D01*
X392075Y883905D01*
X391914Y884180D01*
X391760Y884460D01*
X391613Y884743D01*
X391473Y885030D01*
X391340Y885320D01*
X391215Y885613D01*
X391096Y885909D01*
X390985Y886208D01*
X390881Y886510D01*
X390785Y886814D01*
X390696Y887121D01*
X390615Y887429D01*
X390541Y887740D01*
X390475Y888052D01*
X390416Y888365D01*
X390366Y888681D01*
X390323Y888997D01*
X390288Y889314D01*
X390260Y889632D01*
X390241Y889950D01*
X390229Y890269D01*
X390225Y890588D01*
D14*
X380625Y876907D02*
X373253Y876907D01*
X373253Y881822D01*
X380625Y884392D02*
X380625Y889306D01*
X380625Y884392D02*
X373253Y884392D01*
X373253Y889306D01*
X376939Y886849D02*
X376939Y884392D01*
X380625Y891876D02*
X373253Y891876D01*
X373253Y895562D01*
X374482Y896791D01*
X379397Y896791D01*
X380625Y895562D01*
X380625Y891876D01*
X374482Y899360D02*
X373253Y900589D01*
X373253Y903046D01*
X374482Y904275D01*
X379397Y904275D01*
X380625Y903046D01*
X380625Y900589D01*
X379397Y899360D01*
X378168Y899360D01*
X376939Y900589D01*
X376939Y904275D01*
D10*
X504825Y903288D02*
X504518Y902974D01*
X504220Y902653D01*
X503929Y902325D01*
X503647Y901989D01*
X503373Y901647D01*
X503107Y901298D01*
X502850Y900943D01*
X502601Y900582D01*
X502362Y900214D01*
X502131Y899841D01*
X501910Y899463D01*
X501698Y899079D01*
X501495Y898690D01*
X501302Y898296D01*
X501119Y897898D01*
X500945Y897495D01*
X500782Y897088D01*
X500628Y896678D01*
X500484Y896263D01*
X500351Y895846D01*
X500227Y895425D01*
X500115Y895001D01*
X500012Y894575D01*
X499920Y894146D01*
X499838Y893715D01*
X499767Y893282D01*
X499707Y892848D01*
X499657Y892412D01*
X499618Y891975D01*
X499589Y891538D01*
X499571Y891100D01*
X499564Y890661D01*
X499568Y890223D01*
X499582Y889784D01*
X499607Y889346D01*
X499643Y888909D01*
X499689Y888473D01*
X499746Y888038D01*
X499813Y887605D01*
X499892Y887174D01*
X499980Y886744D01*
X500079Y886317D01*
X500189Y885892D01*
X500308Y885470D01*
X500439Y885052D01*
X500579Y884636D01*
X500729Y884224D01*
X500890Y883816D01*
X501060Y883412D01*
X501240Y883012D01*
X501430Y882617D01*
X501629Y882226D01*
X501838Y881841D01*
X502056Y881460D01*
X502284Y881085D01*
X502520Y880716D01*
X502766Y880353D01*
X503020Y879995D01*
X503283Y879644D01*
X503554Y879300D01*
X503834Y878962D01*
X504122Y878631D01*
X504418Y878308D01*
X504722Y877991D01*
X505033Y877683D01*
X505352Y877381D01*
X505678Y877088D01*
X506011Y876803D01*
X506351Y876526D01*
X506698Y876257D01*
X507051Y875997D01*
X507410Y875746D01*
X507775Y875503D01*
X508147Y875270D01*
X508523Y875046D01*
X508906Y874830D01*
X509293Y874625D01*
X509685Y874428D01*
X510082Y874242D01*
X510483Y874065D01*
X510889Y873898D01*
X511298Y873741D01*
X511711Y873594D01*
X512128Y873457D01*
X512548Y873330D01*
X512971Y873214D01*
X513396Y873108D01*
X513824Y873012D01*
X514254Y872927D01*
X514686Y872853D01*
X515120Y872789D01*
X515556Y872735D01*
X515992Y872693D01*
X516429Y872660D01*
X516867Y872639D01*
X517306Y872628D01*
X517744Y872628D01*
X518183Y872639D01*
X518621Y872660D01*
X519058Y872693D01*
X519494Y872735D01*
X519930Y872789D01*
X520364Y872853D01*
X520796Y872927D01*
X521226Y873012D01*
X521654Y873108D01*
X522079Y873214D01*
X522502Y873330D01*
X522922Y873457D01*
X523339Y873594D01*
X523752Y873741D01*
X524161Y873898D01*
X524567Y874065D01*
X524968Y874242D01*
X525365Y874428D01*
X525757Y874625D01*
X526144Y874830D01*
X526527Y875046D01*
X526903Y875270D01*
X527275Y875503D01*
X527640Y875746D01*
X527999Y875997D01*
X528352Y876257D01*
X528699Y876526D01*
X529039Y876803D01*
X529372Y877088D01*
X529698Y877381D01*
X530017Y877683D01*
X530328Y877991D01*
X530632Y878308D01*
X530928Y878631D01*
X531216Y878962D01*
X531496Y879300D01*
X531767Y879644D01*
X532030Y879995D01*
X532284Y880353D01*
X532530Y880716D01*
X532766Y881085D01*
X532994Y881460D01*
X533212Y881841D01*
X533421Y882226D01*
X533620Y882617D01*
X533810Y883012D01*
X533990Y883412D01*
X534160Y883816D01*
X534321Y884224D01*
X534471Y884636D01*
X534611Y885052D01*
X534742Y885470D01*
X534861Y885892D01*
X534971Y886317D01*
X535070Y886744D01*
X535158Y887174D01*
X535237Y887605D01*
X535304Y888038D01*
X535361Y888473D01*
X535407Y888909D01*
X535443Y889346D01*
X535468Y889784D01*
X535482Y890223D01*
X535486Y890661D01*
X535479Y891100D01*
X535461Y891538D01*
X535432Y891975D01*
X535393Y892412D01*
X535343Y892848D01*
X535283Y893282D01*
X535212Y893715D01*
X535130Y894146D01*
X535038Y894575D01*
X534935Y895001D01*
X534823Y895425D01*
X534699Y895846D01*
X534566Y896263D01*
X534422Y896678D01*
X534268Y897088D01*
X534105Y897495D01*
X533931Y897898D01*
X533748Y898296D01*
X533555Y898690D01*
X533352Y899079D01*
X533140Y899463D01*
X532919Y899841D01*
X532688Y900214D01*
X532449Y900582D01*
X532200Y900943D01*
X531943Y901298D01*
X531677Y901647D01*
X531403Y901989D01*
X531121Y902325D01*
X530830Y902653D01*
X530532Y902974D01*
X530225Y903288D01*
X504825Y903288D01*
X504525Y890588D02*
X504529Y890907D01*
X504541Y891226D01*
X504560Y891544D01*
X504588Y891862D01*
X504623Y892179D01*
X504666Y892495D01*
X504716Y892811D01*
X504775Y893124D01*
X504841Y893436D01*
X504915Y893747D01*
X504996Y894055D01*
X505085Y894362D01*
X505181Y894666D01*
X505285Y894968D01*
X505396Y895267D01*
X505515Y895563D01*
X505640Y895856D01*
X505773Y896146D01*
X505913Y896433D01*
X506060Y896716D01*
X506214Y896996D01*
X506375Y897271D01*
X506542Y897543D01*
X506716Y897810D01*
X506896Y898074D01*
X507083Y898332D01*
X507276Y898586D01*
X507476Y898835D01*
X507681Y899079D01*
X507893Y899318D01*
X508110Y899552D01*
X508333Y899780D01*
X508561Y900003D01*
X508795Y900220D01*
X509034Y900432D01*
X509278Y900637D01*
X509527Y900837D01*
X509781Y901030D01*
X510039Y901217D01*
X510303Y901397D01*
X510570Y901571D01*
X510842Y901738D01*
X511117Y901899D01*
X511397Y902053D01*
X511680Y902200D01*
X511967Y902340D01*
X512257Y902473D01*
X512550Y902598D01*
X512846Y902717D01*
X513145Y902828D01*
X513447Y902932D01*
X513751Y903028D01*
X514058Y903117D01*
X514366Y903198D01*
X514677Y903272D01*
X514989Y903338D01*
X515302Y903397D01*
X515618Y903447D01*
X515934Y903490D01*
X516251Y903525D01*
X516569Y903553D01*
X516887Y903572D01*
X517206Y903584D01*
X517525Y903588D01*
X517844Y903584D01*
X518163Y903572D01*
X518481Y903553D01*
X518799Y903525D01*
X519116Y903490D01*
X519432Y903447D01*
X519748Y903397D01*
X520061Y903338D01*
X520373Y903272D01*
X520684Y903198D01*
X520992Y903117D01*
X521299Y903028D01*
X521603Y902932D01*
X521905Y902828D01*
X522204Y902717D01*
X522500Y902598D01*
X522793Y902473D01*
X523083Y902340D01*
X523370Y902200D01*
X523653Y902053D01*
X523933Y901899D01*
X524208Y901738D01*
X524480Y901571D01*
X524747Y901397D01*
X525011Y901217D01*
X525269Y901030D01*
X525523Y900837D01*
X525772Y900637D01*
X526016Y900432D01*
X526255Y900220D01*
X526489Y900003D01*
X526717Y899780D01*
X526940Y899552D01*
X527157Y899318D01*
X527369Y899079D01*
X527574Y898835D01*
X527774Y898586D01*
X527967Y898332D01*
X528154Y898074D01*
X528334Y897810D01*
X528508Y897543D01*
X528675Y897271D01*
X528836Y896996D01*
X528990Y896716D01*
X529137Y896433D01*
X529277Y896146D01*
X529410Y895856D01*
X529535Y895563D01*
X529654Y895267D01*
X529765Y894968D01*
X529869Y894666D01*
X529965Y894362D01*
X530054Y894055D01*
X530135Y893747D01*
X530209Y893436D01*
X530275Y893124D01*
X530334Y892811D01*
X530384Y892495D01*
X530427Y892179D01*
X530462Y891862D01*
X530490Y891544D01*
X530509Y891226D01*
X530521Y890907D01*
X530525Y890588D01*
X530521Y890269D01*
X530509Y889950D01*
X530490Y889632D01*
X530462Y889314D01*
X530427Y888997D01*
X530384Y888681D01*
X530334Y888365D01*
X530275Y888052D01*
X530209Y887740D01*
X530135Y887429D01*
X530054Y887121D01*
X529965Y886814D01*
X529869Y886510D01*
X529765Y886208D01*
X529654Y885909D01*
X529535Y885613D01*
X529410Y885320D01*
X529277Y885030D01*
X529137Y884743D01*
X528990Y884460D01*
X528836Y884180D01*
X528675Y883905D01*
X528508Y883633D01*
X528334Y883366D01*
X528154Y883102D01*
X527967Y882844D01*
X527774Y882590D01*
X527574Y882341D01*
X527369Y882097D01*
X527157Y881858D01*
X526940Y881624D01*
X526717Y881396D01*
X526489Y881173D01*
X526255Y880956D01*
X526016Y880744D01*
X525772Y880539D01*
X525523Y880339D01*
X525269Y880146D01*
X525011Y879959D01*
X524747Y879779D01*
X524480Y879605D01*
X524208Y879438D01*
X523933Y879277D01*
X523653Y879123D01*
X523370Y878976D01*
X523083Y878836D01*
X522793Y878703D01*
X522500Y878578D01*
X522204Y878459D01*
X521905Y878348D01*
X521603Y878244D01*
X521299Y878148D01*
X520992Y878059D01*
X520684Y877978D01*
X520373Y877904D01*
X520061Y877838D01*
X519748Y877779D01*
X519432Y877729D01*
X519116Y877686D01*
X518799Y877651D01*
X518481Y877623D01*
X518163Y877604D01*
X517844Y877592D01*
X517525Y877588D01*
X517206Y877592D01*
X516887Y877604D01*
X516569Y877623D01*
X516251Y877651D01*
X515934Y877686D01*
X515618Y877729D01*
X515302Y877779D01*
X514989Y877838D01*
X514677Y877904D01*
X514366Y877978D01*
X514058Y878059D01*
X513751Y878148D01*
X513447Y878244D01*
X513145Y878348D01*
X512846Y878459D01*
X512550Y878578D01*
X512257Y878703D01*
X511967Y878836D01*
X511680Y878976D01*
X511397Y879123D01*
X511117Y879277D01*
X510842Y879438D01*
X510570Y879605D01*
X510303Y879779D01*
X510039Y879959D01*
X509781Y880146D01*
X509527Y880339D01*
X509278Y880539D01*
X509034Y880744D01*
X508795Y880956D01*
X508561Y881173D01*
X508333Y881396D01*
X508110Y881624D01*
X507893Y881858D01*
X507681Y882097D01*
X507476Y882341D01*
X507276Y882590D01*
X507083Y882844D01*
X506896Y883102D01*
X506716Y883366D01*
X506542Y883633D01*
X506375Y883905D01*
X506214Y884180D01*
X506060Y884460D01*
X505913Y884743D01*
X505773Y885030D01*
X505640Y885320D01*
X505515Y885613D01*
X505396Y885909D01*
X505285Y886208D01*
X505181Y886510D01*
X505085Y886814D01*
X504996Y887121D01*
X504915Y887429D01*
X504841Y887740D01*
X504775Y888052D01*
X504716Y888365D01*
X504666Y888681D01*
X504623Y888997D01*
X504588Y889314D01*
X504560Y889632D01*
X504541Y889950D01*
X504529Y890269D01*
X504525Y890588D01*
D14*
X538353Y876907D02*
X545725Y876907D01*
X538353Y876907D02*
X538353Y881822D01*
X545725Y884392D02*
X545725Y889306D01*
X545725Y884392D02*
X538353Y884392D01*
X538353Y889306D01*
X542039Y886849D02*
X542039Y884392D01*
X545725Y891876D02*
X538353Y891876D01*
X538353Y895562D01*
X539582Y896791D01*
X544497Y896791D01*
X545725Y895562D01*
X545725Y891876D01*
X544497Y899360D02*
X545725Y900589D01*
X545725Y903046D01*
X544497Y904275D01*
X543268Y904275D01*
X542039Y903046D01*
X540810Y904275D01*
X539582Y904275D01*
X538353Y903046D01*
X538353Y900589D01*
X539582Y899360D01*
X540810Y899360D01*
X542039Y900589D01*
X543268Y899360D01*
X544497Y899360D01*
X542039Y900589D02*
X542039Y903046D01*
D10*
X619125Y903286D02*
X618818Y902972D01*
X618520Y902651D01*
X618229Y902323D01*
X617947Y901987D01*
X617673Y901645D01*
X617407Y901296D01*
X617150Y900941D01*
X616901Y900580D01*
X616662Y900212D01*
X616431Y899839D01*
X616210Y899461D01*
X615998Y899077D01*
X615795Y898688D01*
X615602Y898294D01*
X615419Y897896D01*
X615245Y897493D01*
X615082Y897086D01*
X614928Y896676D01*
X614784Y896261D01*
X614651Y895844D01*
X614527Y895423D01*
X614415Y894999D01*
X614312Y894573D01*
X614220Y894144D01*
X614138Y893713D01*
X614067Y893280D01*
X614007Y892846D01*
X613957Y892410D01*
X613918Y891973D01*
X613889Y891536D01*
X613871Y891098D01*
X613864Y890659D01*
X613868Y890221D01*
X613882Y889782D01*
X613907Y889344D01*
X613943Y888907D01*
X613989Y888471D01*
X614046Y888036D01*
X614113Y887603D01*
X614192Y887172D01*
X614280Y886742D01*
X614379Y886315D01*
X614489Y885890D01*
X614608Y885468D01*
X614739Y885050D01*
X614879Y884634D01*
X615029Y884222D01*
X615190Y883814D01*
X615360Y883410D01*
X615540Y883010D01*
X615730Y882615D01*
X615929Y882224D01*
X616138Y881839D01*
X616356Y881458D01*
X616584Y881083D01*
X616820Y880714D01*
X617066Y880351D01*
X617320Y879993D01*
X617583Y879642D01*
X617854Y879298D01*
X618134Y878960D01*
X618422Y878629D01*
X618718Y878306D01*
X619022Y877989D01*
X619333Y877681D01*
X619652Y877379D01*
X619978Y877086D01*
X620311Y876801D01*
X620651Y876524D01*
X620998Y876255D01*
X621351Y875995D01*
X621710Y875744D01*
X622075Y875501D01*
X622447Y875268D01*
X622823Y875044D01*
X623206Y874828D01*
X623593Y874623D01*
X623985Y874426D01*
X624382Y874240D01*
X624783Y874063D01*
X625189Y873896D01*
X625598Y873739D01*
X626011Y873592D01*
X626428Y873455D01*
X626848Y873328D01*
X627271Y873212D01*
X627696Y873106D01*
X628124Y873010D01*
X628554Y872925D01*
X628986Y872851D01*
X629420Y872787D01*
X629856Y872733D01*
X630292Y872691D01*
X630729Y872658D01*
X631167Y872637D01*
X631606Y872626D01*
X632044Y872626D01*
X632483Y872637D01*
X632921Y872658D01*
X633358Y872691D01*
X633794Y872733D01*
X634230Y872787D01*
X634664Y872851D01*
X635096Y872925D01*
X635526Y873010D01*
X635954Y873106D01*
X636379Y873212D01*
X636802Y873328D01*
X637222Y873455D01*
X637639Y873592D01*
X638052Y873739D01*
X638461Y873896D01*
X638867Y874063D01*
X639268Y874240D01*
X639665Y874426D01*
X640057Y874623D01*
X640444Y874828D01*
X640827Y875044D01*
X641203Y875268D01*
X641575Y875501D01*
X641940Y875744D01*
X642299Y875995D01*
X642652Y876255D01*
X642999Y876524D01*
X643339Y876801D01*
X643672Y877086D01*
X643998Y877379D01*
X644317Y877681D01*
X644628Y877989D01*
X644932Y878306D01*
X645228Y878629D01*
X645516Y878960D01*
X645796Y879298D01*
X646067Y879642D01*
X646330Y879993D01*
X646584Y880351D01*
X646830Y880714D01*
X647066Y881083D01*
X647294Y881458D01*
X647512Y881839D01*
X647721Y882224D01*
X647920Y882615D01*
X648110Y883010D01*
X648290Y883410D01*
X648460Y883814D01*
X648621Y884222D01*
X648771Y884634D01*
X648911Y885050D01*
X649042Y885468D01*
X649161Y885890D01*
X649271Y886315D01*
X649370Y886742D01*
X649458Y887172D01*
X649537Y887603D01*
X649604Y888036D01*
X649661Y888471D01*
X649707Y888907D01*
X649743Y889344D01*
X649768Y889782D01*
X649782Y890221D01*
X649786Y890659D01*
X649779Y891098D01*
X649761Y891536D01*
X649732Y891973D01*
X649693Y892410D01*
X649643Y892846D01*
X649583Y893280D01*
X649512Y893713D01*
X649430Y894144D01*
X649338Y894573D01*
X649235Y894999D01*
X649123Y895423D01*
X648999Y895844D01*
X648866Y896261D01*
X648722Y896676D01*
X648568Y897086D01*
X648405Y897493D01*
X648231Y897896D01*
X648048Y898294D01*
X647855Y898688D01*
X647652Y899077D01*
X647440Y899461D01*
X647219Y899839D01*
X646988Y900212D01*
X646749Y900580D01*
X646500Y900941D01*
X646243Y901296D01*
X645977Y901645D01*
X645703Y901987D01*
X645421Y902323D01*
X645130Y902651D01*
X644832Y902972D01*
X644525Y903286D01*
X619125Y903286D01*
X618825Y890586D02*
X618829Y890905D01*
X618841Y891224D01*
X618860Y891542D01*
X618888Y891860D01*
X618923Y892177D01*
X618966Y892493D01*
X619016Y892809D01*
X619075Y893122D01*
X619141Y893434D01*
X619215Y893745D01*
X619296Y894053D01*
X619385Y894360D01*
X619481Y894664D01*
X619585Y894966D01*
X619696Y895265D01*
X619815Y895561D01*
X619940Y895854D01*
X620073Y896144D01*
X620213Y896431D01*
X620360Y896714D01*
X620514Y896994D01*
X620675Y897269D01*
X620842Y897541D01*
X621016Y897808D01*
X621196Y898072D01*
X621383Y898330D01*
X621576Y898584D01*
X621776Y898833D01*
X621981Y899077D01*
X622193Y899316D01*
X622410Y899550D01*
X622633Y899778D01*
X622861Y900001D01*
X623095Y900218D01*
X623334Y900430D01*
X623578Y900635D01*
X623827Y900835D01*
X624081Y901028D01*
X624339Y901215D01*
X624603Y901395D01*
X624870Y901569D01*
X625142Y901736D01*
X625417Y901897D01*
X625697Y902051D01*
X625980Y902198D01*
X626267Y902338D01*
X626557Y902471D01*
X626850Y902596D01*
X627146Y902715D01*
X627445Y902826D01*
X627747Y902930D01*
X628051Y903026D01*
X628358Y903115D01*
X628666Y903196D01*
X628977Y903270D01*
X629289Y903336D01*
X629602Y903395D01*
X629918Y903445D01*
X630234Y903488D01*
X630551Y903523D01*
X630869Y903551D01*
X631187Y903570D01*
X631506Y903582D01*
X631825Y903586D01*
X632144Y903582D01*
X632463Y903570D01*
X632781Y903551D01*
X633099Y903523D01*
X633416Y903488D01*
X633732Y903445D01*
X634048Y903395D01*
X634361Y903336D01*
X634673Y903270D01*
X634984Y903196D01*
X635292Y903115D01*
X635599Y903026D01*
X635903Y902930D01*
X636205Y902826D01*
X636504Y902715D01*
X636800Y902596D01*
X637093Y902471D01*
X637383Y902338D01*
X637670Y902198D01*
X637953Y902051D01*
X638233Y901897D01*
X638508Y901736D01*
X638780Y901569D01*
X639047Y901395D01*
X639311Y901215D01*
X639569Y901028D01*
X639823Y900835D01*
X640072Y900635D01*
X640316Y900430D01*
X640555Y900218D01*
X640789Y900001D01*
X641017Y899778D01*
X641240Y899550D01*
X641457Y899316D01*
X641669Y899077D01*
X641874Y898833D01*
X642074Y898584D01*
X642267Y898330D01*
X642454Y898072D01*
X642634Y897808D01*
X642808Y897541D01*
X642975Y897269D01*
X643136Y896994D01*
X643290Y896714D01*
X643437Y896431D01*
X643577Y896144D01*
X643710Y895854D01*
X643835Y895561D01*
X643954Y895265D01*
X644065Y894966D01*
X644169Y894664D01*
X644265Y894360D01*
X644354Y894053D01*
X644435Y893745D01*
X644509Y893434D01*
X644575Y893122D01*
X644634Y892809D01*
X644684Y892493D01*
X644727Y892177D01*
X644762Y891860D01*
X644790Y891542D01*
X644809Y891224D01*
X644821Y890905D01*
X644825Y890586D01*
X644821Y890267D01*
X644809Y889948D01*
X644790Y889630D01*
X644762Y889312D01*
X644727Y888995D01*
X644684Y888679D01*
X644634Y888363D01*
X644575Y888050D01*
X644509Y887738D01*
X644435Y887427D01*
X644354Y887119D01*
X644265Y886812D01*
X644169Y886508D01*
X644065Y886206D01*
X643954Y885907D01*
X643835Y885611D01*
X643710Y885318D01*
X643577Y885028D01*
X643437Y884741D01*
X643290Y884458D01*
X643136Y884178D01*
X642975Y883903D01*
X642808Y883631D01*
X642634Y883364D01*
X642454Y883100D01*
X642267Y882842D01*
X642074Y882588D01*
X641874Y882339D01*
X641669Y882095D01*
X641457Y881856D01*
X641240Y881622D01*
X641017Y881394D01*
X640789Y881171D01*
X640555Y880954D01*
X640316Y880742D01*
X640072Y880537D01*
X639823Y880337D01*
X639569Y880144D01*
X639311Y879957D01*
X639047Y879777D01*
X638780Y879603D01*
X638508Y879436D01*
X638233Y879275D01*
X637953Y879121D01*
X637670Y878974D01*
X637383Y878834D01*
X637093Y878701D01*
X636800Y878576D01*
X636504Y878457D01*
X636205Y878346D01*
X635903Y878242D01*
X635599Y878146D01*
X635292Y878057D01*
X634984Y877976D01*
X634673Y877902D01*
X634361Y877836D01*
X634048Y877777D01*
X633732Y877727D01*
X633416Y877684D01*
X633099Y877649D01*
X632781Y877621D01*
X632463Y877602D01*
X632144Y877590D01*
X631825Y877586D01*
X631506Y877590D01*
X631187Y877602D01*
X630869Y877621D01*
X630551Y877649D01*
X630234Y877684D01*
X629918Y877727D01*
X629602Y877777D01*
X629289Y877836D01*
X628977Y877902D01*
X628666Y877976D01*
X628358Y878057D01*
X628051Y878146D01*
X627747Y878242D01*
X627445Y878346D01*
X627146Y878457D01*
X626850Y878576D01*
X626557Y878701D01*
X626267Y878834D01*
X625980Y878974D01*
X625697Y879121D01*
X625417Y879275D01*
X625142Y879436D01*
X624870Y879603D01*
X624603Y879777D01*
X624339Y879957D01*
X624081Y880144D01*
X623827Y880337D01*
X623578Y880537D01*
X623334Y880742D01*
X623095Y880954D01*
X622861Y881171D01*
X622633Y881394D01*
X622410Y881622D01*
X622193Y881856D01*
X621981Y882095D01*
X621776Y882339D01*
X621576Y882588D01*
X621383Y882842D01*
X621196Y883100D01*
X621016Y883364D01*
X620842Y883631D01*
X620675Y883903D01*
X620514Y884178D01*
X620360Y884458D01*
X620213Y884741D01*
X620073Y885028D01*
X619940Y885318D01*
X619815Y885611D01*
X619696Y885907D01*
X619585Y886206D01*
X619481Y886508D01*
X619385Y886812D01*
X619296Y887119D01*
X619215Y887427D01*
X619141Y887738D01*
X619075Y888050D01*
X619016Y888363D01*
X618966Y888679D01*
X618923Y888995D01*
X618888Y889312D01*
X618860Y889630D01*
X618841Y889948D01*
X618829Y890267D01*
X618825Y890586D01*
D14*
X609225Y876905D02*
X601853Y876905D01*
X601853Y881820D01*
X609225Y884390D02*
X609225Y889304D01*
X609225Y884390D02*
X601853Y884390D01*
X601853Y889304D01*
X605539Y886847D02*
X605539Y884390D01*
X609225Y891874D02*
X601853Y891874D01*
X601853Y895560D01*
X603082Y896789D01*
X607997Y896789D01*
X609225Y895560D01*
X609225Y891874D01*
X609225Y899358D02*
X609225Y904273D01*
X607997Y904273D01*
X603082Y899358D01*
X601853Y899358D01*
D10*
X301625Y903288D02*
X301932Y902974D01*
X302230Y902653D01*
X302521Y902325D01*
X302803Y901989D01*
X303077Y901647D01*
X303343Y901298D01*
X303600Y900943D01*
X303849Y900582D01*
X304088Y900214D01*
X304319Y899841D01*
X304540Y899463D01*
X304752Y899079D01*
X304955Y898690D01*
X305148Y898296D01*
X305331Y897898D01*
X305505Y897495D01*
X305668Y897088D01*
X305822Y896678D01*
X305966Y896263D01*
X306099Y895846D01*
X306223Y895425D01*
X306335Y895001D01*
X306438Y894575D01*
X306530Y894146D01*
X306612Y893715D01*
X306683Y893282D01*
X306743Y892848D01*
X306793Y892412D01*
X306832Y891975D01*
X306861Y891538D01*
X306879Y891100D01*
X306886Y890661D01*
X306882Y890223D01*
X306868Y889784D01*
X306843Y889346D01*
X306807Y888909D01*
X306761Y888473D01*
X306704Y888038D01*
X306637Y887605D01*
X306558Y887174D01*
X306470Y886744D01*
X306371Y886317D01*
X306261Y885892D01*
X306142Y885470D01*
X306011Y885052D01*
X305871Y884636D01*
X305721Y884224D01*
X305560Y883816D01*
X305390Y883412D01*
X305210Y883012D01*
X305020Y882617D01*
X304821Y882226D01*
X304612Y881841D01*
X304394Y881460D01*
X304166Y881085D01*
X303930Y880716D01*
X303684Y880353D01*
X303430Y879995D01*
X303167Y879644D01*
X302896Y879300D01*
X302616Y878962D01*
X302328Y878631D01*
X302032Y878308D01*
X301728Y877991D01*
X301417Y877683D01*
X301098Y877381D01*
X300772Y877088D01*
X300439Y876803D01*
X300099Y876526D01*
X299752Y876257D01*
X299399Y875997D01*
X299040Y875746D01*
X298675Y875503D01*
X298303Y875270D01*
X297927Y875046D01*
X297544Y874830D01*
X297157Y874625D01*
X296765Y874428D01*
X296368Y874242D01*
X295967Y874065D01*
X295561Y873898D01*
X295152Y873741D01*
X294739Y873594D01*
X294322Y873457D01*
X293902Y873330D01*
X293479Y873214D01*
X293054Y873108D01*
X292626Y873012D01*
X292196Y872927D01*
X291764Y872853D01*
X291330Y872789D01*
X290894Y872735D01*
X290458Y872693D01*
X290021Y872660D01*
X289583Y872639D01*
X289144Y872628D01*
X288706Y872628D01*
X288267Y872639D01*
X287829Y872660D01*
X287392Y872693D01*
X286956Y872735D01*
X286520Y872789D01*
X286086Y872853D01*
X285654Y872927D01*
X285224Y873012D01*
X284796Y873108D01*
X284371Y873214D01*
X283948Y873330D01*
X283528Y873457D01*
X283111Y873594D01*
X282698Y873741D01*
X282289Y873898D01*
X281883Y874065D01*
X281482Y874242D01*
X281085Y874428D01*
X280693Y874625D01*
X280306Y874830D01*
X279923Y875046D01*
X279547Y875270D01*
X279175Y875503D01*
X278810Y875746D01*
X278451Y875997D01*
X278098Y876257D01*
X277751Y876526D01*
X277411Y876803D01*
X277078Y877088D01*
X276752Y877381D01*
X276433Y877683D01*
X276122Y877991D01*
X275818Y878308D01*
X275522Y878631D01*
X275234Y878962D01*
X274954Y879300D01*
X274683Y879644D01*
X274420Y879995D01*
X274166Y880353D01*
X273920Y880716D01*
X273684Y881085D01*
X273456Y881460D01*
X273238Y881841D01*
X273029Y882226D01*
X272830Y882617D01*
X272640Y883012D01*
X272460Y883412D01*
X272290Y883816D01*
X272129Y884224D01*
X271979Y884636D01*
X271839Y885052D01*
X271708Y885470D01*
X271589Y885892D01*
X271479Y886317D01*
X271380Y886744D01*
X271292Y887174D01*
X271213Y887605D01*
X271146Y888038D01*
X271089Y888473D01*
X271043Y888909D01*
X271007Y889346D01*
X270982Y889784D01*
X270968Y890223D01*
X270964Y890661D01*
X270971Y891100D01*
X270989Y891538D01*
X271018Y891975D01*
X271057Y892412D01*
X271107Y892848D01*
X271167Y893282D01*
X271238Y893715D01*
X271320Y894146D01*
X271412Y894575D01*
X271515Y895001D01*
X271627Y895425D01*
X271751Y895846D01*
X271884Y896263D01*
X272028Y896678D01*
X272182Y897088D01*
X272345Y897495D01*
X272519Y897898D01*
X272702Y898296D01*
X272895Y898690D01*
X273098Y899079D01*
X273310Y899463D01*
X273531Y899841D01*
X273762Y900214D01*
X274001Y900582D01*
X274250Y900943D01*
X274507Y901298D01*
X274773Y901647D01*
X275047Y901989D01*
X275329Y902325D01*
X275620Y902653D01*
X275918Y902974D01*
X276225Y903288D01*
X301625Y903288D01*
X275925Y890588D02*
X275929Y890907D01*
X275941Y891226D01*
X275960Y891544D01*
X275988Y891862D01*
X276023Y892179D01*
X276066Y892495D01*
X276116Y892811D01*
X276175Y893124D01*
X276241Y893436D01*
X276315Y893747D01*
X276396Y894055D01*
X276485Y894362D01*
X276581Y894666D01*
X276685Y894968D01*
X276796Y895267D01*
X276915Y895563D01*
X277040Y895856D01*
X277173Y896146D01*
X277313Y896433D01*
X277460Y896716D01*
X277614Y896996D01*
X277775Y897271D01*
X277942Y897543D01*
X278116Y897810D01*
X278296Y898074D01*
X278483Y898332D01*
X278676Y898586D01*
X278876Y898835D01*
X279081Y899079D01*
X279293Y899318D01*
X279510Y899552D01*
X279733Y899780D01*
X279961Y900003D01*
X280195Y900220D01*
X280434Y900432D01*
X280678Y900637D01*
X280927Y900837D01*
X281181Y901030D01*
X281439Y901217D01*
X281703Y901397D01*
X281970Y901571D01*
X282242Y901738D01*
X282517Y901899D01*
X282797Y902053D01*
X283080Y902200D01*
X283367Y902340D01*
X283657Y902473D01*
X283950Y902598D01*
X284246Y902717D01*
X284545Y902828D01*
X284847Y902932D01*
X285151Y903028D01*
X285458Y903117D01*
X285766Y903198D01*
X286077Y903272D01*
X286389Y903338D01*
X286702Y903397D01*
X287018Y903447D01*
X287334Y903490D01*
X287651Y903525D01*
X287969Y903553D01*
X288287Y903572D01*
X288606Y903584D01*
X288925Y903588D01*
X289244Y903584D01*
X289563Y903572D01*
X289881Y903553D01*
X290199Y903525D01*
X290516Y903490D01*
X290832Y903447D01*
X291148Y903397D01*
X291461Y903338D01*
X291773Y903272D01*
X292084Y903198D01*
X292392Y903117D01*
X292699Y903028D01*
X293003Y902932D01*
X293305Y902828D01*
X293604Y902717D01*
X293900Y902598D01*
X294193Y902473D01*
X294483Y902340D01*
X294770Y902200D01*
X295053Y902053D01*
X295333Y901899D01*
X295608Y901738D01*
X295880Y901571D01*
X296147Y901397D01*
X296411Y901217D01*
X296669Y901030D01*
X296923Y900837D01*
X297172Y900637D01*
X297416Y900432D01*
X297655Y900220D01*
X297889Y900003D01*
X298117Y899780D01*
X298340Y899552D01*
X298557Y899318D01*
X298769Y899079D01*
X298974Y898835D01*
X299174Y898586D01*
X299367Y898332D01*
X299554Y898074D01*
X299734Y897810D01*
X299908Y897543D01*
X300075Y897271D01*
X300236Y896996D01*
X300390Y896716D01*
X300537Y896433D01*
X300677Y896146D01*
X300810Y895856D01*
X300935Y895563D01*
X301054Y895267D01*
X301165Y894968D01*
X301269Y894666D01*
X301365Y894362D01*
X301454Y894055D01*
X301535Y893747D01*
X301609Y893436D01*
X301675Y893124D01*
X301734Y892811D01*
X301784Y892495D01*
X301827Y892179D01*
X301862Y891862D01*
X301890Y891544D01*
X301909Y891226D01*
X301921Y890907D01*
X301925Y890588D01*
X301921Y890269D01*
X301909Y889950D01*
X301890Y889632D01*
X301862Y889314D01*
X301827Y888997D01*
X301784Y888681D01*
X301734Y888365D01*
X301675Y888052D01*
X301609Y887740D01*
X301535Y887429D01*
X301454Y887121D01*
X301365Y886814D01*
X301269Y886510D01*
X301165Y886208D01*
X301054Y885909D01*
X300935Y885613D01*
X300810Y885320D01*
X300677Y885030D01*
X300537Y884743D01*
X300390Y884460D01*
X300236Y884180D01*
X300075Y883905D01*
X299908Y883633D01*
X299734Y883366D01*
X299554Y883102D01*
X299367Y882844D01*
X299174Y882590D01*
X298974Y882341D01*
X298769Y882097D01*
X298557Y881858D01*
X298340Y881624D01*
X298117Y881396D01*
X297889Y881173D01*
X297655Y880956D01*
X297416Y880744D01*
X297172Y880539D01*
X296923Y880339D01*
X296669Y880146D01*
X296411Y879959D01*
X296147Y879779D01*
X295880Y879605D01*
X295608Y879438D01*
X295333Y879277D01*
X295053Y879123D01*
X294770Y878976D01*
X294483Y878836D01*
X294193Y878703D01*
X293900Y878578D01*
X293604Y878459D01*
X293305Y878348D01*
X293003Y878244D01*
X292699Y878148D01*
X292392Y878059D01*
X292084Y877978D01*
X291773Y877904D01*
X291461Y877838D01*
X291148Y877779D01*
X290832Y877729D01*
X290516Y877686D01*
X290199Y877651D01*
X289881Y877623D01*
X289563Y877604D01*
X289244Y877592D01*
X288925Y877588D01*
X288606Y877592D01*
X288287Y877604D01*
X287969Y877623D01*
X287651Y877651D01*
X287334Y877686D01*
X287018Y877729D01*
X286702Y877779D01*
X286389Y877838D01*
X286077Y877904D01*
X285766Y877978D01*
X285458Y878059D01*
X285151Y878148D01*
X284847Y878244D01*
X284545Y878348D01*
X284246Y878459D01*
X283950Y878578D01*
X283657Y878703D01*
X283367Y878836D01*
X283080Y878976D01*
X282797Y879123D01*
X282517Y879277D01*
X282242Y879438D01*
X281970Y879605D01*
X281703Y879779D01*
X281439Y879959D01*
X281181Y880146D01*
X280927Y880339D01*
X280678Y880539D01*
X280434Y880744D01*
X280195Y880956D01*
X279961Y881173D01*
X279733Y881396D01*
X279510Y881624D01*
X279293Y881858D01*
X279081Y882097D01*
X278876Y882341D01*
X278676Y882590D01*
X278483Y882844D01*
X278296Y883102D01*
X278116Y883366D01*
X277942Y883633D01*
X277775Y883905D01*
X277614Y884180D01*
X277460Y884460D01*
X277313Y884743D01*
X277173Y885030D01*
X277040Y885320D01*
X276915Y885613D01*
X276796Y885909D01*
X276685Y886208D01*
X276581Y886510D01*
X276485Y886814D01*
X276396Y887121D01*
X276315Y887429D01*
X276241Y887740D01*
X276175Y888052D01*
X276116Y888365D01*
X276066Y888681D01*
X276023Y888997D01*
X275988Y889314D01*
X275960Y889632D01*
X275941Y889950D01*
X275929Y890269D01*
X275925Y890588D01*
D14*
X309753Y872598D02*
X317125Y872598D01*
X309753Y872598D02*
X309753Y877513D01*
X317125Y880082D02*
X317125Y884997D01*
X317125Y880082D02*
X309753Y880082D01*
X309753Y884997D01*
X313439Y882540D02*
X313439Y880082D01*
X317125Y887567D02*
X309753Y887567D01*
X309753Y891253D01*
X310982Y892481D01*
X315897Y892481D01*
X317125Y891253D01*
X317125Y887567D01*
X314668Y895051D02*
X317125Y897508D01*
X309753Y897508D01*
X309753Y895051D02*
X309753Y899966D01*
X310982Y902535D02*
X315897Y902535D01*
X317125Y903764D01*
X317125Y906221D01*
X315897Y907450D01*
X310982Y907450D01*
X309753Y906221D01*
X309753Y903764D01*
X310982Y902535D01*
X315897Y907450D01*
D10*
X187325Y903288D02*
X187632Y902974D01*
X187930Y902653D01*
X188221Y902325D01*
X188503Y901989D01*
X188777Y901647D01*
X189043Y901298D01*
X189300Y900943D01*
X189549Y900582D01*
X189788Y900214D01*
X190019Y899841D01*
X190240Y899463D01*
X190452Y899079D01*
X190655Y898690D01*
X190848Y898296D01*
X191031Y897898D01*
X191205Y897495D01*
X191368Y897088D01*
X191522Y896678D01*
X191666Y896263D01*
X191799Y895846D01*
X191923Y895425D01*
X192035Y895001D01*
X192138Y894575D01*
X192230Y894146D01*
X192312Y893715D01*
X192383Y893282D01*
X192443Y892848D01*
X192493Y892412D01*
X192532Y891975D01*
X192561Y891538D01*
X192579Y891100D01*
X192586Y890661D01*
X192582Y890223D01*
X192568Y889784D01*
X192543Y889346D01*
X192507Y888909D01*
X192461Y888473D01*
X192404Y888038D01*
X192337Y887605D01*
X192258Y887174D01*
X192170Y886744D01*
X192071Y886317D01*
X191961Y885892D01*
X191842Y885470D01*
X191711Y885052D01*
X191571Y884636D01*
X191421Y884224D01*
X191260Y883816D01*
X191090Y883412D01*
X190910Y883012D01*
X190720Y882617D01*
X190521Y882226D01*
X190312Y881841D01*
X190094Y881460D01*
X189866Y881085D01*
X189630Y880716D01*
X189384Y880353D01*
X189130Y879995D01*
X188867Y879644D01*
X188596Y879300D01*
X188316Y878962D01*
X188028Y878631D01*
X187732Y878308D01*
X187428Y877991D01*
X187117Y877683D01*
X186798Y877381D01*
X186472Y877088D01*
X186139Y876803D01*
X185799Y876526D01*
X185452Y876257D01*
X185099Y875997D01*
X184740Y875746D01*
X184375Y875503D01*
X184003Y875270D01*
X183627Y875046D01*
X183244Y874830D01*
X182857Y874625D01*
X182465Y874428D01*
X182068Y874242D01*
X181667Y874065D01*
X181261Y873898D01*
X180852Y873741D01*
X180439Y873594D01*
X180022Y873457D01*
X179602Y873330D01*
X179179Y873214D01*
X178754Y873108D01*
X178326Y873012D01*
X177896Y872927D01*
X177464Y872853D01*
X177030Y872789D01*
X176594Y872735D01*
X176158Y872693D01*
X175721Y872660D01*
X175283Y872639D01*
X174844Y872628D01*
X174406Y872628D01*
X173967Y872639D01*
X173529Y872660D01*
X173092Y872693D01*
X172656Y872735D01*
X172220Y872789D01*
X171786Y872853D01*
X171354Y872927D01*
X170924Y873012D01*
X170496Y873108D01*
X170071Y873214D01*
X169648Y873330D01*
X169228Y873457D01*
X168811Y873594D01*
X168398Y873741D01*
X167989Y873898D01*
X167583Y874065D01*
X167182Y874242D01*
X166785Y874428D01*
X166393Y874625D01*
X166006Y874830D01*
X165623Y875046D01*
X165247Y875270D01*
X164875Y875503D01*
X164510Y875746D01*
X164151Y875997D01*
X163798Y876257D01*
X163451Y876526D01*
X163111Y876803D01*
X162778Y877088D01*
X162452Y877381D01*
X162133Y877683D01*
X161822Y877991D01*
X161518Y878308D01*
X161222Y878631D01*
X160934Y878962D01*
X160654Y879300D01*
X160383Y879644D01*
X160120Y879995D01*
X159866Y880353D01*
X159620Y880716D01*
X159384Y881085D01*
X159156Y881460D01*
X158938Y881841D01*
X158729Y882226D01*
X158530Y882617D01*
X158340Y883012D01*
X158160Y883412D01*
X157990Y883816D01*
X157829Y884224D01*
X157679Y884636D01*
X157539Y885052D01*
X157408Y885470D01*
X157289Y885892D01*
X157179Y886317D01*
X157080Y886744D01*
X156992Y887174D01*
X156913Y887605D01*
X156846Y888038D01*
X156789Y888473D01*
X156743Y888909D01*
X156707Y889346D01*
X156682Y889784D01*
X156668Y890223D01*
X156664Y890661D01*
X156671Y891100D01*
X156689Y891538D01*
X156718Y891975D01*
X156757Y892412D01*
X156807Y892848D01*
X156867Y893282D01*
X156938Y893715D01*
X157020Y894146D01*
X157112Y894575D01*
X157215Y895001D01*
X157327Y895425D01*
X157451Y895846D01*
X157584Y896263D01*
X157728Y896678D01*
X157882Y897088D01*
X158045Y897495D01*
X158219Y897898D01*
X158402Y898296D01*
X158595Y898690D01*
X158798Y899079D01*
X159010Y899463D01*
X159231Y899841D01*
X159462Y900214D01*
X159701Y900582D01*
X159950Y900943D01*
X160207Y901298D01*
X160473Y901647D01*
X160747Y901989D01*
X161029Y902325D01*
X161320Y902653D01*
X161618Y902974D01*
X161925Y903288D01*
X187325Y903288D01*
X161625Y890588D02*
X161629Y890907D01*
X161641Y891226D01*
X161660Y891544D01*
X161688Y891862D01*
X161723Y892179D01*
X161766Y892495D01*
X161816Y892811D01*
X161875Y893124D01*
X161941Y893436D01*
X162015Y893747D01*
X162096Y894055D01*
X162185Y894362D01*
X162281Y894666D01*
X162385Y894968D01*
X162496Y895267D01*
X162615Y895563D01*
X162740Y895856D01*
X162873Y896146D01*
X163013Y896433D01*
X163160Y896716D01*
X163314Y896996D01*
X163475Y897271D01*
X163642Y897543D01*
X163816Y897810D01*
X163996Y898074D01*
X164183Y898332D01*
X164376Y898586D01*
X164576Y898835D01*
X164781Y899079D01*
X164993Y899318D01*
X165210Y899552D01*
X165433Y899780D01*
X165661Y900003D01*
X165895Y900220D01*
X166134Y900432D01*
X166378Y900637D01*
X166627Y900837D01*
X166881Y901030D01*
X167139Y901217D01*
X167403Y901397D01*
X167670Y901571D01*
X167942Y901738D01*
X168217Y901899D01*
X168497Y902053D01*
X168780Y902200D01*
X169067Y902340D01*
X169357Y902473D01*
X169650Y902598D01*
X169946Y902717D01*
X170245Y902828D01*
X170547Y902932D01*
X170851Y903028D01*
X171158Y903117D01*
X171466Y903198D01*
X171777Y903272D01*
X172089Y903338D01*
X172402Y903397D01*
X172718Y903447D01*
X173034Y903490D01*
X173351Y903525D01*
X173669Y903553D01*
X173987Y903572D01*
X174306Y903584D01*
X174625Y903588D01*
X174944Y903584D01*
X175263Y903572D01*
X175581Y903553D01*
X175899Y903525D01*
X176216Y903490D01*
X176532Y903447D01*
X176848Y903397D01*
X177161Y903338D01*
X177473Y903272D01*
X177784Y903198D01*
X178092Y903117D01*
X178399Y903028D01*
X178703Y902932D01*
X179005Y902828D01*
X179304Y902717D01*
X179600Y902598D01*
X179893Y902473D01*
X180183Y902340D01*
X180470Y902200D01*
X180753Y902053D01*
X181033Y901899D01*
X181308Y901738D01*
X181580Y901571D01*
X181847Y901397D01*
X182111Y901217D01*
X182369Y901030D01*
X182623Y900837D01*
X182872Y900637D01*
X183116Y900432D01*
X183355Y900220D01*
X183589Y900003D01*
X183817Y899780D01*
X184040Y899552D01*
X184257Y899318D01*
X184469Y899079D01*
X184674Y898835D01*
X184874Y898586D01*
X185067Y898332D01*
X185254Y898074D01*
X185434Y897810D01*
X185608Y897543D01*
X185775Y897271D01*
X185936Y896996D01*
X186090Y896716D01*
X186237Y896433D01*
X186377Y896146D01*
X186510Y895856D01*
X186635Y895563D01*
X186754Y895267D01*
X186865Y894968D01*
X186969Y894666D01*
X187065Y894362D01*
X187154Y894055D01*
X187235Y893747D01*
X187309Y893436D01*
X187375Y893124D01*
X187434Y892811D01*
X187484Y892495D01*
X187527Y892179D01*
X187562Y891862D01*
X187590Y891544D01*
X187609Y891226D01*
X187621Y890907D01*
X187625Y890588D01*
X187621Y890269D01*
X187609Y889950D01*
X187590Y889632D01*
X187562Y889314D01*
X187527Y888997D01*
X187484Y888681D01*
X187434Y888365D01*
X187375Y888052D01*
X187309Y887740D01*
X187235Y887429D01*
X187154Y887121D01*
X187065Y886814D01*
X186969Y886510D01*
X186865Y886208D01*
X186754Y885909D01*
X186635Y885613D01*
X186510Y885320D01*
X186377Y885030D01*
X186237Y884743D01*
X186090Y884460D01*
X185936Y884180D01*
X185775Y883905D01*
X185608Y883633D01*
X185434Y883366D01*
X185254Y883102D01*
X185067Y882844D01*
X184874Y882590D01*
X184674Y882341D01*
X184469Y882097D01*
X184257Y881858D01*
X184040Y881624D01*
X183817Y881396D01*
X183589Y881173D01*
X183355Y880956D01*
X183116Y880744D01*
X182872Y880539D01*
X182623Y880339D01*
X182369Y880146D01*
X182111Y879959D01*
X181847Y879779D01*
X181580Y879605D01*
X181308Y879438D01*
X181033Y879277D01*
X180753Y879123D01*
X180470Y878976D01*
X180183Y878836D01*
X179893Y878703D01*
X179600Y878578D01*
X179304Y878459D01*
X179005Y878348D01*
X178703Y878244D01*
X178399Y878148D01*
X178092Y878059D01*
X177784Y877978D01*
X177473Y877904D01*
X177161Y877838D01*
X176848Y877779D01*
X176532Y877729D01*
X176216Y877686D01*
X175899Y877651D01*
X175581Y877623D01*
X175263Y877604D01*
X174944Y877592D01*
X174625Y877588D01*
X174306Y877592D01*
X173987Y877604D01*
X173669Y877623D01*
X173351Y877651D01*
X173034Y877686D01*
X172718Y877729D01*
X172402Y877779D01*
X172089Y877838D01*
X171777Y877904D01*
X171466Y877978D01*
X171158Y878059D01*
X170851Y878148D01*
X170547Y878244D01*
X170245Y878348D01*
X169946Y878459D01*
X169650Y878578D01*
X169357Y878703D01*
X169067Y878836D01*
X168780Y878976D01*
X168497Y879123D01*
X168217Y879277D01*
X167942Y879438D01*
X167670Y879605D01*
X167403Y879779D01*
X167139Y879959D01*
X166881Y880146D01*
X166627Y880339D01*
X166378Y880539D01*
X166134Y880744D01*
X165895Y880956D01*
X165661Y881173D01*
X165433Y881396D01*
X165210Y881624D01*
X164993Y881858D01*
X164781Y882097D01*
X164576Y882341D01*
X164376Y882590D01*
X164183Y882844D01*
X163996Y883102D01*
X163816Y883366D01*
X163642Y883633D01*
X163475Y883905D01*
X163314Y884180D01*
X163160Y884460D01*
X163013Y884743D01*
X162873Y885030D01*
X162740Y885320D01*
X162615Y885613D01*
X162496Y885909D01*
X162385Y886208D01*
X162281Y886510D01*
X162185Y886814D01*
X162096Y887121D01*
X162015Y887429D01*
X161941Y887740D01*
X161875Y888052D01*
X161816Y888365D01*
X161766Y888681D01*
X161723Y888997D01*
X161688Y889314D01*
X161660Y889632D01*
X161641Y889950D01*
X161629Y890269D01*
X161625Y890588D01*
D14*
X152025Y872598D02*
X144653Y872598D01*
X144653Y877513D01*
X152025Y880082D02*
X152025Y884997D01*
X152025Y880082D02*
X144653Y880082D01*
X144653Y884997D01*
X148339Y882540D02*
X148339Y880082D01*
X152025Y887567D02*
X144653Y887567D01*
X144653Y891253D01*
X145882Y892481D01*
X150797Y892481D01*
X152025Y891253D01*
X152025Y887567D01*
X149568Y895051D02*
X152025Y897508D01*
X144653Y897508D01*
X144653Y895051D02*
X144653Y899966D01*
X149568Y902535D02*
X152025Y904992D01*
X144653Y904992D01*
X144653Y902535D02*
X144653Y907450D01*
D10*
X73025Y903289D02*
X73332Y902975D01*
X73630Y902654D01*
X73921Y902326D01*
X74203Y901990D01*
X74477Y901648D01*
X74743Y901299D01*
X75000Y900944D01*
X75249Y900583D01*
X75488Y900215D01*
X75719Y899842D01*
X75940Y899464D01*
X76152Y899080D01*
X76355Y898691D01*
X76548Y898297D01*
X76731Y897899D01*
X76905Y897496D01*
X77068Y897089D01*
X77222Y896679D01*
X77366Y896264D01*
X77499Y895847D01*
X77623Y895426D01*
X77735Y895002D01*
X77838Y894576D01*
X77930Y894147D01*
X78012Y893716D01*
X78083Y893283D01*
X78143Y892849D01*
X78193Y892413D01*
X78232Y891976D01*
X78261Y891539D01*
X78279Y891101D01*
X78286Y890662D01*
X78282Y890224D01*
X78268Y889785D01*
X78243Y889347D01*
X78207Y888910D01*
X78161Y888474D01*
X78104Y888039D01*
X78037Y887606D01*
X77958Y887175D01*
X77870Y886745D01*
X77771Y886318D01*
X77661Y885893D01*
X77542Y885471D01*
X77411Y885053D01*
X77271Y884637D01*
X77121Y884225D01*
X76960Y883817D01*
X76790Y883413D01*
X76610Y883013D01*
X76420Y882618D01*
X76221Y882227D01*
X76012Y881842D01*
X75794Y881461D01*
X75566Y881086D01*
X75330Y880717D01*
X75084Y880354D01*
X74830Y879996D01*
X74567Y879645D01*
X74296Y879301D01*
X74016Y878963D01*
X73728Y878632D01*
X73432Y878309D01*
X73128Y877992D01*
X72817Y877684D01*
X72498Y877382D01*
X72172Y877089D01*
X71839Y876804D01*
X71499Y876527D01*
X71152Y876258D01*
X70799Y875998D01*
X70440Y875747D01*
X70075Y875504D01*
X69703Y875271D01*
X69327Y875047D01*
X68944Y874831D01*
X68557Y874626D01*
X68165Y874429D01*
X67768Y874243D01*
X67367Y874066D01*
X66961Y873899D01*
X66552Y873742D01*
X66139Y873595D01*
X65722Y873458D01*
X65302Y873331D01*
X64879Y873215D01*
X64454Y873109D01*
X64026Y873013D01*
X63596Y872928D01*
X63164Y872854D01*
X62730Y872790D01*
X62294Y872736D01*
X61858Y872694D01*
X61421Y872661D01*
X60983Y872640D01*
X60544Y872629D01*
X60106Y872629D01*
X59667Y872640D01*
X59229Y872661D01*
X58792Y872694D01*
X58356Y872736D01*
X57920Y872790D01*
X57486Y872854D01*
X57054Y872928D01*
X56624Y873013D01*
X56196Y873109D01*
X55771Y873215D01*
X55348Y873331D01*
X54928Y873458D01*
X54511Y873595D01*
X54098Y873742D01*
X53689Y873899D01*
X53283Y874066D01*
X52882Y874243D01*
X52485Y874429D01*
X52093Y874626D01*
X51706Y874831D01*
X51323Y875047D01*
X50947Y875271D01*
X50575Y875504D01*
X50210Y875747D01*
X49851Y875998D01*
X49498Y876258D01*
X49151Y876527D01*
X48811Y876804D01*
X48478Y877089D01*
X48152Y877382D01*
X47833Y877684D01*
X47522Y877992D01*
X47218Y878309D01*
X46922Y878632D01*
X46634Y878963D01*
X46354Y879301D01*
X46083Y879645D01*
X45820Y879996D01*
X45566Y880354D01*
X45320Y880717D01*
X45084Y881086D01*
X44856Y881461D01*
X44638Y881842D01*
X44429Y882227D01*
X44230Y882618D01*
X44040Y883013D01*
X43860Y883413D01*
X43690Y883817D01*
X43529Y884225D01*
X43379Y884637D01*
X43239Y885053D01*
X43108Y885471D01*
X42989Y885893D01*
X42879Y886318D01*
X42780Y886745D01*
X42692Y887175D01*
X42613Y887606D01*
X42546Y888039D01*
X42489Y888474D01*
X42443Y888910D01*
X42407Y889347D01*
X42382Y889785D01*
X42368Y890224D01*
X42364Y890662D01*
X42371Y891101D01*
X42389Y891539D01*
X42418Y891976D01*
X42457Y892413D01*
X42507Y892849D01*
X42567Y893283D01*
X42638Y893716D01*
X42720Y894147D01*
X42812Y894576D01*
X42915Y895002D01*
X43027Y895426D01*
X43151Y895847D01*
X43284Y896264D01*
X43428Y896679D01*
X43582Y897089D01*
X43745Y897496D01*
X43919Y897899D01*
X44102Y898297D01*
X44295Y898691D01*
X44498Y899080D01*
X44710Y899464D01*
X44931Y899842D01*
X45162Y900215D01*
X45401Y900583D01*
X45650Y900944D01*
X45907Y901299D01*
X46173Y901648D01*
X46447Y901990D01*
X46729Y902326D01*
X47020Y902654D01*
X47318Y902975D01*
X47625Y903289D01*
X73025Y903289D01*
X47325Y890589D02*
X47329Y890908D01*
X47341Y891227D01*
X47360Y891545D01*
X47388Y891863D01*
X47423Y892180D01*
X47466Y892496D01*
X47516Y892812D01*
X47575Y893125D01*
X47641Y893437D01*
X47715Y893748D01*
X47796Y894056D01*
X47885Y894363D01*
X47981Y894667D01*
X48085Y894969D01*
X48196Y895268D01*
X48315Y895564D01*
X48440Y895857D01*
X48573Y896147D01*
X48713Y896434D01*
X48860Y896717D01*
X49014Y896997D01*
X49175Y897272D01*
X49342Y897544D01*
X49516Y897811D01*
X49696Y898075D01*
X49883Y898333D01*
X50076Y898587D01*
X50276Y898836D01*
X50481Y899080D01*
X50693Y899319D01*
X50910Y899553D01*
X51133Y899781D01*
X51361Y900004D01*
X51595Y900221D01*
X51834Y900433D01*
X52078Y900638D01*
X52327Y900838D01*
X52581Y901031D01*
X52839Y901218D01*
X53103Y901398D01*
X53370Y901572D01*
X53642Y901739D01*
X53917Y901900D01*
X54197Y902054D01*
X54480Y902201D01*
X54767Y902341D01*
X55057Y902474D01*
X55350Y902599D01*
X55646Y902718D01*
X55945Y902829D01*
X56247Y902933D01*
X56551Y903029D01*
X56858Y903118D01*
X57166Y903199D01*
X57477Y903273D01*
X57789Y903339D01*
X58102Y903398D01*
X58418Y903448D01*
X58734Y903491D01*
X59051Y903526D01*
X59369Y903554D01*
X59687Y903573D01*
X60006Y903585D01*
X60325Y903589D01*
X60644Y903585D01*
X60963Y903573D01*
X61281Y903554D01*
X61599Y903526D01*
X61916Y903491D01*
X62232Y903448D01*
X62548Y903398D01*
X62861Y903339D01*
X63173Y903273D01*
X63484Y903199D01*
X63792Y903118D01*
X64099Y903029D01*
X64403Y902933D01*
X64705Y902829D01*
X65004Y902718D01*
X65300Y902599D01*
X65593Y902474D01*
X65883Y902341D01*
X66170Y902201D01*
X66453Y902054D01*
X66733Y901900D01*
X67008Y901739D01*
X67280Y901572D01*
X67547Y901398D01*
X67811Y901218D01*
X68069Y901031D01*
X68323Y900838D01*
X68572Y900638D01*
X68816Y900433D01*
X69055Y900221D01*
X69289Y900004D01*
X69517Y899781D01*
X69740Y899553D01*
X69957Y899319D01*
X70169Y899080D01*
X70374Y898836D01*
X70574Y898587D01*
X70767Y898333D01*
X70954Y898075D01*
X71134Y897811D01*
X71308Y897544D01*
X71475Y897272D01*
X71636Y896997D01*
X71790Y896717D01*
X71937Y896434D01*
X72077Y896147D01*
X72210Y895857D01*
X72335Y895564D01*
X72454Y895268D01*
X72565Y894969D01*
X72669Y894667D01*
X72765Y894363D01*
X72854Y894056D01*
X72935Y893748D01*
X73009Y893437D01*
X73075Y893125D01*
X73134Y892812D01*
X73184Y892496D01*
X73227Y892180D01*
X73262Y891863D01*
X73290Y891545D01*
X73309Y891227D01*
X73321Y890908D01*
X73325Y890589D01*
X73321Y890270D01*
X73309Y889951D01*
X73290Y889633D01*
X73262Y889315D01*
X73227Y888998D01*
X73184Y888682D01*
X73134Y888366D01*
X73075Y888053D01*
X73009Y887741D01*
X72935Y887430D01*
X72854Y887122D01*
X72765Y886815D01*
X72669Y886511D01*
X72565Y886209D01*
X72454Y885910D01*
X72335Y885614D01*
X72210Y885321D01*
X72077Y885031D01*
X71937Y884744D01*
X71790Y884461D01*
X71636Y884181D01*
X71475Y883906D01*
X71308Y883634D01*
X71134Y883367D01*
X70954Y883103D01*
X70767Y882845D01*
X70574Y882591D01*
X70374Y882342D01*
X70169Y882098D01*
X69957Y881859D01*
X69740Y881625D01*
X69517Y881397D01*
X69289Y881174D01*
X69055Y880957D01*
X68816Y880745D01*
X68572Y880540D01*
X68323Y880340D01*
X68069Y880147D01*
X67811Y879960D01*
X67547Y879780D01*
X67280Y879606D01*
X67008Y879439D01*
X66733Y879278D01*
X66453Y879124D01*
X66170Y878977D01*
X65883Y878837D01*
X65593Y878704D01*
X65300Y878579D01*
X65004Y878460D01*
X64705Y878349D01*
X64403Y878245D01*
X64099Y878149D01*
X63792Y878060D01*
X63484Y877979D01*
X63173Y877905D01*
X62861Y877839D01*
X62548Y877780D01*
X62232Y877730D01*
X61916Y877687D01*
X61599Y877652D01*
X61281Y877624D01*
X60963Y877605D01*
X60644Y877593D01*
X60325Y877589D01*
X60006Y877593D01*
X59687Y877605D01*
X59369Y877624D01*
X59051Y877652D01*
X58734Y877687D01*
X58418Y877730D01*
X58102Y877780D01*
X57789Y877839D01*
X57477Y877905D01*
X57166Y877979D01*
X56858Y878060D01*
X56551Y878149D01*
X56247Y878245D01*
X55945Y878349D01*
X55646Y878460D01*
X55350Y878579D01*
X55057Y878704D01*
X54767Y878837D01*
X54480Y878977D01*
X54197Y879124D01*
X53917Y879278D01*
X53642Y879439D01*
X53370Y879606D01*
X53103Y879780D01*
X52839Y879960D01*
X52581Y880147D01*
X52327Y880340D01*
X52078Y880540D01*
X51834Y880745D01*
X51595Y880957D01*
X51361Y881174D01*
X51133Y881397D01*
X50910Y881625D01*
X50693Y881859D01*
X50481Y882098D01*
X50276Y882342D01*
X50076Y882591D01*
X49883Y882845D01*
X49696Y883103D01*
X49516Y883367D01*
X49342Y883634D01*
X49175Y883906D01*
X49014Y884181D01*
X48860Y884461D01*
X48713Y884744D01*
X48573Y885031D01*
X48440Y885321D01*
X48315Y885614D01*
X48196Y885910D01*
X48085Y886209D01*
X47981Y886511D01*
X47885Y886815D01*
X47796Y887122D01*
X47715Y887430D01*
X47641Y887741D01*
X47575Y888053D01*
X47516Y888366D01*
X47466Y888682D01*
X47423Y888998D01*
X47388Y889315D01*
X47360Y889633D01*
X47341Y889951D01*
X47329Y890270D01*
X47325Y890589D01*
D14*
X81153Y872599D02*
X88525Y872599D01*
X81153Y872599D02*
X81153Y877514D01*
X88525Y880083D02*
X88525Y884998D01*
X88525Y880083D02*
X81153Y880083D01*
X81153Y884998D01*
X84839Y882541D02*
X84839Y880083D01*
X88525Y887568D02*
X81153Y887568D01*
X81153Y891254D01*
X82382Y892482D01*
X87297Y892482D01*
X88525Y891254D01*
X88525Y887568D01*
X86068Y895052D02*
X88525Y897509D01*
X81153Y897509D01*
X81153Y895052D02*
X81153Y899967D01*
X81153Y902536D02*
X81153Y907451D01*
X81153Y902536D02*
X86068Y907451D01*
X87297Y907451D01*
X88525Y906222D01*
X88525Y903765D01*
X87297Y902536D01*
D15*
X326075Y906462D02*
X326081Y906953D01*
X326099Y907443D01*
X326129Y907933D01*
X326171Y908422D01*
X326225Y908910D01*
X326291Y909397D01*
X326369Y909881D01*
X326459Y910364D01*
X326561Y910844D01*
X326674Y911322D01*
X326799Y911796D01*
X326936Y912268D01*
X327084Y912736D01*
X327244Y913200D01*
X327415Y913660D01*
X327597Y914116D01*
X327791Y914567D01*
X327995Y915013D01*
X328211Y915454D01*
X328437Y915890D01*
X328673Y916320D01*
X328920Y916744D01*
X329178Y917162D01*
X329446Y917573D01*
X329723Y917978D01*
X330011Y918376D01*
X330308Y918767D01*
X330615Y919150D01*
X330931Y919525D01*
X331256Y919893D01*
X331590Y920253D01*
X331933Y920604D01*
X332284Y920947D01*
X332644Y921281D01*
X333012Y921606D01*
X333387Y921922D01*
X333770Y922229D01*
X334161Y922526D01*
X334559Y922814D01*
X334964Y923091D01*
X335375Y923359D01*
X335793Y923617D01*
X336217Y923864D01*
X336647Y924100D01*
X337083Y924326D01*
X337524Y924542D01*
X337970Y924746D01*
X338421Y924940D01*
X338877Y925122D01*
X339337Y925293D01*
X339801Y925453D01*
X340269Y925601D01*
X340741Y925738D01*
X341215Y925863D01*
X341693Y925976D01*
X342173Y926078D01*
X342656Y926168D01*
X343140Y926246D01*
X343627Y926312D01*
X344115Y926366D01*
X344604Y926408D01*
X345094Y926438D01*
X345584Y926456D01*
X346075Y926462D01*
X346566Y926456D01*
X347056Y926438D01*
X347546Y926408D01*
X348035Y926366D01*
X348523Y926312D01*
X349010Y926246D01*
X349494Y926168D01*
X349977Y926078D01*
X350457Y925976D01*
X350935Y925863D01*
X351409Y925738D01*
X351881Y925601D01*
X352349Y925453D01*
X352813Y925293D01*
X353273Y925122D01*
X353729Y924940D01*
X354180Y924746D01*
X354626Y924542D01*
X355067Y924326D01*
X355503Y924100D01*
X355933Y923864D01*
X356357Y923617D01*
X356775Y923359D01*
X357186Y923091D01*
X357591Y922814D01*
X357989Y922526D01*
X358380Y922229D01*
X358763Y921922D01*
X359138Y921606D01*
X359506Y921281D01*
X359866Y920947D01*
X360217Y920604D01*
X360560Y920253D01*
X360894Y919893D01*
X361219Y919525D01*
X361535Y919150D01*
X361842Y918767D01*
X362139Y918376D01*
X362427Y917978D01*
X362704Y917573D01*
X362972Y917162D01*
X363230Y916744D01*
X363477Y916320D01*
X363713Y915890D01*
X363939Y915454D01*
X364155Y915013D01*
X364359Y914567D01*
X364553Y914116D01*
X364735Y913660D01*
X364906Y913200D01*
X365066Y912736D01*
X365214Y912268D01*
X365351Y911796D01*
X365476Y911322D01*
X365589Y910844D01*
X365691Y910364D01*
X365781Y909881D01*
X365859Y909397D01*
X365925Y908910D01*
X365979Y908422D01*
X366021Y907933D01*
X366051Y907443D01*
X366069Y906953D01*
X366075Y906462D01*
X366069Y905971D01*
X366051Y905481D01*
X366021Y904991D01*
X365979Y904502D01*
X365925Y904014D01*
X365859Y903527D01*
X365781Y903043D01*
X365691Y902560D01*
X365589Y902080D01*
X365476Y901602D01*
X365351Y901128D01*
X365214Y900656D01*
X365066Y900188D01*
X364906Y899724D01*
X364735Y899264D01*
X364553Y898808D01*
X364359Y898357D01*
X364155Y897911D01*
X363939Y897470D01*
X363713Y897034D01*
X363477Y896604D01*
X363230Y896180D01*
X362972Y895762D01*
X362704Y895351D01*
X362427Y894946D01*
X362139Y894548D01*
X361842Y894157D01*
X361535Y893774D01*
X361219Y893399D01*
X360894Y893031D01*
X360560Y892671D01*
X360217Y892320D01*
X359866Y891977D01*
X359506Y891643D01*
X359138Y891318D01*
X358763Y891002D01*
X358380Y890695D01*
X357989Y890398D01*
X357591Y890110D01*
X357186Y889833D01*
X356775Y889565D01*
X356357Y889307D01*
X355933Y889060D01*
X355503Y888824D01*
X355067Y888598D01*
X354626Y888382D01*
X354180Y888178D01*
X353729Y887984D01*
X353273Y887802D01*
X352813Y887631D01*
X352349Y887471D01*
X351881Y887323D01*
X351409Y887186D01*
X350935Y887061D01*
X350457Y886948D01*
X349977Y886846D01*
X349494Y886756D01*
X349010Y886678D01*
X348523Y886612D01*
X348035Y886558D01*
X347546Y886516D01*
X347056Y886486D01*
X346566Y886468D01*
X346075Y886462D01*
X345584Y886468D01*
X345094Y886486D01*
X344604Y886516D01*
X344115Y886558D01*
X343627Y886612D01*
X343140Y886678D01*
X342656Y886756D01*
X342173Y886846D01*
X341693Y886948D01*
X341215Y887061D01*
X340741Y887186D01*
X340269Y887323D01*
X339801Y887471D01*
X339337Y887631D01*
X338877Y887802D01*
X338421Y887984D01*
X337970Y888178D01*
X337524Y888382D01*
X337083Y888598D01*
X336647Y888824D01*
X336217Y889060D01*
X335793Y889307D01*
X335375Y889565D01*
X334964Y889833D01*
X334559Y890110D01*
X334161Y890398D01*
X333770Y890695D01*
X333387Y891002D01*
X333012Y891318D01*
X332644Y891643D01*
X332284Y891977D01*
X331933Y892320D01*
X331590Y892671D01*
X331256Y893031D01*
X330931Y893399D01*
X330615Y893774D01*
X330308Y894157D01*
X330011Y894548D01*
X329723Y894946D01*
X329446Y895351D01*
X329178Y895762D01*
X328920Y896180D01*
X328673Y896604D01*
X328437Y897034D01*
X328211Y897470D01*
X327995Y897911D01*
X327791Y898357D01*
X327597Y898808D01*
X327415Y899264D01*
X327244Y899724D01*
X327084Y900188D01*
X326936Y900656D01*
X326799Y901128D01*
X326674Y901602D01*
X326561Y902080D01*
X326459Y902560D01*
X326369Y903043D01*
X326291Y903527D01*
X326225Y904014D01*
X326171Y904502D01*
X326129Y904991D01*
X326099Y905481D01*
X326081Y905971D01*
X326075Y906462D01*
D12*
X331075Y906462D02*
X331080Y906830D01*
X331093Y907198D01*
X331116Y907565D01*
X331147Y907932D01*
X331188Y908298D01*
X331237Y908663D01*
X331296Y909026D01*
X331363Y909388D01*
X331439Y909749D01*
X331525Y910107D01*
X331618Y910463D01*
X331721Y910816D01*
X331832Y911167D01*
X331952Y911515D01*
X332080Y911860D01*
X332217Y912202D01*
X332362Y912541D01*
X332515Y912875D01*
X332677Y913206D01*
X332846Y913533D01*
X333024Y913855D01*
X333209Y914174D01*
X333402Y914487D01*
X333603Y914796D01*
X333811Y915099D01*
X334027Y915397D01*
X334250Y915690D01*
X334480Y915978D01*
X334717Y916260D01*
X334961Y916535D01*
X335211Y916805D01*
X335468Y917069D01*
X335732Y917326D01*
X336002Y917576D01*
X336277Y917820D01*
X336559Y918057D01*
X336847Y918287D01*
X337140Y918510D01*
X337438Y918726D01*
X337741Y918934D01*
X338050Y919135D01*
X338363Y919328D01*
X338682Y919513D01*
X339004Y919691D01*
X339331Y919860D01*
X339662Y920022D01*
X339996Y920175D01*
X340335Y920320D01*
X340677Y920457D01*
X341022Y920585D01*
X341370Y920705D01*
X341721Y920816D01*
X342074Y920919D01*
X342430Y921012D01*
X342788Y921098D01*
X343149Y921174D01*
X343511Y921241D01*
X343874Y921300D01*
X344239Y921349D01*
X344605Y921390D01*
X344972Y921421D01*
X345339Y921444D01*
X345707Y921457D01*
X346075Y921462D01*
X346443Y921457D01*
X346811Y921444D01*
X347178Y921421D01*
X347545Y921390D01*
X347911Y921349D01*
X348276Y921300D01*
X348639Y921241D01*
X349001Y921174D01*
X349362Y921098D01*
X349720Y921012D01*
X350076Y920919D01*
X350429Y920816D01*
X350780Y920705D01*
X351128Y920585D01*
X351473Y920457D01*
X351815Y920320D01*
X352154Y920175D01*
X352488Y920022D01*
X352819Y919860D01*
X353146Y919691D01*
X353468Y919513D01*
X353787Y919328D01*
X354100Y919135D01*
X354409Y918934D01*
X354712Y918726D01*
X355010Y918510D01*
X355303Y918287D01*
X355591Y918057D01*
X355873Y917820D01*
X356148Y917576D01*
X356418Y917326D01*
X356682Y917069D01*
X356939Y916805D01*
X357189Y916535D01*
X357433Y916260D01*
X357670Y915978D01*
X357900Y915690D01*
X358123Y915397D01*
X358339Y915099D01*
X358547Y914796D01*
X358748Y914487D01*
X358941Y914174D01*
X359126Y913855D01*
X359304Y913533D01*
X359473Y913206D01*
X359635Y912875D01*
X359788Y912541D01*
X359933Y912202D01*
X360070Y911860D01*
X360198Y911515D01*
X360318Y911167D01*
X360429Y910816D01*
X360532Y910463D01*
X360625Y910107D01*
X360711Y909749D01*
X360787Y909388D01*
X360854Y909026D01*
X360913Y908663D01*
X360962Y908298D01*
X361003Y907932D01*
X361034Y907565D01*
X361057Y907198D01*
X361070Y906830D01*
X361075Y906462D01*
X361070Y906094D01*
X361057Y905726D01*
X361034Y905359D01*
X361003Y904992D01*
X360962Y904626D01*
X360913Y904261D01*
X360854Y903898D01*
X360787Y903536D01*
X360711Y903175D01*
X360625Y902817D01*
X360532Y902461D01*
X360429Y902108D01*
X360318Y901757D01*
X360198Y901409D01*
X360070Y901064D01*
X359933Y900722D01*
X359788Y900383D01*
X359635Y900049D01*
X359473Y899718D01*
X359304Y899391D01*
X359126Y899069D01*
X358941Y898750D01*
X358748Y898437D01*
X358547Y898128D01*
X358339Y897825D01*
X358123Y897527D01*
X357900Y897234D01*
X357670Y896946D01*
X357433Y896664D01*
X357189Y896389D01*
X356939Y896119D01*
X356682Y895855D01*
X356418Y895598D01*
X356148Y895348D01*
X355873Y895104D01*
X355591Y894867D01*
X355303Y894637D01*
X355010Y894414D01*
X354712Y894198D01*
X354409Y893990D01*
X354100Y893789D01*
X353787Y893596D01*
X353468Y893411D01*
X353146Y893233D01*
X352819Y893064D01*
X352488Y892902D01*
X352154Y892749D01*
X351815Y892604D01*
X351473Y892467D01*
X351128Y892339D01*
X350780Y892219D01*
X350429Y892108D01*
X350076Y892005D01*
X349720Y891912D01*
X349362Y891826D01*
X349001Y891750D01*
X348639Y891683D01*
X348276Y891624D01*
X347911Y891575D01*
X347545Y891534D01*
X347178Y891503D01*
X346811Y891480D01*
X346443Y891467D01*
X346075Y891462D01*
X345707Y891467D01*
X345339Y891480D01*
X344972Y891503D01*
X344605Y891534D01*
X344239Y891575D01*
X343874Y891624D01*
X343511Y891683D01*
X343149Y891750D01*
X342788Y891826D01*
X342430Y891912D01*
X342074Y892005D01*
X341721Y892108D01*
X341370Y892219D01*
X341022Y892339D01*
X340677Y892467D01*
X340335Y892604D01*
X339996Y892749D01*
X339662Y892902D01*
X339331Y893064D01*
X339004Y893233D01*
X338682Y893411D01*
X338363Y893596D01*
X338050Y893789D01*
X337741Y893990D01*
X337438Y894198D01*
X337140Y894414D01*
X336847Y894637D01*
X336559Y894867D01*
X336277Y895104D01*
X336002Y895348D01*
X335732Y895598D01*
X335468Y895855D01*
X335211Y896119D01*
X334961Y896389D01*
X334717Y896664D01*
X334480Y896946D01*
X334250Y897234D01*
X334027Y897527D01*
X333811Y897825D01*
X333603Y898128D01*
X333402Y898437D01*
X333209Y898750D01*
X333024Y899069D01*
X332846Y899391D01*
X332677Y899718D01*
X332515Y900049D01*
X332362Y900383D01*
X332217Y900722D01*
X332080Y901064D01*
X331952Y901409D01*
X331832Y901757D01*
X331721Y902108D01*
X331618Y902461D01*
X331525Y902817D01*
X331439Y903175D01*
X331363Y903536D01*
X331296Y903898D01*
X331237Y904261D01*
X331188Y904626D01*
X331147Y904992D01*
X331116Y905359D01*
X331093Y905726D01*
X331080Y906094D01*
X331075Y906462D01*
M02*
