G04 EAGLE Gerber RS-274X export*
G75*
%MOMM*%
%FSLAX34Y34*%
%LPD*%
%AMOC8*
5,1,8,0,0,1.08239X$1,22.5*%
G01*
%ADD10P,2.089446X8X112.500000*%
%ADD11C,2.352400*%
%ADD12P,2.089446X8X22.500000*%
%ADD13R,2.032000X2.032000*%
%ADD14C,2.152400*%
%ADD15P,1.484606X8X292.500000*%
%ADD16C,2.032000*%
%ADD17P,1.950900X8X292.500000*%
%ADD18P,1.950900X8X112.500000*%
%ADD19C,3.152400*%
%ADD20C,1.258800*%


D10*
X600075Y209550D03*
X676275Y209550D03*
X574675Y209550D03*
D11*
X631825Y209550D03*
D10*
X142875Y63500D03*
X219075Y63500D03*
X117475Y63500D03*
D11*
X174625Y63500D03*
D10*
X600075Y63500D03*
X676275Y63500D03*
X574675Y63500D03*
D11*
X631825Y63500D03*
D12*
X517525Y95250D03*
X517525Y19050D03*
X517525Y120650D03*
D11*
X517525Y63500D03*
D10*
X142875Y355600D03*
X219075Y355600D03*
X117475Y355600D03*
D11*
X174625Y355600D03*
D12*
X288925Y95250D03*
X288925Y19050D03*
X288925Y120650D03*
D11*
X288925Y63500D03*
D10*
X371475Y63500D03*
X447675Y63500D03*
X346075Y63500D03*
D11*
X403225Y63500D03*
D12*
X60325Y95250D03*
X60325Y19050D03*
X60325Y120650D03*
D11*
X60325Y63500D03*
D12*
X517525Y241300D03*
X517525Y165100D03*
X517525Y266700D03*
D11*
X517525Y209550D03*
D10*
X371475Y209550D03*
X447675Y209550D03*
X346075Y209550D03*
D11*
X403225Y209550D03*
D12*
X288925Y241300D03*
X288925Y165100D03*
X288925Y266700D03*
D11*
X288925Y209550D03*
D10*
X142875Y209550D03*
X219075Y209550D03*
X117475Y209550D03*
D11*
X174625Y209550D03*
D10*
X600075Y355600D03*
X676275Y355600D03*
X574675Y355600D03*
D11*
X631825Y355600D03*
D12*
X60325Y241300D03*
X60325Y165100D03*
X60325Y266700D03*
D11*
X60325Y209550D03*
D12*
X517525Y387350D03*
X517525Y311150D03*
X517525Y412750D03*
D11*
X517525Y355600D03*
D10*
X371475Y355600D03*
X447675Y355600D03*
X346075Y355600D03*
D11*
X403225Y355600D03*
D12*
X288925Y387350D03*
X288925Y311150D03*
X288925Y412750D03*
D11*
X288925Y355600D03*
D12*
X60325Y387350D03*
X60325Y311150D03*
X60325Y412750D03*
D11*
X60325Y355600D03*
D13*
X606825Y936300D03*
X631825Y936300D03*
X656825Y936300D03*
D14*
X587825Y993300D02*
X587825Y1013300D01*
X675825Y1013300D02*
X675825Y993300D01*
D13*
X492525Y936300D03*
X517525Y936300D03*
X542525Y936300D03*
D14*
X473525Y993300D02*
X473525Y1013300D01*
X561525Y1013300D02*
X561525Y993300D01*
D13*
X378225Y936300D03*
X403225Y936300D03*
X428225Y936300D03*
D14*
X359225Y993300D02*
X359225Y1013300D01*
X447225Y1013300D02*
X447225Y993300D01*
D13*
X263925Y936300D03*
X288925Y936300D03*
X313925Y936300D03*
D14*
X244925Y993300D02*
X244925Y1013300D01*
X332925Y1013300D02*
X332925Y993300D01*
D13*
X149625Y936300D03*
X174625Y936300D03*
X199625Y936300D03*
D14*
X130625Y993300D02*
X130625Y1013300D01*
X218625Y1013300D02*
X218625Y993300D01*
D13*
X35325Y936300D03*
X60325Y936300D03*
X85325Y936300D03*
D14*
X16325Y993300D02*
X16325Y1013300D01*
X104325Y1013300D02*
X104325Y993300D01*
D15*
X661989Y139700D03*
X661989Y114300D03*
X547688Y139701D03*
X547688Y114301D03*
X433388Y139700D03*
X433388Y114300D03*
X319088Y139700D03*
X319088Y114300D03*
X204788Y139701D03*
X204788Y114301D03*
X90488Y139700D03*
X90488Y114300D03*
D16*
X142113Y801306D03*
X207137Y801306D03*
X142113Y846518D03*
X207137Y846518D03*
X27813Y801306D03*
X92837Y801306D03*
X27813Y846518D03*
X92837Y846518D03*
X599313Y801306D03*
X664337Y801306D03*
X599313Y846518D03*
X664337Y846518D03*
X485013Y801306D03*
X550037Y801306D03*
X485013Y846518D03*
X550037Y846518D03*
X370713Y801306D03*
X435737Y801306D03*
X370713Y846518D03*
X435737Y846518D03*
X256413Y801306D03*
X321437Y801306D03*
X256413Y846518D03*
X321437Y846518D03*
D17*
X619325Y459600D03*
X669325Y459600D03*
X594325Y759600D03*
X619325Y759600D03*
X644325Y759600D03*
X669325Y759600D03*
D18*
X530025Y759600D03*
X480025Y759600D03*
X555025Y459600D03*
X530025Y459600D03*
X505025Y459600D03*
X480025Y459600D03*
X415725Y759600D03*
X365725Y759600D03*
X440725Y459600D03*
X415725Y459600D03*
X390725Y459600D03*
X365725Y459600D03*
X301425Y759600D03*
X251425Y759600D03*
X326425Y459600D03*
X301425Y459600D03*
X276425Y459600D03*
X251425Y459600D03*
X187125Y759600D03*
X137125Y759600D03*
X212125Y459600D03*
X187125Y459600D03*
X162125Y459600D03*
X137125Y459600D03*
D17*
X47825Y459600D03*
X97825Y459600D03*
X22825Y759600D03*
X47825Y759600D03*
X72825Y759600D03*
X97825Y759600D03*
D19*
X460375Y890588D03*
X231775Y890587D03*
D20*
X403225Y890588D03*
X403225Y865188D03*
X403225Y915988D03*
X517525Y890588D03*
X517525Y865188D03*
X517525Y915988D03*
X631825Y890586D03*
X631825Y865186D03*
X631825Y915986D03*
X288925Y890588D03*
X288925Y865188D03*
X288925Y915988D03*
X174625Y890588D03*
X174625Y865188D03*
X174625Y915988D03*
X60325Y890589D03*
X60325Y865189D03*
X60325Y915989D03*
D16*
X117475Y915987D03*
X117475Y890587D03*
X117475Y865187D03*
X574675Y917575D03*
X574675Y892175D03*
X574675Y866775D03*
D19*
X346075Y906462D03*
D13*
X318294Y519113D03*
D16*
X318294Y544513D03*
X318294Y569913D03*
X318294Y595313D03*
M02*
