G04 EAGLE Gerber RS-274X export*
G75*
%MOMM*%
%FSLAX34Y34*%
%LPD*%
%AMOC8*
5,1,8,0,0,1.08239X$1,22.5*%
G01*
%ADD10C,1.152400*%
%ADD11P,2.089446X8X112.500000*%
%ADD12C,2.352400*%
%ADD13P,2.089446X8X22.500000*%
%ADD14R,2.032000X2.032000*%
%ADD15C,2.152400*%
%ADD16P,1.484606X8X292.500000*%
%ADD17C,2.032000*%
%ADD18P,1.950900X8X292.500000*%
%ADD19P,1.950900X8X112.500000*%
%ADD20R,0.902400X0.802400*%
%ADD21R,1.172400X0.562400*%
%ADD22R,1.143000X0.457200*%
%ADD23R,1.152400X0.502400*%
%ADD24R,1.152400X0.482400*%
%ADD25R,0.452400X1.352400*%
%ADD26R,1.352400X0.452400*%
%ADD27R,1.152400X1.552400*%
%ADD28R,0.802400X0.902400*%
%ADD29R,0.852400X0.652400*%
%ADD30R,1.152400X1.252400*%
%ADD31R,1.152400X0.852400*%
%ADD32R,1.552400X1.552400*%
%ADD33R,3.708400X1.422400*%
%ADD34R,1.002400X0.852400*%
%ADD35R,1.952400X1.752400*%
%ADD36R,1.752400X1.952400*%
%ADD37R,1.052400X1.402400*%
%ADD38C,3.152400*%
%ADD39R,2.152400X2.152400*%
%ADD40R,1.575000X1.050000*%
%ADD41R,2.692400X2.692400*%
%ADD42C,1.258800*%
%ADD43R,0.852400X1.002400*%
%ADD44R,1.552400X1.152400*%
%ADD45R,2.052400X1.552400*%
%ADD46R,0.508000X1.574800*%


D10*
X666750Y1041400D03*
X31750Y1041400D03*
X666750Y25400D03*
X31750Y25400D03*
D11*
X600075Y209550D03*
X676275Y209550D03*
X574675Y209550D03*
D12*
X631825Y209550D03*
D11*
X142875Y63500D03*
X219075Y63500D03*
X117475Y63500D03*
D12*
X174625Y63500D03*
D11*
X600075Y63500D03*
X676275Y63500D03*
X574675Y63500D03*
D12*
X631825Y63500D03*
D13*
X517525Y95250D03*
X517525Y19050D03*
X517525Y120650D03*
D12*
X517525Y63500D03*
D11*
X142875Y355600D03*
X219075Y355600D03*
X117475Y355600D03*
D12*
X174625Y355600D03*
D13*
X288925Y95250D03*
X288925Y19050D03*
X288925Y120650D03*
D12*
X288925Y63500D03*
D11*
X371475Y63500D03*
X447675Y63500D03*
X346075Y63500D03*
D12*
X403225Y63500D03*
D13*
X60325Y95250D03*
X60325Y19050D03*
X60325Y120650D03*
D12*
X60325Y63500D03*
D13*
X517525Y241300D03*
X517525Y165100D03*
X517525Y266700D03*
D12*
X517525Y209550D03*
D11*
X371475Y209550D03*
X447675Y209550D03*
X346075Y209550D03*
D12*
X403225Y209550D03*
D13*
X288925Y241300D03*
X288925Y165100D03*
X288925Y266700D03*
D12*
X288925Y209550D03*
D11*
X142875Y209550D03*
X219075Y209550D03*
X117475Y209550D03*
D12*
X174625Y209550D03*
D11*
X600075Y355600D03*
X676275Y355600D03*
X574675Y355600D03*
D12*
X631825Y355600D03*
D13*
X60325Y241300D03*
X60325Y165100D03*
X60325Y266700D03*
D12*
X60325Y209550D03*
D13*
X517525Y387350D03*
X517525Y311150D03*
X517525Y412750D03*
D12*
X517525Y355600D03*
D11*
X371475Y355600D03*
X447675Y355600D03*
X346075Y355600D03*
D12*
X403225Y355600D03*
D13*
X288925Y387350D03*
X288925Y311150D03*
X288925Y412750D03*
D12*
X288925Y355600D03*
D13*
X60325Y387350D03*
X60325Y311150D03*
X60325Y412750D03*
D12*
X60325Y355600D03*
D14*
X606825Y936300D03*
X631825Y936300D03*
X656825Y936300D03*
D15*
X587825Y993300D02*
X587825Y1013300D01*
X675825Y1013300D02*
X675825Y993300D01*
D14*
X492525Y936300D03*
X517525Y936300D03*
X542525Y936300D03*
D15*
X473525Y993300D02*
X473525Y1013300D01*
X561525Y1013300D02*
X561525Y993300D01*
D14*
X378225Y936300D03*
X403225Y936300D03*
X428225Y936300D03*
D15*
X359225Y993300D02*
X359225Y1013300D01*
X447225Y1013300D02*
X447225Y993300D01*
D14*
X263925Y936300D03*
X288925Y936300D03*
X313925Y936300D03*
D15*
X244925Y993300D02*
X244925Y1013300D01*
X332925Y1013300D02*
X332925Y993300D01*
D14*
X149625Y936300D03*
X174625Y936300D03*
X199625Y936300D03*
D15*
X130625Y993300D02*
X130625Y1013300D01*
X218625Y1013300D02*
X218625Y993300D01*
D14*
X35325Y936300D03*
X60325Y936300D03*
X85325Y936300D03*
D15*
X16325Y993300D02*
X16325Y1013300D01*
X104325Y1013300D02*
X104325Y993300D01*
D16*
X661989Y139700D03*
X661989Y114300D03*
X547688Y139701D03*
X547688Y114301D03*
X433388Y139700D03*
X433388Y114300D03*
X319088Y139700D03*
X319088Y114300D03*
X204788Y139701D03*
X204788Y114301D03*
X90488Y139700D03*
X90488Y114300D03*
D17*
X142113Y801306D03*
X207137Y801306D03*
X142113Y846518D03*
X207137Y846518D03*
X27813Y801306D03*
X92837Y801306D03*
X27813Y846518D03*
X92837Y846518D03*
X599313Y801306D03*
X664337Y801306D03*
X599313Y846518D03*
X664337Y846518D03*
X485013Y801306D03*
X550037Y801306D03*
X485013Y846518D03*
X550037Y846518D03*
X370713Y801306D03*
X435737Y801306D03*
X370713Y846518D03*
X435737Y846518D03*
X256413Y801306D03*
X321437Y801306D03*
X256413Y846518D03*
X321437Y846518D03*
D18*
X619325Y459600D03*
X669325Y459600D03*
X594325Y759600D03*
X619325Y759600D03*
X644325Y759600D03*
X669325Y759600D03*
D19*
X530025Y759600D03*
X480025Y759600D03*
X555025Y459600D03*
X530025Y459600D03*
X505025Y459600D03*
X480025Y459600D03*
X415725Y759600D03*
X365725Y759600D03*
X440725Y459600D03*
X415725Y459600D03*
X390725Y459600D03*
X365725Y459600D03*
X301425Y759600D03*
X251425Y759600D03*
X326425Y459600D03*
X301425Y459600D03*
X276425Y459600D03*
X251425Y459600D03*
X187125Y759600D03*
X137125Y759600D03*
X212125Y459600D03*
X187125Y459600D03*
X162125Y459600D03*
X137125Y459600D03*
D18*
X47825Y459600D03*
X97825Y459600D03*
X22825Y759600D03*
X47825Y759600D03*
X72825Y759600D03*
X97825Y759600D03*
D20*
X174626Y698148D03*
X174626Y686148D03*
X250826Y698850D03*
X250826Y710850D03*
D21*
X579250Y403450D03*
X579250Y396950D03*
X579250Y390450D03*
X579250Y383950D03*
X627250Y383950D03*
X627250Y390450D03*
X627250Y396950D03*
X627250Y403450D03*
X118875Y403450D03*
X118875Y396950D03*
X118875Y390450D03*
X118875Y383950D03*
X166875Y383950D03*
X166875Y390450D03*
X166875Y396950D03*
X166875Y403450D03*
X347475Y403450D03*
X347475Y396950D03*
X347475Y390450D03*
X347475Y383950D03*
X395475Y383950D03*
X395475Y390450D03*
X395475Y396950D03*
X395475Y403450D03*
D22*
X125222Y298900D03*
X125222Y292400D03*
X125222Y285900D03*
X125222Y279400D03*
X125222Y272900D03*
X125222Y266400D03*
X125222Y259900D03*
X179578Y298900D03*
X179578Y292400D03*
X179578Y285900D03*
X179578Y279400D03*
X179578Y272900D03*
X179578Y266400D03*
X179578Y259900D03*
X356997Y298900D03*
X356997Y292400D03*
X356997Y285900D03*
X356997Y279400D03*
X356997Y272900D03*
X356997Y266400D03*
X356997Y259900D03*
X411353Y298900D03*
X411353Y292400D03*
X411353Y285900D03*
X411353Y279400D03*
X411353Y272900D03*
X411353Y266400D03*
X411353Y259900D03*
X576072Y298900D03*
X576072Y292400D03*
X576072Y285900D03*
X576072Y279400D03*
X576072Y272900D03*
X576072Y266400D03*
X576072Y259900D03*
X630428Y298900D03*
X630428Y292400D03*
X630428Y285900D03*
X630428Y279400D03*
X630428Y272900D03*
X630428Y266400D03*
X630428Y259900D03*
D23*
X25725Y556075D03*
X25725Y549575D03*
X25725Y543075D03*
X25725Y536575D03*
X25725Y530075D03*
X25725Y523575D03*
X25725Y517075D03*
X82225Y517075D03*
X82225Y523575D03*
X82225Y530075D03*
X82225Y536575D03*
X82225Y543075D03*
X82225Y549575D03*
X82225Y556075D03*
X82225Y510575D03*
X25725Y510575D03*
D24*
X389200Y654050D03*
X389200Y660400D03*
X389200Y666750D03*
X389200Y673100D03*
X389200Y679450D03*
X389200Y685800D03*
X389200Y692150D03*
X389200Y698500D03*
X389200Y704850D03*
X389200Y711200D03*
X389200Y717550D03*
X389200Y723900D03*
X334700Y723900D03*
X334700Y717550D03*
X334700Y711200D03*
X334700Y704850D03*
X334700Y698500D03*
X334700Y692150D03*
X334700Y685800D03*
X334700Y679450D03*
X334700Y673100D03*
X334700Y666750D03*
X334700Y660400D03*
X334700Y654050D03*
D25*
X240700Y627689D03*
X235700Y627689D03*
X230700Y627689D03*
X225700Y627689D03*
X220700Y627689D03*
X215700Y627689D03*
X210700Y627689D03*
X205700Y627689D03*
X200700Y627689D03*
X195700Y627689D03*
X190700Y627689D03*
X185700Y627689D03*
X180700Y627689D03*
X175700Y627689D03*
X170700Y627689D03*
X165700Y627689D03*
D26*
X144090Y605825D03*
X144090Y600825D03*
X144090Y595825D03*
X144090Y590825D03*
X144090Y585825D03*
X144090Y580825D03*
X144090Y575825D03*
X144090Y570825D03*
X144090Y565825D03*
X144090Y560825D03*
X144090Y555825D03*
X144090Y550825D03*
X144090Y545825D03*
X144090Y540825D03*
X144090Y535825D03*
X144090Y530825D03*
D25*
X165700Y509469D03*
X170700Y509469D03*
X175700Y509469D03*
X180700Y509469D03*
X185700Y509469D03*
X190700Y509469D03*
X195700Y509469D03*
X200700Y509469D03*
X205700Y509469D03*
X210700Y509469D03*
X215700Y509469D03*
X220700Y509469D03*
X225700Y509469D03*
X230700Y509469D03*
X235700Y509469D03*
X240700Y509469D03*
D26*
X262564Y530825D03*
X262564Y535825D03*
X262564Y540825D03*
X262564Y545825D03*
X262564Y550825D03*
X262564Y555825D03*
X262564Y560825D03*
X262564Y565825D03*
X262564Y570825D03*
X262564Y575825D03*
X262564Y580825D03*
X262564Y585825D03*
X262564Y590825D03*
X262564Y595825D03*
X262564Y600825D03*
X262564Y605825D03*
D20*
X296862Y582263D03*
X296862Y570263D03*
D27*
X622301Y111238D03*
X612801Y133238D03*
X631801Y133238D03*
D20*
X633413Y159988D03*
X633413Y147988D03*
D27*
X590549Y153875D03*
X600049Y131875D03*
X581049Y131875D03*
D20*
X579438Y106713D03*
X579438Y118713D03*
D28*
X606077Y168274D03*
X594077Y168274D03*
D20*
X547687Y174975D03*
X547687Y186975D03*
D28*
X611539Y149226D03*
X623539Y149226D03*
X601313Y117475D03*
X589313Y117475D03*
D29*
X610539Y158751D03*
X623539Y158751D03*
X602313Y106363D03*
X589313Y106363D03*
D27*
X393702Y111238D03*
X384202Y133238D03*
X403202Y133238D03*
D20*
X404812Y158399D03*
X404812Y146399D03*
D27*
X361952Y153874D03*
X371452Y131874D03*
X352452Y131874D03*
D20*
X350839Y106713D03*
X350839Y118713D03*
D28*
X377476Y168276D03*
X365476Y168276D03*
D20*
X319087Y174975D03*
X319087Y186975D03*
D28*
X382939Y147637D03*
X394939Y147637D03*
X372714Y117475D03*
X360714Y117475D03*
D29*
X381940Y157163D03*
X394940Y157163D03*
X373714Y106362D03*
X360714Y106362D03*
D27*
X165101Y111238D03*
X155601Y133238D03*
X174601Y133238D03*
D20*
X176213Y158399D03*
X176213Y146399D03*
D27*
X133350Y153875D03*
X142850Y131875D03*
X123850Y131875D03*
D20*
X123826Y106715D03*
X123826Y118715D03*
D28*
X148876Y168274D03*
X136876Y168274D03*
D20*
X90488Y174977D03*
X90488Y186977D03*
D28*
X154338Y147639D03*
X166338Y147639D03*
X145701Y117474D03*
X133701Y117474D03*
D29*
X153341Y157163D03*
X166341Y157163D03*
X146702Y106363D03*
X133702Y106363D03*
D20*
X658812Y396525D03*
X658812Y384525D03*
D28*
X622650Y428625D03*
X634650Y428625D03*
D20*
X649288Y396525D03*
X649288Y384525D03*
D28*
X634650Y417512D03*
X622650Y417512D03*
D20*
X566738Y396525D03*
X566738Y384525D03*
D28*
X583850Y428626D03*
X571850Y428626D03*
X567975Y407988D03*
X555975Y407988D03*
X571850Y417513D03*
X583850Y417513D03*
D20*
X425451Y396525D03*
X425451Y384525D03*
D28*
X390875Y428626D03*
X402875Y428626D03*
D20*
X415925Y396525D03*
X415925Y384525D03*
D28*
X402875Y417513D03*
X390875Y417513D03*
D20*
X334963Y396525D03*
X334963Y384525D03*
D28*
X352075Y428625D03*
X340075Y428625D03*
X336199Y407987D03*
X324199Y407987D03*
X340075Y417513D03*
X352075Y417513D03*
D20*
X196849Y396524D03*
X196849Y384524D03*
D28*
X162275Y417512D03*
X174275Y417512D03*
D20*
X187325Y396527D03*
X187325Y384527D03*
D28*
X174275Y428624D03*
X162275Y428624D03*
D20*
X100012Y390175D03*
X100012Y378175D03*
D28*
X121888Y412749D03*
X109888Y412749D03*
D20*
X100014Y410813D03*
X100014Y398813D03*
D28*
X106713Y423862D03*
X118713Y423862D03*
X656875Y428625D03*
X644875Y428625D03*
X84488Y423862D03*
X96488Y423862D03*
D23*
X41600Y632275D03*
X41600Y625775D03*
X41600Y619275D03*
X41600Y612775D03*
X41600Y606275D03*
X41600Y599775D03*
X41600Y593275D03*
X98100Y593275D03*
X98100Y599775D03*
X98100Y606275D03*
X98100Y612775D03*
X98100Y619275D03*
X98100Y625775D03*
X98100Y632275D03*
X98100Y586775D03*
X41600Y586775D03*
D20*
X320675Y660751D03*
X320675Y672751D03*
D30*
X329638Y315913D03*
X346638Y315913D03*
X548712Y315913D03*
X565712Y315913D03*
X437125Y315912D03*
X420125Y315912D03*
X656201Y315912D03*
X639201Y315912D03*
D20*
X654051Y304450D03*
X654051Y292450D03*
X434975Y304450D03*
X434975Y292450D03*
X552450Y304450D03*
X552450Y292450D03*
X333375Y304450D03*
X333375Y292450D03*
X666751Y291750D03*
X666751Y279750D03*
X439738Y263175D03*
X439738Y251175D03*
X539750Y291750D03*
X539750Y279750D03*
X320674Y294925D03*
X320674Y282925D03*
X642938Y292450D03*
X642938Y304450D03*
X423863Y292450D03*
X423863Y304450D03*
X563562Y292450D03*
X563562Y304450D03*
X344487Y292450D03*
X344487Y304450D03*
X468312Y305150D03*
X468312Y317150D03*
X468314Y282926D03*
X468314Y294926D03*
X477838Y305150D03*
X477838Y317150D03*
D28*
X620363Y247650D03*
X608363Y247650D03*
X401288Y247650D03*
X389288Y247650D03*
X586139Y247650D03*
X598139Y247650D03*
X367061Y247650D03*
X379061Y247650D03*
D30*
X97862Y315913D03*
X114862Y315913D03*
X206937Y315914D03*
X189937Y315914D03*
D20*
X203200Y304450D03*
X203200Y292450D03*
X101599Y304450D03*
X101599Y292450D03*
X214313Y291750D03*
X214313Y279750D03*
X88899Y298100D03*
X88899Y286100D03*
X192087Y292450D03*
X192087Y304450D03*
X112712Y292450D03*
X112712Y304450D03*
D28*
X169513Y247650D03*
X157513Y247650D03*
X135288Y247650D03*
X147288Y247650D03*
D31*
X388826Y322261D03*
X366826Y312761D03*
X366826Y331761D03*
D28*
X332137Y327026D03*
X344137Y327026D03*
X416275Y327025D03*
X428275Y327025D03*
D32*
X628700Y552450D03*
X666700Y552450D03*
X665112Y730250D03*
X627112Y730250D03*
D33*
X663575Y584200D03*
X612775Y584200D03*
X663575Y609600D03*
X612775Y609600D03*
X663575Y635000D03*
X612775Y635000D03*
X663575Y660400D03*
X612775Y660400D03*
X663575Y685800D03*
X612775Y685800D03*
D34*
X656700Y536573D03*
X640700Y536573D03*
X595838Y730250D03*
X611838Y730250D03*
D28*
X425100Y593725D03*
X413100Y593725D03*
D35*
X542925Y560100D03*
X542925Y532100D03*
D36*
X489238Y541337D03*
X517238Y541337D03*
D37*
X520175Y561975D03*
X501175Y561975D03*
D38*
X460375Y890588D03*
X231775Y890587D03*
D28*
X148875Y417512D03*
X136875Y417512D03*
X377475Y417513D03*
X365475Y417513D03*
X609250Y417512D03*
X597250Y417512D03*
X113949Y279400D03*
X101949Y279400D03*
X344137Y279400D03*
X332137Y279400D03*
X564799Y279400D03*
X552799Y279400D03*
X202850Y279400D03*
X190850Y279400D03*
X436213Y279400D03*
X424213Y279400D03*
X653700Y279400D03*
X641700Y279400D03*
X94900Y647700D03*
X82900Y647700D03*
D20*
X101600Y562325D03*
X101600Y574325D03*
X279400Y615600D03*
X279400Y603600D03*
D28*
X329850Y646114D03*
X317850Y646114D03*
D20*
X406400Y548925D03*
X406400Y536925D03*
D39*
X564324Y509589D03*
D40*
X596139Y494589D03*
X596139Y524589D03*
X596139Y509589D03*
D20*
X130175Y609950D03*
X130175Y621950D03*
X142875Y616300D03*
X142875Y628300D03*
D28*
X158400Y508000D03*
X146400Y508000D03*
D41*
X569150Y697500D03*
X569150Y572500D03*
X434150Y572500D03*
X434150Y697500D03*
D28*
X158400Y495300D03*
X146400Y495300D03*
D20*
X117475Y609950D03*
X117475Y621950D03*
D35*
X266699Y630525D03*
X266699Y658525D03*
D36*
X99724Y679450D03*
X71724Y679450D03*
X513050Y511175D03*
X541050Y511175D03*
D35*
X303212Y644813D03*
X303212Y672813D03*
D36*
X638463Y520700D03*
X666463Y520700D03*
X638462Y500062D03*
X666462Y500062D03*
X535275Y733425D03*
X563275Y733425D03*
X516225Y711200D03*
X544225Y711200D03*
D35*
X619124Y522002D03*
X619124Y494002D03*
D42*
X403225Y890588D03*
X403225Y865188D03*
X403225Y915988D03*
X517525Y890588D03*
X517525Y865188D03*
X517525Y915988D03*
X631825Y890586D03*
X631825Y865186D03*
X631825Y915986D03*
X288925Y890588D03*
X288925Y865188D03*
X288925Y915988D03*
X174625Y890588D03*
X174625Y865188D03*
X174625Y915988D03*
X60325Y890589D03*
X60325Y865189D03*
X60325Y915989D03*
D20*
X131761Y704499D03*
X131761Y692499D03*
D28*
X276576Y722312D03*
X288576Y722312D03*
X444151Y717549D03*
X432151Y717549D03*
X393350Y739776D03*
X381350Y739776D03*
D17*
X117475Y915987D03*
X117475Y890587D03*
X117475Y865187D03*
D20*
X53975Y644875D03*
X53975Y656875D03*
X44450Y644875D03*
X44450Y656875D03*
D17*
X574675Y917575D03*
X574675Y892175D03*
X574675Y866775D03*
D28*
X414689Y663574D03*
X426689Y663574D03*
X414688Y674688D03*
X426688Y674688D03*
D30*
X669926Y386787D03*
X669926Y403787D03*
X555625Y378851D03*
X555625Y395851D03*
X436563Y386788D03*
X436563Y403788D03*
X323852Y378850D03*
X323852Y395850D03*
X207963Y386788D03*
X207963Y403788D03*
X23813Y310587D03*
X23813Y327587D03*
D20*
X217488Y651225D03*
X217488Y663225D03*
X207963Y651226D03*
X207963Y663226D03*
D43*
X285751Y645587D03*
X285751Y629587D03*
D36*
X423576Y628650D03*
X395576Y628650D03*
D34*
X613299Y536575D03*
X629299Y536575D03*
D44*
X133237Y23815D03*
X111237Y14315D03*
X111237Y33315D03*
D38*
X346075Y906462D03*
D14*
X318294Y519113D03*
D17*
X318294Y544513D03*
X318294Y569913D03*
X318294Y595313D03*
D45*
X234725Y710501D03*
X190725Y710501D03*
X190725Y686501D03*
X234725Y686501D03*
D46*
X356737Y543500D03*
X363237Y543500D03*
X369737Y543500D03*
X376237Y543500D03*
X382737Y543500D03*
X389237Y543500D03*
X395737Y543500D03*
X395737Y599500D03*
X389237Y599500D03*
X382737Y599500D03*
X376237Y599500D03*
X369737Y599500D03*
X363237Y599500D03*
X356737Y599500D03*
D35*
X455613Y545812D03*
X455613Y517812D03*
M02*
